<svg width="400" height="288" xmlns="http://www.w3.org/2000/svg" viewBox="11920 6983 400 288"><defs><style>.a{fill:#1cb9df}.b{fill:#fff;font-size:15px;font-family:SFUIDisplay-Regular,SF UI Display;letter-spacing:.04em}</style></defs><g transform="translate(11587 6734)"><circle class="a" cx="30" cy="30" r="30" transform="translate(333 249)"/><text class="b" transform="translate(363 284)"><tspan x="-15.164" y="0">80%</tspan></text></g><g transform="translate(11672 6734)"><circle class="a" cx="30" cy="30" r="30" transform="translate(333 249)"/><text class="b" transform="translate(363 284)"><tspan x="-14.699" y="0">70%</tspan></text></g><g transform="translate(11757 6734)"><circle class="a" cx="30" cy="30" r="30" transform="translate(333 249)"/><text class="b" transform="translate(363 284)"><tspan x="-14.699" y="0">70%</tspan></text></g><g transform="translate(11630 6810)"><circle class="a" cx="30" cy="30" r="30" transform="translate(333 249)"/><text class="b" transform="translate(363 284)"><tspan x="-14.699" y="0">70%</tspan></text></g><g transform="translate(11630 6962)"><circle class="a" cx="30" cy="30" r="30" transform="translate(333 249)"/><text class="b" transform="translate(363 284)"><tspan x="-14.699" y="0">70%</tspan></text></g><g transform="translate(11842 6734)"><circle class="a" cx="30" cy="30" r="30" transform="translate(333 249)"/><text class="b" transform="translate(363 284)"><tspan x="-15.164" y="0">80%</tspan></text></g><g transform="translate(11715 6810)"><circle class="a" cx="30" cy="30" r="30" transform="translate(333 249)"/><text class="b" transform="translate(363 284)"><tspan x="-15.164" y="0">80%</tspan></text></g><g transform="translate(11715 6962)"><circle class="a" cx="30" cy="30" r="30" transform="translate(333 249)"/><text class="b" transform="translate(363 284)"><tspan x="-15.164" y="0">80%</tspan></text></g><g transform="translate(11672 6886)"><circle class="a" cx="30" cy="30" r="30" transform="translate(333 249)"/><text class="b" transform="translate(363 284)"><tspan x="-14.699" y="0">70%</tspan></text></g><g transform="translate(11927 6886)"><circle class="a" cx="30" cy="30" r="30" transform="translate(333 249)"/><text class="b" transform="translate(363 284)"><tspan x="-15.164" y="0">80%</tspan></text></g><g transform="translate(11927 6734)"><circle class="a" cx="30" cy="30" r="30" transform="translate(333 249)"/><text class="b" transform="translate(363 284)"><tspan x="-14.699" y="0">70%</tspan></text></g><g transform="translate(11800 6810)"><circle class="a" cx="30" cy="30" r="30" transform="translate(333 249)"/><text class="b" transform="translate(363 284)"><tspan x="-14.699" y="0">70%</tspan></text></g><g transform="translate(11800 6962)"><circle class="a" cx="30" cy="30" r="30" transform="translate(333 249)"/><text class="b" transform="translate(363 284)"><tspan x="-15.164" y="0">80%</tspan></text></g><g transform="translate(11757 6886)"><circle class="a" cx="30" cy="30" r="30" transform="translate(333 249)"/><text class="b" transform="translate(363 284)"><tspan x="-15.164" y="0">80%</tspan></text></g><g transform="translate(11587 6886)"><circle class="a" cx="30" cy="30" r="30" transform="translate(333 249)"/><text class="b" transform="translate(363 284)"><tspan x="-15.164" y="0">80%</tspan></text></g><g transform="translate(11842 6886)"><circle class="a" cx="30" cy="30" r="30" transform="translate(333 249)"/><text class="b" transform="translate(363 284)"><tspan x="-14.699" y="0">70%</tspan></text></g><g transform="translate(11885 6810)"><circle class="a" cx="30" cy="30" r="30" transform="translate(333 249)"/><text class="b" transform="translate(363 284)"><tspan x="-14.699" y="0">70%</tspan></text></g><g transform="translate(11885 6962)"><circle class="a" cx="30" cy="30" r="30" transform="translate(333 249)"/><text class="b" transform="translate(363 284)"><tspan x="-14.699" y="0">70%</tspan></text></g></svg>