<svg width="288" height="288" xmlns="http://www.w3.org/2000/svg" viewBox="12476 6983 288 288"><defs><style>.a{fill:#e9ecef}.b{fill:#1cb9df}</style></defs><circle class="a" cx="144" cy="144" r="144" transform="translate(12476 6983)"/><circle class="b" cx="5" cy="5" r="5" transform="translate(12527 7034)"/><circle class="b" cx="7" cy="7" r="7" transform="translate(12541 7032)"/><circle class="b" cx="3" cy="3" r="3" transform="translate(12561 7036)"/><circle class="b" cx="7" cy="7" r="7" transform="translate(12573 7032)"/><circle class="b" cx="3" cy="3" r="3" transform="translate(12593 7036)"/><circle class="b" cx="3" cy="3" r="3" transform="translate(12609 7036)"/><circle class="b" cx="7" cy="7" r="7" transform="translate(12621 7032)"/><circle class="b" cx="3" cy="3" r="3" transform="translate(12641 7036)"/><circle class="b" cx="5" cy="5" r="5" transform="translate(12655 7034)"/><circle class="b" cx="5" cy="5" r="5" transform="translate(12671 7034)"/><circle class="b" cx="3" cy="3" r="3" transform="translate(12689 7036)"/><circle class="b" cx="7" cy="7" r="7" transform="translate(12701 7032)"/><g><circle class="b" cx="7" cy="7" r="7" transform="translate(12525 7048)"/><circle class="b" cx="5" cy="5" r="5" transform="translate(12543 7050)"/><circle class="b" cx="3" cy="3" r="3" transform="translate(12561 7052)"/><circle class="b" cx="3" cy="3" r="3" transform="translate(12577 7052)"/><circle class="b" cx="7" cy="7" r="7" transform="translate(12589 7048)"/><circle class="b" cx="5" cy="5" r="5" transform="translate(12607 7050)"/><circle class="b" cx="3" cy="3" r="3" transform="translate(12625 7052)"/><circle class="b" cx="3" cy="3" r="3" transform="translate(12641 7052)"/><circle class="b" cx="5" cy="5" r="5" transform="translate(12655 7050)"/><circle class="b" cx="3" cy="3" r="3" transform="translate(12673 7052)"/><circle class="b" cx="3" cy="3" r="3" transform="translate(12689 7052)"/><circle class="b" cx="7" cy="7" r="7" transform="translate(12701 7048)"/></g><g><circle class="b" cx="3" cy="3" r="3" transform="translate(12529 7068)"/><circle class="b" cx="3" cy="3" r="3" transform="translate(12545 7068)"/><circle class="b" cx="3" cy="3" r="3" transform="translate(12561 7068)"/><circle class="b" cx="5" cy="5" r="5" transform="translate(12575 7066)"/><circle class="b" cx="5" cy="5" r="5" transform="translate(12591 7066)"/><circle class="b" cx="5" cy="5" r="5" transform="translate(12607 7066)"/><circle class="b" cx="7" cy="7" r="7" transform="translate(12621 7064)"/><circle class="b" cx="3" cy="3" r="3" transform="translate(12641 7068)"/><circle class="b" cx="3" cy="3" r="3" transform="translate(12657 7068)"/><circle class="b" cx="5" cy="5" r="5" transform="translate(12671 7066)"/><circle class="b" cx="5" cy="5" r="5" transform="translate(12687 7066)"/><circle class="b" cx="3" cy="3" r="3" transform="translate(12705 7068)"/></g><g><circle class="b" cx="3" cy="3" r="3" transform="translate(12529 7084)"/><circle class="b" cx="5" cy="5" r="5" transform="translate(12543 7082)"/><circle class="b" cx="3" cy="3" r="3" transform="translate(12561 7084)"/><circle class="b" cx="7" cy="7" r="7" transform="translate(12573 7080)"/><circle class="b" cx="7" cy="7" r="7" transform="translate(12589 7080)"/><circle class="b" cx="3" cy="3" r="3" transform="translate(12609 7084)"/><circle class="b" cx="5" cy="5" r="5" transform="translate(12623 7082)"/><circle class="b" cx="3" cy="3" r="3" transform="translate(12641 7084)"/><circle class="b" cx="5" cy="5" r="5" transform="translate(12655 7082)"/><circle class="b" cx="7" cy="7" r="7" transform="translate(12669 7080)"/><circle class="b" cx="3" cy="3" r="3" transform="translate(12689 7084)"/><circle class="b" cx="5" cy="5" r="5" transform="translate(12703 7082)"/></g><g><circle class="b" cx="5" cy="5" r="5" transform="translate(12527 7098)"/><circle class="b" cx="3" cy="3" r="3" transform="translate(12545 7100)"/><circle class="b" cx="7" cy="7" r="7" transform="translate(12557 7096)"/><circle class="b" cx="3" cy="3" r="3" transform="translate(12577 7100)"/><circle class="b" cx="5" cy="5" r="5" transform="translate(12591 7098)"/><circle class="b" cx="5" cy="5" r="5" transform="translate(12607 7098)"/><circle class="b" cx="3" cy="3" r="3" transform="translate(12625 7100)"/><circle class="b" cx="7" cy="7" r="7" transform="translate(12637 7096)"/><circle class="b" cx="3" cy="3" r="3" transform="translate(12657 7100)"/><circle class="b" cx="7" cy="7" r="7" transform="translate(12669 7096)"/><circle class="b" cx="3" cy="3" r="3" transform="translate(12689 7100)"/><circle class="b" cx="3" cy="3" r="3" transform="translate(12705 7100)"/></g><g><circle class="b" cx="3" cy="3" r="3" transform="translate(12529 7116)"/><circle class="b" cx="5" cy="5" r="5" transform="translate(12543 7114)"/><circle class="b" cx="7" cy="7" r="7" transform="translate(12557 7112)"/><circle class="b" cx="3" cy="3" r="3" transform="translate(12577 7116)"/><circle class="b" cx="5" cy="5" r="5" transform="translate(12591 7114)"/><circle class="b" cx="5" cy="5" r="5" transform="translate(12607 7114)"/><circle class="b" cx="7" cy="7" r="7" transform="translate(12621 7112)"/><circle class="b" cx="3" cy="3" r="3" transform="translate(12641 7116)"/><circle class="b" cx="3" cy="3" r="3" transform="translate(12657 7116)"/><circle class="b" cx="7" cy="7" r="7" transform="translate(12669 7112)"/><circle class="b" cx="5" cy="5" r="5" transform="translate(12687 7114)"/><circle class="b" cx="5" cy="5" r="5" transform="translate(12703 7114)"/></g><g><circle class="b" cx="5" cy="5" r="5" transform="translate(12527 7130)"/><circle class="b" cx="7" cy="7" r="7" transform="translate(12541 7128)"/><circle class="b" cx="5" cy="5" r="5" transform="translate(12559 7130)"/><circle class="b" cx="5" cy="5" r="5" transform="translate(12575 7130)"/><circle class="b" cx="5" cy="5" r="5" transform="translate(12591 7130)"/><circle class="b" cx="3" cy="3" r="3" transform="translate(12609 7132)"/><circle class="b" cx="3" cy="3" r="3" transform="translate(12625 7132)"/><circle class="b" cx="5" cy="5" r="5" transform="translate(12639 7130)"/><circle class="b" cx="7" cy="7" r="7" transform="translate(12653 7128)"/><circle class="b" cx="7" cy="7" r="7" transform="translate(12669 7128)"/><circle class="b" cx="3" cy="3" r="3" transform="translate(12689 7132)"/><circle class="b" cx="5" cy="5" r="5" transform="translate(12703 7130)"/></g><g><circle class="b" cx="3" cy="3" r="3" transform="translate(12529 7164)"/><circle class="b" cx="5" cy="5" r="5" transform="translate(12543 7162)"/><circle class="b" cx="5" cy="5" r="5" transform="translate(12559 7162)"/><circle class="b" cx="3" cy="3" r="3" transform="translate(12577 7164)"/><circle class="b" cx="3" cy="3" r="3" transform="translate(12593 7164)"/><circle class="b" cx="5" cy="5" r="5" transform="translate(12607 7162)"/><circle class="b" cx="3" cy="3" r="3" transform="translate(12625 7164)"/><circle class="b" cx="5" cy="5" r="5" transform="translate(12639 7162)"/><circle class="b" cx="5" cy="5" r="5" transform="translate(12655 7162)"/><circle class="b" cx="3" cy="3" r="3" transform="translate(12673 7164)"/><circle class="b" cx="7" cy="7" r="7" transform="translate(12685 7160)"/><circle class="b" cx="7" cy="7" r="7" transform="translate(12701 7160)"/></g><g><circle class="b" cx="3" cy="3" r="3" transform="translate(12529 7196)"/><circle class="b" cx="5" cy="5" r="5" transform="translate(12543 7194)"/><circle class="b" cx="5" cy="5" r="5" transform="translate(12559 7194)"/><circle class="b" cx="3" cy="3" r="3" transform="translate(12577 7196)"/><circle class="b" cx="7" cy="7" r="7" transform="translate(12589 7192)"/><circle class="b" cx="3" cy="3" r="3" transform="translate(12609 7196)"/><circle class="b" cx="5" cy="5" r="5" transform="translate(12623 7194)"/><circle class="b" cx="3" cy="3" r="3" transform="translate(12641 7196)"/><circle class="b" cx="7" cy="7" r="7" transform="translate(12653 7192)"/><circle class="b" cx="3" cy="3" r="3" transform="translate(12673 7196)"/><circle class="b" cx="5" cy="5" r="5" transform="translate(12687 7194)"/><circle class="b" cx="7" cy="7" r="7" transform="translate(12701 7192)"/></g><g><circle class="b" cx="5" cy="5" r="5" transform="translate(12527 7146)"/><circle class="b" cx="3" cy="3" r="3" transform="translate(12545 7148)"/><circle class="b" cx="7" cy="7" r="7" transform="translate(12557 7144)"/><circle class="b" cx="5" cy="5" r="5" transform="translate(12575 7146)"/><circle class="b" cx="3" cy="3" r="3" transform="translate(12593 7148)"/><circle class="b" cx="5" cy="5" r="5" transform="translate(12607 7146)"/><circle class="b" cx="7" cy="7" r="7" transform="translate(12621 7144)"/><circle class="b" cx="5" cy="5" r="5" transform="translate(12639 7146)"/><circle class="b" cx="3" cy="3" r="3" transform="translate(12657 7148)"/><circle class="b" cx="5" cy="5" r="5" transform="translate(12671 7146)"/><circle class="b" cx="5" cy="5" r="5" transform="translate(12687 7146)"/><circle class="b" cx="5" cy="5" r="5" transform="translate(12703 7146)"/></g><g><circle class="b" cx="7" cy="7" r="7" transform="translate(12525 7176)"/><circle class="b" cx="3" cy="3" r="3" transform="translate(12545 7180)"/><circle class="b" cx="5" cy="5" r="5" transform="translate(12559 7178)"/><circle class="b" cx="7" cy="7" r="7" transform="translate(12573 7176)"/><circle class="b" cx="3" cy="3" r="3" transform="translate(12593 7180)"/><circle class="b" cx="7" cy="7" r="7" transform="translate(12605 7176)"/><circle class="b" cx="5" cy="5" r="5" transform="translate(12623 7178)"/><circle class="b" cx="3" cy="3" r="3" transform="translate(12641 7180)"/><circle class="b" cx="3" cy="3" r="3" transform="translate(12657 7180)"/><circle class="b" cx="7" cy="7" r="7" transform="translate(12669 7176)"/><circle class="b" cx="3" cy="3" r="3" transform="translate(12689 7180)"/><circle class="b" cx="3" cy="3" r="3" transform="translate(12705 7180)"/></g><g><circle class="b" cx="7" cy="7" r="7" transform="translate(12525 7208)"/><circle class="b" cx="3" cy="3" r="3" transform="translate(12545 7212)"/><circle class="b" cx="3" cy="3" r="3" transform="translate(12561 7212)"/><circle class="b" cx="7" cy="7" r="7" transform="translate(12573 7208)"/><circle class="b" cx="5" cy="5" r="5" transform="translate(12591 7210)"/><circle class="b" cx="3" cy="3" r="3" transform="translate(12609 7212)"/><circle class="b" cx="5" cy="5" r="5" transform="translate(12623 7210)"/><circle class="b" cx="7" cy="7" r="7" transform="translate(12637 7208)"/><circle class="b" cx="3" cy="3" r="3" transform="translate(12657 7212)"/><circle class="b" cx="5" cy="5" r="5" transform="translate(12671 7210)"/><circle class="b" cx="7" cy="7" r="7" transform="translate(12685 7208)"/><circle class="b" cx="7" cy="7" r="7" transform="translate(12701 7208)"/></g></svg>