<svg xmlns="http://www.w3.org/2000/svg" xmlns:xlink="http://www.w3.org/1999/xlink" width="18" height="24" viewBox="0 0 18 24"><defs><path id="5mioa" d="M823.34 16492.72a4.45 4.45 0 0 1-.3 4.83c-.57.8-1.39 1.42-2.44 1.85-.55.21-1.24.38-2.05.48v3.12h-2.53v-2.97H814.39v2.97h-2.52v-2.97h-5.37v-2.5h.71c.47 0 .8-.04.97-.12.16-.08.28-.2.35-.35.07-.15.1-.5.1-1.02v-10.07a3 3 0 0 0-.1-1.02.76.76 0 0 0-.35-.35c-.17-.09-.5-.13-.97-.13h-.71v-2.5h5.37v-2.97h2.52v2.97h1.63v-2.97h2.53v3.07c.74.1 1.39.24 1.9.45.9.37 1.6.9 2.08 1.58a3.85 3.85 0 0 1 .34 3.95c-.26.54-.63 1.01-1.1 1.42a5.8 5.8 0 0 1-1.9 1.02c.84.21 1.48.45 1.93.71.65.36 1.16.87 1.54 1.52zm-10.24-7.84v4.4h1.98a7.5 7.5 0 0 0 2.3-.25c.5-.17.87-.44 1.12-.79.25-.35.38-.75.38-1.2 0-.48-.12-.89-.36-1.22a1.94 1.94 0 0 0-1.03-.72 9.13 9.13 0 0 0-2.4-.22zm5.6 11.16c.35-.45.53-.99.52-1.61 0-.54-.12-1-.37-1.37a2.28 2.28 0 0 0-1.12-.84 6.88 6.88 0 0 0-2.3-.28h-2.33v3.9c.01.56.03.88.07.98.04.12.11.2.2.25.1.05.38.07.82.07h1.31c.77 0 1.4-.07 1.9-.21.51-.14.94-.44 1.3-.89z"/></defs><g><g opacity=".4" transform="translate(-806 -16479)"><use fill="#fff" xlink:href="#5mioa"/></g></g></svg>