<svg xmlns="http://www.w3.org/2000/svg" xmlns:xlink="http://www.w3.org/1999/xlink" width="25" height="21" viewBox="0 0 25 21"><defs><path id="d5yca" d="M1230.67 16486.57a8.56 8.56 0 0 1 1.96 5.74c0 1.99-.29 3.58-.88 4.77a5.82 5.82 0 0 1-1.52 1.92c-.65.54-1.32.95-2.03 1.24-.7.29-1.53.52-2.45.69-.93.16-1.76.27-2.48.31a40.78 40.78 0 0 1-6.58-.16 12.8 12.8 0 0 1-4.18-1.17 6.38 6.38 0 0 1-2.98-2.83 10.7 10.7 0 0 1-.9-4.77c0-2.28.66-4.18 1.97-5.71a7.79 7.79 0 0 1-.4-2.46c0-1.11.25-2.16.74-3.14 1.04 0 1.95.19 2.74.57.8.38 1.7.97 2.73 1.78a19.19 19.19 0 0 1 8.5-.04c1-.8 1.9-1.37 2.69-1.75.79-.37 1.7-.56 2.73-.56.49.98.73 2.03.73 3.14 0 .84-.13 1.65-.39 2.43zm-1.73 10.49a5 5 0 0 0 .46-2.21c0-1.16-.33-2.14-1-2.95a3.3 3.3 0 0 0-2.69-1.2c-.4 0-1.33.1-2.81.3-.68.1-1.44.15-2.27.15-.82 0-1.58-.05-2.26-.15-1.46-.2-2.4-.3-2.81-.3a3.3 3.3 0 0 0-2.7 1.2c-.66.81-1 1.8-1 2.95 0 .84.16 1.58.47 2.21.3.63.7 1.12 1.16 1.49.48.36 1.06.64 1.76.86.7.22 1.38.36 2.02.43.65.06 1.36.1 2.15.1h2.43c.78 0 1.5-.04 2.14-.1.65-.07 1.32-.21 2.02-.43s1.3-.5 1.76-.86c.47-.37.86-.86 1.17-1.49z"/><path id="d5ycb" d="M1217.06 16492.57a1.36 1.36 0 0 0-2.09 0c-.29.32-.5.69-.62 1.1a4.13 4.13 0 0 0 0 2.36c.12.4.33.77.62 1.1a1.36 1.36 0 0 0 2.1 0c.29-.33.5-.7.61-1.1a4.14 4.14 0 0 0 0-2.37c-.12-.4-.32-.77-.62-1.1z"/><path id="d5ycc" d="M1226.3 16492.57a1.36 1.36 0 0 0-2.1 0c-.29.32-.5.69-.62 1.1a4.13 4.13 0 0 0 0 2.36c.12.4.33.77.62 1.1a1.36 1.36 0 0 0 2.1 0c.29-.33.5-.7.62-1.1a4.14 4.14 0 0 0 0-2.37c-.13-.4-.33-.77-.63-1.1z"/></defs><g><g opacity=".4" transform="translate(-1208 -16481)"><use fill="#fff" xlink:href="#d5yca"/></g><g opacity=".4" transform="translate(-1208 -16481)"><use fill="#fff" xlink:href="#d5ycb"/></g><g opacity=".4" transform="translate(-1208 -16481)"><use fill="#fff" xlink:href="#d5ycc"/></g></g></svg>