<svg xmlns="http://www.w3.org/2000/svg" xmlns:xlink="http://www.w3.org/1999/xlink" width="23" height="23" viewBox="0 0 23 23"><defs><path id="m7iua" d="M1057.9 16486.46v8.9a6.56 6.56 0 0 1-6.55 6.55h-8.89a6.56 6.56 0 0 1-6.55-6.56v-8.89a6.56 6.56 0 0 1 6.55-6.55h8.9a6.56 6.56 0 0 1 6.55 6.55zm-2.2 0c0-2.4-1.95-4.34-4.35-4.34h-8.89a4.34 4.34 0 0 0-4.34 4.34v8.9c0 2.4 1.94 4.33 4.34 4.33h8.9c2.4 0 4.33-1.94 4.33-4.34z"/><path id="m7iub" d="M1052.6 16490.9a5.7 5.7 0 1 1-11.4 0 5.7 5.7 0 0 1 11.4 0zm-2.22 0a3.48 3.48 0 1 0-6.95 0 3.48 3.48 0 0 0 6.95 0z"/><path id="m7iuc" d="M1051.25 16485.26a1.36 1.36 0 1 1 2.72 0 1.36 1.36 0 0 1-2.72 0z"/></defs><g><g opacity=".4" transform="translate(-1035 -16479)"><use fill="#fff" xlink:href="#m7iua"/></g><g opacity=".4" transform="translate(-1035 -16479)"><use fill="#fff" xlink:href="#m7iub"/></g><g opacity=".4" transform="translate(-1035 -16479)"><use fill="#fff" xlink:href="#m7iuc"/></g></g></svg>