<svg xmlns="http://www.w3.org/2000/svg" xmlns:xlink="http://www.w3.org/1999/xlink" width="21" height="21" viewBox="0 0 21 21"><defs><path id="3l2sa" d="M999.97 16499.93h-4.49v-7.22c0-1.82-.65-3.06-2.27-3.06-1.24 0-1.98.84-2.3 1.65-.12.28-.15.69-.15 1.09v7.54h-4.5s.07-12.23 0-13.5h4.5v1.91l-.03.05h.03v-.05a4.46 4.46 0 0 1 4.04-2.23c2.95 0 5.17 1.93 5.17 6.08zm-15.89-17.67c0 1.3-.97 2.33-2.53 2.33h-.03c-1.5 0-2.48-1.04-2.48-2.33 0-1.33 1-2.33 2.54-2.33 1.53 0 2.47 1 2.5 2.33zm-4.78 4.17h4.49v13.5h-4.49z"/></defs><g><g opacity=".4" transform="translate(-979 -16479)"><use fill="#fff" xlink:href="#3l2sa"/></g></g></svg>