<svg xmlns="http://www.w3.org/2000/svg" xmlns:xlink="http://www.w3.org/1999/xlink" width="25" height="19" viewBox="0 0 25 19"><defs><path id="ccuga" d="M1117.5 16484.5h-1.32c-.35 0-1.25.37-1.25.7v11.57c0 .32.9.58 1.25.58h1.32v2.57h-8.57v-2.57h1.71v-12h-.3l-4.12 14.57h-3.2l-4.07-14.57h-.3v12h1.7v2.57h-6.85v-2.57h.95c.37 0 .76-.26.76-.58v-11.58c0-.32-.39-.7-.76-.7h-.95v-2.56h8.89l2.9 10.28h.08l2.93-10.28h9.2z"/></defs><g><g opacity=".4" transform="translate(-1093 -16481)"><use fill="#fff" xlink:href="#ccuga"/></g></g></svg>