<svg xmlns="http://www.w3.org/2000/svg" xmlns:xlink="http://www.w3.org/1999/xlink" width="26" height="22" viewBox="0 0 26 22"><defs><path id="r238a" d="M770 16489.4a3.2 3.2 0 0 1-1.74 2.86v.38c0 4.46-5.07 8.09-11.32 8.09-6.24 0-11.32-3.63-11.32-8.1 0-.14 0-.28.02-.43a3.24 3.24 0 1 1 3.5-5.42 13.87 13.87 0 0 1 7.25-2.2l1.88-4.4a.8.8 0 0 1 .93-.46l4.61 1.07a2.42 2.42 0 1 1-.37 1.58l-3.95-.92-1.36 3.18c2.52.19 4.88.94 6.69 2.2a3.24 3.24 0 0 1 5.18 2.58zm-4.97-7.28a.81.81 0 1 0 1.62 0 .81.81 0 0 0-1.62 0zm-12.13 11.33a1.62 1.62 0 1 0 0-3.24 1.62 1.62 0 0 0 0 3.24zm7.96 2.62a.8.8 0 0 0-1.13-.18 4.74 4.74 0 0 1-5.57 0 .8.8 0 1 0-.95 1.31 6.37 6.37 0 0 0 7.47 0 .8.8 0 0 0 .18-1.13zm1.75-4.24a1.62 1.62 0 1 0-3.24 0 1.62 1.62 0 0 0 3.24 0z"/></defs><g><g opacity=".4" transform="translate(-744 -16479)"><use fill="#fff" xlink:href="#r238a"/></g></g></svg>