<svg xmlns="http://www.w3.org/2000/svg" xmlns:xlink="http://www.w3.org/1999/xlink" width="24" height="22" viewBox="0 0 24 22"><defs><path id="5a4la" d="M686.42 16490.43a.65.65 0 0 1 0-1.22l22.7-8.75c.47-.19.97.23.87.74l-4.08 19.59a.65.65 0 0 1-1.02.4l-5.56-4.04a.92.92 0 0 0-1.12.03l-3.08 2.5c-.36.3-.9.14-1.04-.3l-2.14-6.89zm7.33.97c-.41.25-.61.75-.48 1.22l1.17 4.1c.09.3.5.27.55-.03l.3-2.26c.06-.42.26-.81.58-1.1l8.91-8.3c.17-.15-.03-.41-.22-.3l-10.81 6.67z"/></defs><g><g opacity=".4" transform="translate(-686 -16480)"><use fill="#fff" xlink:href="#5a4la"/></g></g></svg>