<svg xmlns="http://www.w3.org/2000/svg" xmlns:xlink="http://www.w3.org/1999/xlink" width="24" height="19" viewBox="0 0 24 19"><defs><path id="rsopa" d="M943.3 16484.21c-.84.38-1.75.63-2.7.74a4.74 4.74 0 0 0 2.07-2.6c-.91.53-1.92.93-3 1.14a4.7 4.7 0 0 0-8.16 3.23c0 .37.04.73.12 1.07a13.4 13.4 0 0 1-9.72-4.93 4.72 4.72 0 0 0 1.46 6.3 4.72 4.72 0 0 1-2.14-.6v.07c0 2.28 1.63 4.19 3.79 4.62a4.78 4.78 0 0 1-2.13.08 4.72 4.72 0 0 0 4.4 3.28 9.47 9.47 0 0 1-6.98 1.95 13.34 13.34 0 0 0 7.23 2.12c8.68 0 13.42-7.19 13.42-13.42l-.01-.61a9.42 9.42 0 0 0 2.36-2.44z"/></defs><g><g opacity=".4" transform="translate(-920 -16482)"><use fill="#fff" xlink:href="#rsopa"/></g></g></svg>