<svg xmlns="http://www.w3.org/2000/svg" xmlns:xlink="http://www.w3.org/1999/xlink" width="24" height="18" viewBox="0 0 24 18"><defs><path id="gbcia" d="M1174.59 16485.64c.41 1.82.41 3.8.41 5.68 0 1.87 0 3.85-.42 5.67a3.03 3.03 0 0 1-2.6 2.36c-2.97.33-5.98.33-8.98.33s-6.01 0-8.99-.33a3.03 3.03 0 0 1-2.6-2.36c-.41-1.82-.41-3.8-.41-5.67 0-1.88 0-3.86.42-5.68a3.03 3.03 0 0 1 2.6-2.36c2.97-.33 5.98-.33 8.98-.33s6.01 0 9 .33a3.03 3.03 0 0 1 2.59 2.36zm-7.06 5.44l-7.63-3.98v7.94l7.63-3.96z"/></defs><g><g opacity=".4" transform="translate(-1151 -16482)"><use fill="#fff" xlink:href="#gbcia"/></g></g></svg>