<svg xmlns="http://www.w3.org/2000/svg" xmlns:xlink="http://www.w3.org/1999/xlink" width="15" height="21" viewBox="0 0 15 21"><defs><path id="a" d="M509.27 8929.92a3 3 0 0 1 .55-1.92c.3-.4.78-.7 1.45-.88-.2-.52-.31-.91-.31-1.16 0-.43.22-.89.68-1.37.49-.46.94-.69 1.36-.69.22 0 .48.06.78.18a94.6 94.6 0 0 1-1.35-4.08 9.32 9.32 0 0 1-.47-2.25c0-.63.15-1.12.47-1.47.32-.37.76-.55 1.31-.55.94 0 2.07 1.92 3.4 5.78l.33.96.23-.65c1.3-3.81 2.48-5.72 3.53-5.72.52 0 .94.18 1.24.53.31.35.47.8.47 1.37 0 .37-.16 1.1-.47 2.22-.28.95-.71 2.26-1.3 3.92a2.5 2.5 0 0 1 1.61 1.06c.35.56.53 1.43.53 2.6a8 8 0 0 1-2.08 5.71 7.11 7.11 0 0 1-5.37 2.22 6.74 6.74 0 0 1-4.59-1.77 6.84 6.84 0 0 1-1.49-1.94 4.8 4.8 0 0 1-.51-2.1zm1.27-.1c0 .33.1.72.28 1.16a5.5 5.5 0 0 0 2.67 2.9c.74.37 1.58.55 2.52.55 1.7 0 3.11-.63 4.26-1.9a6.83 6.83 0 0 0 1.7-4.76c0-.6-.03-1.07-.11-1.4a1.2 1.2 0 0 0-.37-.66 5.1 5.1 0 0 0-2.08-.79 14.8 14.8 0 0 0-3.3-.35c-.28 0-.47.04-.55.12-.09.04-.13.17-.13.39 0 .54.3.91.9 1.14a9.1 9.1 0 0 0 3.23.4h.55c.21 0 .36.08.45.22.1.1.18.31.22.61a3 3 0 0 1-1.08.61 4.02 4.02 0 0 0-2.3 1.86c-.3.51-.44 1-.44 1.45 0 .28.06.61.2 1 .14.43.2.72.2.85v.11l-.07.3c-.58-.04-1-.3-1.26-.8a3.74 3.74 0 0 1-.37-1.61.9.9 0 0 1-.23.02h-.22l.02.23c0 .4-.15.73-.45 1-.3.28-.65.41-1.06.41-.61 0-1.23-.3-1.86-.88-.63-.6-.94-1.19-.94-1.76 0-.1.02-.21.06-.32 0-.09.11-.23.3-.43.34.4.56.69.68.84.55.78 1.04 1.16 1.49 1.16.11 0 .23-.04.33-.12.08-.07.12-.14.12-.2 0-.1-.08-.29-.24-.56a9.54 9.54 0 0 0-1.6-2.02c-.2-.18-.35-.28-.44-.28-.25 0-.49.15-.72.44-.24.28-.36.64-.36 1.07zm1.77-3.74c0 .17.1.46.31.88a9.95 9.95 0 0 0 1.98 2.55c.32.26.55.4.7.4.1 0 .2-.05.28-.14.1-.1.14-.21.14-.32 0-.15-.12-.53-.35-1.14-.28-.66-.58-1.26-.9-1.8a4.12 4.12 0 0 0-.77-.96c-.2-.2-.41-.3-.6-.3-.15 0-.31.1-.5.3-.2.2-.3.37-.3.53zm.88-8.47c0 .44.16 1.14.47 2.1.29.93.72 2.17 1.3 3.72a1.07 1.07 0 0 1 .67-.1h.2l.52.04-1.35-3.92a10.92 10.92 0 0 0-.87-2.04c-.17-.27-.34-.4-.5-.4a.35.35 0 0 0-.3.15.71.71 0 0 0-.14.45zm3.26 10zm.37.98c.26-.3.52-.55.78-.75a6.71 6.71 0 0 0-.59-.1c-.26-.05-.45-.1-.56-.13l.37.98zm1.69-4.98l1.3.23a113 113 0 0 0 1.36-3.9c.33-1.06.5-1.68.5-1.88 0-.2-.05-.37-.15-.49-.05-.1-.15-.14-.29-.14-.18 0-.38.18-.6.53a9.34 9.34 0 0 0-.85 1.98z"/></defs><use fill="#2d2b2d" xlink:href="#a" transform="translate(-509 -8915)"/></svg>