<svg xmlns="http://www.w3.org/2000/svg" viewBox="12327 6033 128 128" width="124" height="124"><defs><style>.a,.b,.c,.d{fill:none;stroke-linejoin:round;stroke-miterlimit:10;stroke-width:4px}.a{stroke:#495057}.b{stroke:red}.c{stroke:#1cb9df}.d{stroke:#1ea84c}</style></defs><path class="a" d="M12373 6087h-16v16l-16-16h-12v-52h76v52h-6M12329 6111h30v48h-30z"/><path class="a" d="M12365 6155l8 4h34a6 6 0 0 0 0-12h2a6 6 0 0 0 0-12h4a6 6 0 0 0 0-12h-2a6 6 0 0 0 0-12h-26l8-22v-4a6 6 0 0 0-12 0l-6 12-12 14h-4M12351 6149v4"/><path class="a" d="M12411 6051h42v48h-12l-16 16v-16h-26"/><path class="b" d="M12357 6061h4"/><path class="c" d="M12365 6061h4"/><path class="d" d="M12373 6061h4"/><path class="b" d="M12443 6063h-32"/><path class="c" d="M12443 6075h-32"/><path class="d" d="M12443 6087h-32"/><path class="a" d="M12341 6051h52v20h-52z"/></svg>