<svg width="58" height="64" xmlns="http://www.w3.org/2000/svg" viewBox="789 15924 60 64"><defs><style>.a,.b{fill:none;stroke:#868e96;stroke-miterlimit:10;stroke-width:2px}.b{stroke-linejoin:round}</style></defs><path class="a" d="M793 15979h16M793 15983h16M793 15987h16M793 15975h16M793 15971h16M811 15933h16M811 15937h16M811 15941h16M811 15929h16M811 15925h16M793 15967h16M829 15925h16M829 15967h16M829 15941h16M829 15929h16M829 15933h16M829 15937h16M793 15945h16M829 15945h16M811 15945h16M811 15979h16M811 15983h16M811 15987h16M811 15975h16M811 15971h16M811 15967h16"/><path class="b" d="M841 15983h-7l6-8h-7"/><path class="a" d="M804 15938v-6a2.946 2.946 0 0 0-3-3 2.946 2.946 0 0 0-3 3v6M798 15934h6M797 15954h2M841 15958h-2M801 15956h14M817 15956h20M790 15924v64M848 15924v64"/><path class="a" d="M794 15925h14v16h-14zM830 15971h14v16h-14zM794 15950h50v12h-50z"/></svg>