<svg width="48" height="62" xmlns="http://www.w3.org/2000/svg" viewBox="794 15777 50 64"><defs><style>.a,.b{fill:none;stroke:#868e96;stroke-miterlimit:10;stroke-width:2px}.b{stroke-linejoin:round}</style></defs><path class="a" d="M835 15782h8v58h-44v-4M800 15794h34M800 15798h34M800 15802h34M800 15806h14M801 15831v-15M805 15831v-10M809 15831v-19M813 15831v-13M817 15831v-17M821 15831v-11M825 15831v-13M829 15831v-20M833 15831v-17"/><path class="a" d="M831 15779v7h7"/><path class="a" d="M831 15778l8 8v50h-44v-58z"/><path class="b" d="M801 15784h24v6h-24z"/></svg>