<svg width="62" height="62" xmlns="http://www.w3.org/2000/svg" viewBox="1053 6496 64 64"><defs><style>.a{fill:none;stroke:#868e96;stroke-miterlimit:10;stroke-width:2px}</style></defs><g transform="translate(1053 6496)"><path class="a" d="M42 41h9a12.035 12.035 0 0 0 12-12c0-5.9-4-11-10-11 0-5-3-9-9-9h-1a15.81 15.81 0 0 0-14-8 16.047 16.047 0 0 0-16 16 12 12 0 0 0 0 24h9M35 36v10M35 32v2M35 28v2M35 24v2M29 24v10M29 40v2M29 36v2M29 44v2M19 18c0-6.1 5-11 10-11"/><circle class="a" cx="7" cy="7" r="7" transform="translate(25 49)"/><circle class="a" cx="3" cy="3" r="3" transform="translate(29 53)"/></g></svg>