<svg width="62" height="54" xmlns="http://www.w3.org/2000/svg" viewBox="821 3502 64 56"><defs><style>.a{fill:none;stroke:#868e96;stroke-linejoin:round;stroke-miterlimit:10;stroke-width:2px}</style></defs><g transform="translate(821 3502)"><path class="a" d="M59 55H5l-4-4v-2h24l2 2h10l2-2h24v2zM15 13H8a2.946 2.946 0 0 0-3 3v30M59 46V16a2.946 2.946 0 0 0-3-3h-7M27 43h2M23 43h2M31 43h2M35 43h2M39 43h2"/><path class="a" d="M49 17h6v26H43M21 43H9V17h6M46 29L32 39 18 29V1l8 3 3-3h6l3 3 8-3zM26 4v4M38 4v4"/><path class="a" d="M36 17l-5 5-3-3"/><circle class="a" cx="8" cy="8" r="8" transform="translate(24 11)"/></g></svg>