<svg width="63" height="62" xmlns="http://www.w3.org/2000/svg" viewBox="1140 6653 64 64"><defs><style>.a{fill:none;stroke:#868e96;stroke-linejoin:round;stroke-miterlimit:10;stroke-width:2px}</style></defs><path class="a" d="M1174 6686a23.282 23.282 0 0 1-11-20c0-8 2-12 2-12h28s2 4 2 11c0 15-11 21-11 21M1188 6714a2.006 2.006 0 0 1-2 2h-14a2.006 2.006 0 0 1-2-2v-2a2.006 2.006 0 0 1 2-2h14a2.006 2.006 0 0 1 2 2zM1188 6692h-4M1164 6683l-5 5h-4M1145 6688h10v22h-10zM1145 6688h-5M1145 6710h-5M1152 6706h-2M1188 6692a3 3 0 0 1 0 6M1188 6698h-4M1171 6686h15a3 3 0 0 1 0 6M1158 6708h3l4 2h20a3 3 0 0 0 0-6M1184 6704h2a3 3 0 0 0 0-6"/><path class="a" d="M1179 6660l2 5h5l-4 3 2 5-5-3-5 3 2-5-4-3h5zM1199 6666v-3h4v3c0 13-14 14-17 19M1159 6666v-3h-4v3c0 13 14 14 17 19"/></svg>