<svg xmlns="http://www.w3.org/2000/svg" viewBox="12483 3768 64 64" width="62" height="62"><defs><style>.cls-1{fill:none;stroke:#2aa0bc;stroke-linejoin:round;stroke-miterlimit:10;stroke-width:2px}</style></defs><g id="_x30_1_x5F_business_x5F_dialog__x28_копия_x29_" transform="translate(12483 3768)"><path id="Path_372" data-name="Path 372" class="cls-1" d="M57 61a2.006 2.006 0 0 1-2 2H13a2.006 2.006 0 0 1-2-2V47a2.006 2.006 0 0 1 2-2h42a2.006 2.006 0 0 1 2 2v4h6l-6 6z"/><path id="Line_405" data-name="Line 405" class="cls-1" transform="translate(33 54)" d="M0 0h2"/><path id="Line_406" data-name="Line 406" class="cls-1" transform="translate(37 54)" d="M0 0h2"/><path id="Line_407" data-name="Line 407" class="cls-1" transform="translate(29 54)" d="M0 0h2"/><path id="Path_373" data-name="Path 373" class="cls-1" d="M57 17a2.006 2.006 0 0 1-2 2H13a2.006 2.006 0 0 1-2-2V3a2.006 2.006 0 0 1 2-2h42a2.006 2.006 0 0 1 2 2v4h6l-6 6z"/><path id="Line_408" data-name="Line 408" class="cls-1" transform="translate(16 8)" d="M0 0h10"/><path id="Line_409" data-name="Line 409" class="cls-1" transform="translate(28 8)" d="M0 0h18"/><path id="Line_410" data-name="Line 410" class="cls-1" transform="translate(16 12)" d="M0 0h20"/><path id="Path_374" data-name="Path 374" class="cls-1" d="M7 39a2.006 2.006 0 0 0 2 2h42a2.006 2.006 0 0 0 2-2V25a2.006 2.006 0 0 0-2-2H9a2.006 2.006 0 0 0-2 2v4H1l6 6z"/><path id="Line_411" data-name="Line 411" class="cls-1" transform="translate(12 30)" d="M0 0h21"/><path id="Line_412" data-name="Line 412" class="cls-1" transform="translate(12 34)" d="M0 0h11"/><path id="Line_413" data-name="Line 413" class="cls-1" transform="translate(25 34)" d="M0 0h18"/></g></svg>