<svg width="54" height="62" xmlns="http://www.w3.org/2000/svg" viewBox="1687 15923 56 64"><defs><style>.a{fill:none;stroke:#868e96;stroke-miterlimit:10;stroke-width:2px}</style></defs><g transform="translate(1687 15923)"><circle class="a" cx="15" cy="15" r="15" transform="translate(1 1)"/><path class="a" d="M20 31v20a4 4 0 0 1-8 0V31M16 40v2M16 44v2M16 48v2"/><path class="a" d="M32 7h23v47l-9 9H16v-5"/><path class="a" d="M46 63v-9h9M23 16v7H9V9h11"/><path class="a" d="M23 11l-7 7-3-3M24 34h4v4h-4zM24 42h4v4h-4zM24 50h4v4h-4zM50 34H31M50 38H31M50 42H31M50 46H31M41 54H31M50 50H31M34 18h15v10H31M50 14h-2M46 14h-2M42 14h-2"/></g></svg>