<svg width="62" height="63" xmlns="http://www.w3.org/2000/svg" viewBox="1235 15777 64 64"><defs><style>.a,.b{fill:none;stroke:#868e96;stroke-miterlimit:10;stroke-width:2px}.b{stroke-linejoin:round}</style></defs><path class="a" d="M1244 15805v-27h38l8 8v19"/><path class="b" d="M1240 15832v-3l-4-12 3.1-9 4.9-3"/><path class="a" d="M1252 15833v-13l-2-9v-6a2.865 2.865 0 0 0-2.9-3 3.031 3.031 0 0 0-3.1 3v8l-1 7"/><path class="b" d="M1238 15841v-9h16v9"/><path class="a" d="M1251 15836h-2"/><path class="b" d="M1294 15832v-3l4-12-3.1-9-4.9-3"/><path class="a" d="M1282 15832v-12l2-9v-6a2.865 2.865 0 0 1 2.9-3 3.031 3.031 0 0 1 3.1 3v8l1 7M1283 15836h2"/><path class="a" d="M1280 15841v-8a.945.945 0 0 1 1-1h13a.945.945 0 0 1 1 1v8M1290 15786h-8v-8"/><path class="b" d="M1249 15784h2M1253 15784h2M1257 15784h2M1249 15790h28M1249 15794h36M1249 15798h36M1273 15825v-22M1277 15825v-18M1269 15825v-16M1265 15825v-20M1257 15825v-18M1256 15828h2M1261 15825v-14M1260 15828h2M1264 15828h2M1268 15828h2M1272 15828h2M1276 15828h2"/></svg>