<svg width="64" height="62" xmlns="http://www.w3.org/2000/svg" viewBox="1328 6651 64 64"><defs><style>.a{fill:none;stroke:#868e96;stroke-linejoin:round;stroke-miterlimit:10;stroke-width:2px}</style></defs><path class="a" d="M1328 6714h64M1349 6714v-24h22v24M1374 6702h15v12M1331 6714v-18h15M1369 6690v-4h-18v4M1353 6660h14"/><path class="a" d="M1366 6686l-4-4v-2c0-5 7-9 7-18l-2-2 2-2v-2h-18v2l2 2-2 2c0 9 7 13 7 18v2l-4 4"/><path class="a" d="M1367 6654a2.006 2.006 0 0 1 2-2h3a2.946 2.946 0 0 1 3 3v3c0 12-10 15-10 15M1353 6654a2.006 2.006 0 0 0-2-2h-3a2.946 2.946 0 0 0-3 3v3c0 12 10 15 10 15M1361 6664h-2M1357 6664h-2M1365 6664h-2M1357 6696h3v9M1349 6710h22"/></svg>