<svg width="62" height="62" xmlns="http://www.w3.org/2000/svg" viewBox="1010 15923 64 64"><defs><style>.a{fill:none;stroke:#868e96;stroke-miterlimit:10;stroke-width:2px}</style></defs><g transform="translate(1010 15923)"><path class="a" d="M44 58l-9 2M60 35l-2 8M32 49v8"/><circle class="a" cx="3" cy="3" r="3" transform="translate(29 29)"/><circle class="a" cx="3" cy="3" r="3" transform="translate(29 15)"/><circle class="a" cx="3" cy="3" r="3" transform="translate(29 1)"/><circle class="a" cx="3" cy="3" r="3" transform="translate(29 43)"/><circle class="a" cx="3" cy="3" r="3" transform="translate(29 57)"/><circle class="a" cx="3" cy="3" r="3" transform="translate(16 21)"/><circle class="a" cx="3" cy="3" r="3" transform="translate(42 21)"/><circle class="a" cx="3" cy="3" r="3" transform="translate(54 43)"/><circle class="a" cx="3" cy="3" r="3" transform="translate(44 54)"/><circle class="a" cx="3" cy="3" r="3" transform="translate(16 37)"/><circle class="a" cx="3" cy="3" r="3" transform="translate(42 37)"/><path class="a" d="M21 15h2M21 49h2M41 49h2M12 32h2M41 15h2M50 32h2M49 55l6-7M44 6l-9-2M60 29l-2-8"/><circle class="a" cx="3" cy="3" r="3" transform="translate(54 15)"/><circle class="a" cx="3" cy="3" r="3" transform="translate(44 4)"/><circle class="a" cx="3" cy="3" r="3" transform="translate(57 29)"/><path class="a" d="M49 9l6 7M20 58l9 2M4 35l2 8"/><circle class="a" cx="3" cy="3" r="3" transform="translate(4 43)"/><circle class="a" cx="3" cy="3" r="3" transform="translate(14 54)"/><path class="a" d="M15 55l-6-7M20 6l9-2M4 29l2-8"/><circle class="a" cx="3" cy="3" r="3" transform="translate(4 15)"/><circle class="a" cx="3" cy="3" r="3" transform="translate(14 4)"/><circle class="a" cx="3" cy="3" r="3" transform="translate(1 29)"/><path class="a" d="M15 9l-6 7M29 46l-7-4M19 37V27M22 26l7 5M35 31l7-5M32 15V7M35 19l7 3M35 46l7-4M48 42l6 3M16 42l-6 3M45 27v10M16 23l-6-3"/></g></svg>