<svg width="46" height="62" xmlns="http://www.w3.org/2000/svg" viewBox="1454 3497 48 64"><defs><style>.a{fill:none;stroke:#868e96;stroke-linejoin:round;stroke-miterlimit:10;stroke-width:2px}</style></defs><g transform="translate(1454 3497)"><path class="a" d="M47 46L24 63 1 46V1l10 5 3-5h20l3 5 10-5z"/><path class="a" d="M5 3v41l19 14 19-14V3M11 6v5M37 6v5"/><circle class="a" cx="13" cy="13" r="13" transform="translate(11 14)"/><ellipse class="a" cx="3" cy="13" rx="3" ry="13" transform="translate(21 14)"/><ellipse class="a" cx="8" cy="13" rx="8" ry="13" transform="translate(16 14)"/><path class="a" d="M11 27h26M23 8h2M19 8h2M27 8h2M23 46h2M19 46h2M27 46h2"/></g></svg>