<svg width="58" height="62" xmlns="http://www.w3.org/2000/svg" viewBox="1461 15777 60 64"><defs><style>.a,.b{fill:none;stroke:#868e96;stroke-miterlimit:10;stroke-width:2px}.b{stroke-linejoin:round}</style></defs><g transform="translate(1461 15777)"><path class="a" d="M59 9h-8V1"/><path class="b" d="M29 55H17V1h34l8 8v46H47"/><path class="b" d="M44 51v12l-6-5-6 5V51"/><path class="a" d="M51 38a2.833 2.833 0 0 0-2.4-2.9 10.887 10.887 0 0 0-1-2.5A3.081 3.081 0 0 0 45 28a4.193 4.193 0 0 0-1.6.4 10.887 10.887 0 0 0-2.5-1 2.952 2.952 0 0 0-5.8 0 10.887 10.887 0 0 0-2.5 1A3.081 3.081 0 0 0 28 31a4.193 4.193 0 0 0 .4 1.6 10.887 10.887 0 0 0-1 2.5 2.952 2.952 0 0 0 0 5.8 10.887 10.887 0 0 0 1 2.5A3.081 3.081 0 0 0 31 48a4.193 4.193 0 0 0 1.6-.4 10.887 10.887 0 0 0 2.5 1 2.952 2.952 0 0 0 5.8 0 10.887 10.887 0 0 0 2.5-1A3.081 3.081 0 0 0 48 45a4.193 4.193 0 0 0-.4-1.6 10.887 10.887 0 0 0 1-2.5A2.833 2.833 0 0 0 51 38z"/><circle class="b" cx="6" cy="6" r="6" transform="translate(32 32)"/><path class="b" d="M5 55h6M5 39h6M5 6h6M11 4a2.946 2.946 0 0 0-3-3 2.946 2.946 0 0 0-3 3v54l3 5 3-5zM22 6h12M22 13h32M22 17h32M22 21h32"/><path class="b" d="M1 29V10h10"/></g></svg>