<svg width="62" height="62" xmlns="http://www.w3.org/2000/svg" viewBox="1141 6339 64 64"><defs><style>.a,.b{fill:none;stroke:#868e96;stroke-miterlimit:10;stroke-width:2px}.b{stroke-linecap:round}</style></defs><g transform="translate(1141 6341)"><path class="a" d="M28 17v38h8V17M36 9V3a4 4 0 0 0-8 0v6M25 55H10a6.018 6.018 0 0 0-6 6h56a6.018 6.018 0 0 0-6-6H39M32 2v2"/><circle class="a" cx="6" cy="6" r="6" transform="translate(26 7)"/><path class="a" d="M57 15h4a2 2 0 0 0 0-4H38M38 15h13M7 15H3a2 2 0 0 1 0-4h23M26 15H13"/><path class="b" d="M1 33h18a9 9 0 0 1-18 0zM2 33l8-18M10 15l8 18M45 33h18a9 9 0 0 1-18 0zM46 33l8-18M54 15l8 18"/><path class="a" d="M31 51h2M31 47h2M31 43h2"/></g></svg>