<svg xmlns="http://www.w3.org/2000/svg" xmlns:xlink="http://www.w3.org/1999/xlink" width="20" height="20" viewBox="0 0 20 20"><defs><path id="a" d="M557 8918v16a2 2 0 0 1-2 2h-16a2 2 0 0 1-2-2v-16c0-1.1.9-2 2-2h16a2 2 0 0 1 2 2zm-14 6h-3v9h3zm.3-3.5c0-1-.8-1.8-1.8-1.8s-1.8.8-1.8 1.8.8 1.8 1.8 1.8 1.8-.8 1.8-1.8zm10.7 6.8c0-1.9-1.6-3.5-3.5-3.5-.9 0-2 .6-2.5 1.4v-1.2h-3v9h3v-5.3c0-.8.7-1.5 1.5-1.5s1.5.7 1.5 1.5v5.3h3z"/></defs><use fill="#2d2b2d" xlink:href="#a" transform="translate(-537 -8916)"/></svg>