<svg width="62" height="64" xmlns="http://www.w3.org/2000/svg" viewBox="1418 6496 64 64"><defs><style>.a{fill:none;stroke:#868e96;stroke-miterlimit:10;stroke-width:2px}</style></defs><g transform="translate(1418 6496)"><path class="a" d="M41 43a2.006 2.006 0 0 1-2 2H25a2.006 2.006 0 0 1-2-2V31a2.006 2.006 0 0 1 2-2h14a2.006 2.006 0 0 1 2 2zM25 29v-4a6.018 6.018 0 0 1 6-6h2a6.018 6.018 0 0 1 6 6v4"/><circle class="a" cx="1" cy="1" r="1" transform="translate(31 34)"/><path class="a" d="M32 36v5M16 32H7"/><circle class="a" cx="3" cy="3" r="3" transform="translate(1 29)"/><path class="a" d="M48 32h9"/><circle class="a" cx="3" cy="3" r="3" transform="translate(57 29)"/><path class="a" d="M44 39h4a4.012 4.012 0 0 1 4 4v6"/><circle class="a" cx="3" cy="3" r="3" transform="translate(49 49)"/><path class="a" d="M20 39h-4a4.012 4.012 0 0 0-4 4v6"/><circle class="a" cx="3" cy="3" r="3" transform="translate(9 49)"/><path class="a" d="M44 25h4a4.012 4.012 0 0 0 4-4v-6"/><circle class="a" cx="3" cy="3" r="3" transform="translate(49 9)"/><path class="a" d="M20 25h-4a4.012 4.012 0 0 1-4-4v-6"/><circle class="a" cx="3" cy="3" r="3" transform="translate(9 9)"/><circle class="a" cx="3" cy="3" r="3" transform="translate(23 49)"/><path class="a" d="M26 55v9"/><circle class="a" cx="3" cy="3" r="3" transform="translate(35 49)"/><path class="a" d="M38 55v9"/><circle class="a" cx="3" cy="3" r="3" transform="translate(23 9)"/><path class="a" d="M26 9V0"/><circle class="a" cx="3" cy="3" r="3" transform="translate(35 9)"/><path class="a" d="M38 9V0M44 32h2M20 32h-2"/></g></svg>