<svg xmlns="http://www.w3.org/2000/svg" viewBox="12483 3928 64 58" width="62" height="56"><defs><style>.a{fill:none;stroke:#2aa0bc;stroke-linejoin:round;stroke-miterlimit:10;stroke-width:2px}</style></defs><path class="a" d="M12500 3955h46v30h-46z"/><path class="a" d="M12546 3955l-23 21-23-21M12500 3985l13-13M12546 3985l-13-13M12485 3967h2M12489 3967h2M12493 3967h2M12487 3974h2M12491 3974h2M12495 3974h2M12485 3981h2M12489 3981h2M12493 3981h2"/><path class="a" d="M12530 3952v-23h-46v32h13M12545 3933h-2M12541 3933h-2M12537 3933h-2M12543 3940h-2M12539 3940h-2M12535 3940h-2M12545 3947h-2M12541 3947h-2M12537 3947h-2"/><path class="a" d="M12488 3933h10v10h-10zM12527 3933h-26M12527 3937h-26M12487 3951h40M12487 3947h40M12487 3955h10"/></svg>