<svg xmlns="http://www.w3.org/2000/svg" viewBox="15528 2630 64 64"><defs><style>.a{fill:none;stroke:#868e96;stroke-miterlimit:10;stroke-width:2px}</style></defs><path class="a" d="M15570 2671h9a12.035 12.035 0 0 0 12-12c0-5.9-4-11-10-11 0-5-3-9-9-9h-1a15.81 15.81 0 0 0-14-8 16.047 16.047 0 0 0-16 16 12 12 0 0 0 0 24h9M15547 2648c0-6.1 5-11 10-11M15538 2694v-5c0-10 7-9 14-13M15568 2676c7 4 14 3 14 13v5M15564 2680l-4-2-4 2-4-4 2-3 6 1 6-1 2 3zM15565 2669v4M15555 2673v-4M15559 2687h2M15559 2683h2"/><path class="a" d="M15569 2656v4c-1 7-4 9-4 9a13 13 0 0 1-10 0s-3-2-4-9v-4M15551 2656c0-6.1 2.9-9 9-9s9 2.9 9 9"/><path class="a" d="M15551 2656l4-2 5 2 5 2 4-2M15546 2694v-4M15574 2694v-4"/></svg>