<svg width="64" height="58" xmlns="http://www.w3.org/2000/svg" viewBox="1683 15778 64 60"><defs><style>.a{fill:none;stroke:#868e96;stroke-linejoin:round;stroke-miterlimit:10;stroke-width:2px}</style></defs><g transform="translate(1683 15778)"><path class="a" d="M59 33h4v26H9v-4"/><path class="a" d="M55 29h4v26H5v-4"/><path class="a" d="M1 25h54v26H1z"/><path class="a" d="M48 47H8l-3-3V32l3-3h40l3 3v12zM18 38h-2M14 38h-2M44 38h-2M40 38h-2"/><circle class="a" cx="5" cy="5" r="5" transform="translate(23 33)"/><path class="a" d="M27 17l-4 4-4-4M45 17l-4 4-4-4M36 5l-4-4-4 4"/><path class="a" d="M23 21V10H0M41 21V10h23M32 22V1"/></g></svg>