<svg xmlns="http://www.w3.org/2000/svg" viewBox="12239 3928 64 58" width="62" height="56"><defs><style>.a,.b{fill:none;stroke:#2aa0bc;stroke-miterlimit:10;stroke-width:2px}.a{stroke-linejoin:round}</style></defs><g transform="translate(12239 3928)"><circle class="a" cx="3" cy="3" r="3" transform="translate(1 26)"/><circle class="a" cx="3" cy="3" r="3" transform="translate(57 26)"/><path class="a" d="M55 7v6h-6M9 51v-6h6M48.2 21.1l-5.5.2 1.8-5.2a17.3 17.3 0 0 0-4.1-3l-4.3 3.3-1.5-5.2A22.752 22.752 0 0 0 32 11a19.481 19.481 0 0 0-2.5.2L28 16.4l-4.3-3.3a17.3 17.3 0 0 0-4.1 3l1.8 5.2-5.5-.2a19.356 19.356 0 0 0-1.6 4.8l4.5 3.1-4.5 3.1a15.974 15.974 0 0 0 1.6 4.8l5.5-.2-1.8 5.2a17.3 17.3 0 0 0 4.1 3l4.3-3.3 1.5 5.2a21.053 21.053 0 0 0 2.5.2 19.481 19.481 0 0 0 2.5-.2l1.5-5.2 4.3 3.3a17.3 17.3 0 0 0 4.1-3l-1.8-5.2 5.5.2a19.356 19.356 0 0 0 1.6-4.8L45.2 29l4.5-3.1a19.177 19.177 0 0 0-1.5-4.8z"/><path class="b" d="M5 39h2M57 19h2M59.9 31.9A28.051 28.051 0 0 1 9 45M4.2 26A27.988 27.988 0 0 1 55 13M29 32a3 3 0 0 0 6 0c0-1.7-3-3-3-3s-3-1.3-3-3a3 3 0 0 1 6 0M32 23v-3M32 35v3M38 29h2M24 29h2"/></g></svg>