<svg width="62" height="62" xmlns="http://www.w3.org/2000/svg" viewBox="1328 6340 64 64"><defs><style>.a{fill:none;stroke:#868e96;stroke-miterlimit:10;stroke-width:2px}</style></defs><g transform="translate(1328 6340)"><path class="a" d="M46 38a4 4 0 0 0-8 0c0 2.2 4 4 4 4s4 1.8 4 4a4 4 0 0 1-8 0M42 34v-3M42 50v3"/><circle class="a" cx="21" cy="21" r="21" transform="translate(21 21)"/><path class="a" d="M32 42h-2M54 42h-2"/><circle class="a" cx="17" cy="17" r="17" transform="translate(25 25)"/><path class="a" d="M44 7h9a4.012 4.012 0 0 1 4 4v9M20 57h-9a4.012 4.012 0 0 1-4-4v-9M22 43a21 21 0 1 1 21-21M22 39a17 17 0 1 1 17-17"/><path class="a" d="M24 31h-2a9 9 0 0 1 0-18 9.057 9.057 0 0 1 8.1 5M10 20h12M10 24h12"/></g></svg>