<svg width="46" height="62" xmlns="http://www.w3.org/2000/svg" viewBox="1138 3498 48 64"><defs><style>.a,.b{fill:none;stroke:#868e96;stroke-miterlimit:10;stroke-width:2px}.a{stroke-linejoin:round}</style></defs><g transform="translate(1138 3498)"><path class="a" d="M47 46L24 63 1 46V1l10 5 3-5h20l3 5 10-5z"/><path class="a" d="M5 3v41l19 14 19-14V3M11 6v5M37 6v5"/><circle class="a" cx="7" cy="7" r="7" transform="translate(17 12)"/><path class="b" d="M26 26v9h3"/><path class="b" d="M25 39h3v4h-2v3h-4V26M26 16h-4M10 14h2M10 18h2M10 22h2M36 14h2M36 18h2M36 22h2"/></g></svg>