<svg width="62" height="62" xmlns="http://www.w3.org/2000/svg" viewBox="1235 15923 64 64"><defs><style>.a,.b{fill:none;stroke:#868e96;stroke-miterlimit:10;stroke-width:2px}.b{stroke-linecap:square;stroke-linejoin:round}</style></defs><path class="a" d="M1281 15924v8h8"/><path class="a" d="M1289 15957v-25l-8-8h-36v33M1245 15969v17h44v-13M1245 15966h48M1293 15960h-48M1293 15960h5v6h-5z"/><path class="b" d="M1245 15960h-2l-7 3 7 3h2z"/><path class="a" d="M1257 15966v-6M1274 15970h15v-10M1250 15974c2 0 2 2 4 2s2-2 4-2 2 2 4 2 2-2 4-2 2 2 4 2M1250 15932h2M1254 15932h2M1258 15932h2M1250 15938h34M1250 15942h34M1250 15946h34M1250 15950h34M1250 15954h16M1250 15980h20"/></svg>