<svg width="64" height="58" xmlns="http://www.w3.org/2000/svg" viewBox="1010 15780 64 60"><defs><style>.a{fill:none;stroke:#868e96;stroke-linejoin:round;stroke-miterlimit:10;stroke-width:2px}</style></defs><g transform="translate(1010 15780)"><path class="a" d="M32 41v18M42 41l6 17v1M22 41l-6 17v1M59 12v29H5V12M1 9V5h24l2-4h10l2 4h24v4zM29 5h6M0 59h64"/><circle class="a" cx="1" cy="1" r="1" transform="translate(25 17)"/><circle class="a" cx="1" cy="1" r="1" transform="translate(35 31)"/><path class="a" d="M31 20v-2a5 5 0 0 0-10 0v6a4.951 4.951 0 0 1-5 5h-6M54 21h-8a4.951 4.951 0 0 0-5 5v6a5 5 0 0 1-10 0v-2"/><path class="a" d="M50 25l4-4-4-4M31 22v2M31 26v2M8 13h2M54 13h2M54 37h2M8 37h2"/></g></svg>