<svg width="48" height="14.8" xmlns="http://www.w3.org/2000/svg"><title>background</title><path fill="none" d="M-1-1h50v16.8H-1z"/><g><title>Layer 1</title><path stroke="null" fill="#FFF" d="M44.794.282h-3.012c-.935 0-1.63.255-2.041 1.187l-5.787 13.105h4.093s.667-1.762.819-2.148l4.99.006c.117.499.475 2.142.475 2.142h3.616L44.794.282zM39.987 9.5c.321-.821 1.553-3.997 1.553-3.997-.021.04.318-.826.52-1.365l.262 1.233.903 4.129h-3.238zm-5.76.395c-.028 2.97-2.69 4.886-6.787 4.886-1.747-.018-3.43-.362-4.343-.761l.549-3.201.502.229c1.28.533 2.109.748 3.67.748 1.12 0 2.318-.439 2.33-1.396.007-.626-.502-1.073-2.02-1.774-1.48-.685-3.439-1.831-3.414-3.885.021-2.78 2.736-4.72 6.587-4.72 1.51 0 2.72.311 3.491.601l-.527 3.1-.352-.166a7.195 7.195 0 0 0-2.917-.547c-1.526 0-2.233.635-2.233 1.23-.008.67.826 1.11 2.189 1.774 2.252 1.017 3.292 2.257 3.275 3.882zM0 .43L.05.144h6.042c.815.03 1.472.29 1.698 1.162l1.314 6.318C7.814 4.32 4.702 1.57 0 .431zM17.623.28l-6.138 14.272-4.124.007-3.49-11.925C6.38 4.24 8.517 6.789 9.27 8.563l.407 1.472L13.494.283 17.623.28zm1.575-.013h3.9l-2.44 14.3h-3.897l2.437-14.3z"/></g></svg>