<svg width="54" height="62" xmlns="http://www.w3.org/2000/svg" viewBox="1463 15923 56 64"><defs><style>.a,.b{fill:none;stroke:#868e96;stroke-miterlimit:10;stroke-width:2px}.b{stroke-linejoin:round}</style></defs><g transform="translate(1463 15923)"><path class="a" d="M15 27h26v10H15z"/><path class="b" d="M12 30H8a2.006 2.006 0 0 1-2-2V15"/><path class="b" d="M10 19l-4-4-4 4"/><path class="a" d="M44 30h4a2.006 2.006 0 0 0 2-2V15"/><path class="a" d="M46 19l4-4 4 4M28 24v-9M32 19l-4-4-4 4"/><path class="b" d="M12 34H8a2.006 2.006 0 0 0-2 2v13"/><path class="b" d="M10 45l-4 4-4-4"/><path class="a" d="M44 34h4a2.006 2.006 0 0 1 2 2v13"/><path class="a" d="M46 45l4 4 4-4M28 40v9M32 45l-4 4-4-4"/><circle class="a" cx="5" cy="5" r="5" transform="translate(1 1)"/><circle class="a" cx="5" cy="5" r="5" transform="translate(23 1)"/><circle class="a" cx="5" cy="5" r="5" transform="translate(45 1)"/><circle class="a" cx="5" cy="5" r="5" transform="translate(1 53)"/><circle class="a" cx="5" cy="5" r="5" transform="translate(23 53)"/><circle class="a" cx="5" cy="5" r="5" transform="translate(45 53)"/><path class="a" d="M27 32h2M23 32h2M31 32h2"/></g></svg>