<svg xmlns="http://www.w3.org/2000/svg" viewBox="12072 1373 630 525"><defs><style>.a{font-size:13px;font-family:SFUIDisplay-Regular, SF UI Display;letter-spacing:0.02em;}.b,.g,.u,.w{fill:#fff;}.b,.k{stroke:#e53939;}.b,.e,.h,.i,.k,.l,.n,.p,.s,.u{stroke-width:2px;}.c,.e,.h,.i,.k,.l,.n,.p{fill:none;}.d{fill:#e53939;}.e,.h,.i{stroke:#2aa0bc;stroke-miterlimit:10;}.f,.j{fill:#2aa0bc;}.h{stroke-linecap:round;}.h,.i{stroke-linejoin:round;}.l{stroke:#adb5bd;}.m{fill:#868e96;}.n{stroke:#fc3;}.o{fill:#fc3;}.p{stroke:#00b050;}.q,.s{fill:#00b050;}.r,.x{fill:#adb5bd;}.s{stroke:#fff;}.t{fill:#1ea84c;}.u{stroke:#1ea84c;}.v,.w,.x{stroke:none;}</style></defs><g transform="translate(11675 1052)"><text class="a" transform="translate(604 734)"><tspan x="-36.152" y="0">Супер-узел</tspan></text><text class="a" transform="translate(838 734)"><tspan x="-36.152" y="0">Супер-узел</tspan></text><text class="a" transform="translate(721 734)"><tspan x="-43.248" y="0">Управляющие</tspan><tspan x="-25.437" y="14">сервера</tspan></text><g transform="translate(549 -170)"><g class="b" transform="translate(250 597)"><rect class="v" width="52" height="52" rx="8"/><rect class="c" x="1" y="1" width="50" height="50" rx="7"/></g><g transform="translate(260 607)"><path class="c" d="M0,0H32V32H0Z"/><path class="d" d="M25.333,9.667H21.587A7.98,7.98,0,0,0,19.16,7.053L21.333,4.88,19.453,3,16.56,5.893a8.087,8.087,0,0,0-1.893-.227,7.891,7.891,0,0,0-1.88.227L9.88,3,8,4.88l2.16,2.173A8.083,8.083,0,0,0,7.747,9.667H4v2.667H6.787a8.85,8.85,0,0,0-.12,1.333V15H4v2.667H6.667V19a8.85,8.85,0,0,0,.12,1.333H4V23H7.747a7.986,7.986,0,0,0,13.84,0h3.747V20.333H22.547A8.851,8.851,0,0,0,22.667,19V17.667h2.667V15H22.667V13.667a8.851,8.851,0,0,0-.12-1.333h2.787Zm-8,10.667H12V17.667h5.333Zm0-5.333H12V12.333h5.333Z" transform="translate(1.333 1)"/></g></g><g transform="translate(981 639)"><path class="e" d="M59,43H5L1,39V37H25l2,2H37l2-2H63v2Z" transform="translate(-23 22)"/><path class="e" d="M59,34V4a2.946,2.946,0,0,0-3-3H8A2.946,2.946,0,0,0,5,4V34" transform="translate(-23 22)"/><line class="e" x2="2" transform="translate(4 53)"/><line class="e" x2="2" transform="translate(0 53)"/><line class="e" x2="2" transform="translate(8 53)"/><line class="e" x2="2" transform="translate(12 53)"/><line class="e" x2="2" transform="translate(16 53)"/><path class="e" d="M21,31H9V5H55V31H43" transform="translate(-23 22)"/><g transform="translate(22 50)"><g class="f" transform="translate(0 -1)"><path class="v" d="M 12 24.02938079833984 L 11.76278018951416 23.97146034240723 C 9.049360275268555 23.30887985229492 6.56374979019165 21.61688995361328 4.763830184936523 19.20718002319336 C 2.981549978256226 16.82109069824219 2 13.90639019012451 2 11 L 2 5 L 2 4.350130081176758 L 2.593859910964966 4.086190223693848 L 11.59385967254639 0.08619000017642975 L 12 -0.09431999921798706 L 12.40614032745361 0.08619000017642975 L 21.4061393737793 4.086190223693848 L 22 4.350130081176758 L 22 5 L 22 11 C 22 13.90639019012451 21.0184497833252 16.82109069824219 19.23616981506348 19.20718002319336 C 17.43625068664551 21.61688995361328 14.95063972473145 23.30887985229492 12.23721981048584 23.97146034240723 L 12 24.02938079833984 Z M 13 12.98999977111816 L 13 19.4395637512207 C 14.09261703491211 18.86817932128906 15.08090686798096 18.0280876159668 15.9051399230957 16.96207046508789 C 16.8092155456543 15.79279899597168 17.45445251464844 14.43673610687256 17.80118942260742 12.98999977111816 L 13 12.98999977111816 Z M 6 11 L 11 11 L 11 4.72854471206665 L 6 6.949973106384277 L 6 11 Z"/><path class="w" d="M 12 23 C 17.15999984741211 21.73999977111816 21 16.54999923706055 21 11 L 21 5 L 12 1 L 3 5 L 3 11 C 3 16.54999923706055 6.840000152587891 21.73999977111816 12 23 M 12 3.190000057220459 L 12 11.98999977111816 L 19 11.98999977111816 C 18.46999931335449 16.11000061035156 15.72000026702881 19.78000068664551 12 20.93000030517578 L 12 12 L 5 12 L 5 6.300000190734863 L 12 3.190000057220459 M 12 25.05875968933105 L 11.52556991577148 24.94290924072266 C 8.587100028991699 24.22537994384766 5.901209831237793 22.40092086791992 3.962650060653687 19.80562019348145 C 2.052160024642944 17.24786949157715 1 14.12063980102539 1 11 L 1 5 L 1 3.700249910354614 L 2.187720060348511 3.172379970550537 L 11.18772029876709 -0.8276200294494629 L 12 -1.188639998435974 L 12.81227970123291 -0.8276200294494629 L 21.81228065490723 3.172379970550537 L 23 3.700249910354614 L 23 5 L 23 11 C 23 14.12063980102539 21.94783973693848 17.24786949157715 20.03734970092773 19.80562019348145 C 18.09878921508789 22.40092086791992 15.4128999710083 24.22537994384766 12.47443008422852 24.94290924072266 L 12 25.05875968933105 Z M 14 13.98999977111816 L 14 17.54250335693359 C 14.39844703674316 17.19195365905762 14.77160453796387 16.79327583312988 15.11404037475586 16.35038948059082 C 15.66032409667969 15.64386653900146 16.10853004455566 14.84128952026367 16.43914794921875 13.98999977111816 L 14 13.98999977111816 Z M 7 10 L 10 10 L 10 6.267074584960938 L 7 7.599931716918945 L 7 10 Z"/></g><path class="c" d="M0,0H24V24H0Z"/><rect class="g" width="7" height="5" transform="translate(5 6)"/><path class="g" d="M0,0H5L4.817,4.714,0,6Z" transform="translate(12 11)"/></g></g><g transform="translate(410 653)"><path class="e" d="M63,4a2.946,2.946,0,0,0-3-3H4A2.946,2.946,0,0,0,1,4V44a2.946,2.946,0,0,0,3,3H60a2.946,2.946,0,0,0,3-3Z"/><line class="e" x2="2" y2="10" transform="translate(38 47)"/><line class="e" y1="10" x2="2" transform="translate(24 47)"/><line class="e" x2="26" transform="translate(19 57)"/><line class="e" x2="2" transform="translate(31 43)"/><line class="e" x2="2" transform="translate(31 33)"/><line class="e" x2="2" transform="translate(35 33)"/><line class="e" x2="2" transform="translate(39 33)"/><line class="e" x2="2" transform="translate(27 33)"/><line class="e" x2="2" transform="translate(23 33)"/><rect class="e" width="54" height="34" transform="translate(5 5)"/><g transform="translate(49 35)"><g class="f" transform="translate(0 -1)"><path class="v" d="M 12 24.02938079833984 L 11.76278018951416 23.97146034240723 C 9.049360275268555 23.30887985229492 6.56374979019165 21.61688995361328 4.763830184936523 19.20718002319336 C 2.981549978256226 16.82109069824219 2 13.90639019012451 2 11 L 2 5 L 2 4.350130081176758 L 2.593859910964966 4.086190223693848 L 11.59385967254639 0.08619000017642975 L 12 -0.09431999921798706 L 12.40614032745361 0.08619000017642975 L 21.4061393737793 4.086190223693848 L 22 4.350130081176758 L 22 5 L 22 11 C 22 13.90639019012451 21.0184497833252 16.82109069824219 19.23616981506348 19.20718002319336 C 17.43625068664551 21.61688995361328 14.95063972473145 23.30887985229492 12.23721981048584 23.97146034240723 L 12 24.02938079833984 Z M 13 12.98999977111816 L 13 19.4395637512207 C 14.09261703491211 18.86817932128906 15.08090686798096 18.0280876159668 15.9051399230957 16.96207046508789 C 16.8092155456543 15.79279899597168 17.45445251464844 14.43673610687256 17.80118942260742 12.98999977111816 L 13 12.98999977111816 Z M 6 11 L 11 11 L 11 4.72854471206665 L 6 6.949973106384277 L 6 11 Z"/><path class="w" d="M 12 23 C 17.15999984741211 21.73999977111816 21 16.54999923706055 21 11 L 21 5 L 12 1 L 3 5 L 3 11 C 3 16.54999923706055 6.840000152587891 21.73999977111816 12 23 M 12 3.190000057220459 L 12 11.98999977111816 L 19 11.98999977111816 C 18.46999931335449 16.11000061035156 15.72000026702881 19.78000068664551 12 20.93000030517578 L 12 12 L 5 12 L 5 6.300000190734863 L 12 3.190000057220459 M 12 25.05875968933105 L 11.52556991577148 24.94290924072266 C 8.587100028991699 24.22537994384766 5.901209831237793 22.40092086791992 3.962650060653687 19.80562019348145 C 2.052160024642944 17.24786949157715 1 14.12063980102539 1 11 L 1 5 L 1 3.700249910354614 L 2.187720060348511 3.172379970550537 L 11.18772029876709 -0.8276200294494629 L 12 -1.188639998435974 L 12.81227970123291 -0.8276200294494629 L 21.81228065490723 3.172379970550537 L 23 3.700249910354614 L 23 5 L 23 11 C 23 14.12063980102539 21.94783973693848 17.24786949157715 20.03734970092773 19.80562019348145 C 18.09878921508789 22.40092086791992 15.4128999710083 24.22537994384766 12.47443008422852 24.94290924072266 L 12 25.05875968933105 Z M 14 13.98999977111816 L 14 17.54250335693359 C 14.39844703674316 17.19195365905762 14.77160453796387 16.79327583312988 15.11404037475586 16.35038948059082 C 15.66032409667969 15.64386653900146 16.10853004455566 14.84128952026367 16.43914794921875 13.98999977111816 L 14 13.98999977111816 Z M 7 10 L 10 10 L 10 6.267074584960938 L 7 7.599931716918945 L 7 10 Z"/></g><path class="c" d="M0,0H24V24H0Z"/><path class="g" d="M0,0,7-2V5H0Z" transform="translate(5 6)"/><path class="g" d="M0,0H5L4.817,4.714,0,6Z" transform="translate(12 11)"/></g></g><g transform="translate(694 649)"><rect class="e" width="52" height="16" transform="translate(1 1)"/><line class="e" y1="4" transform="translate(5 17)"/><line class="e" y2="4" transform="translate(49 17)"/><line class="e" y2="6" transform="translate(7 6)"/><line class="e" y2="6" transform="translate(11 6)"/><line class="e" y2="6" transform="translate(15 6)"/><line class="e" y2="6" transform="translate(19 6)"/><line class="e" y2="6" transform="translate(23 6)"/><rect class="e" width="52" height="16" transform="translate(1 21)"/><line class="e" y1="4" transform="translate(5 37)"/><line class="e" y2="4" transform="translate(49 37)"/><line class="e" y2="6" transform="translate(7 26)"/><line class="e" y2="6" transform="translate(11 26)"/><line class="e" y2="6" transform="translate(15 26)"/><line class="e" y2="6" transform="translate(19 26)"/><line class="e" y2="6" transform="translate(23 26)"/><line class="e" x1="2" transform="translate(35 29)"/><line class="e" x1="2" transform="translate(31 29)"/><line class="e" x1="2" transform="translate(27 29)"/><rect class="e" width="52" height="16" transform="translate(1 41)"/><line class="e" y1="7" transform="translate(5 57)"/><line class="e" y2="7" transform="translate(49 57)"/><line class="e" y2="6" transform="translate(7 46)"/><line class="e" y2="6" transform="translate(11 46)"/><line class="e" y2="6" transform="translate(15 46)"/><line class="e" y2="6" transform="translate(19 46)"/><line class="e" y2="6" transform="translate(23 46)"/><circle class="e" cx="3" cy="3" r="3" transform="translate(41 26)"/><line class="e" x1="2" transform="translate(35 49)"/><line class="e" x1="2" transform="translate(31 49)"/><line class="e" x1="2" transform="translate(27 49)"/><circle class="e" cx="3" cy="3" r="3" transform="translate(41 46)"/><line class="e" x1="2" transform="translate(35 9)"/><line class="e" x1="2" transform="translate(31 9)"/><line class="e" x1="2" transform="translate(27 9)"/><circle class="e" cx="3" cy="3" r="3" transform="translate(41 6)"/><line class="e" x2="38" transform="translate(8 61)"/></g><g transform="translate(572 649)"><circle class="e" cx="5" cy="5" r="5" transform="translate(27 1)"/><circle class="e" cx="5" cy="5" r="5" transform="translate(46 8)"/><circle class="e" cx="5" cy="5" r="5" transform="translate(53 27)"/><circle class="e" cx="5" cy="5" r="5" transform="translate(46 46)"/><circle class="e" cx="5" cy="5" r="5" transform="translate(8 8)"/><circle class="e" cx="5" cy="5" r="5" transform="translate(1 27)"/><circle class="e" cx="5" cy="5" r="5" transform="translate(8 46)"/><circle class="e" cx="5" cy="5" r="5" transform="translate(27 53)"/><path class="h" d="M32,6"/><path class="h" d="M51,51,6,32,51,13,32,58,13,13,58,32,13,51,32,6Z"/><line class="i" x2="2" transform="translate(29 28)"/><line class="i" x2="2" transform="translate(33 28)"/><line class="i" x2="2" transform="translate(35 32)"/><line class="i" x2="2" transform="translate(31 32)"/><line class="i" x2="2" transform="translate(27 32)"/><line class="i" x2="2" transform="translate(33 36)"/><line class="i" x2="2" transform="translate(29 36)"/></g><g transform="translate(806 649)"><circle class="e" cx="5" cy="5" r="5" transform="translate(27 1)"/><circle class="e" cx="5" cy="5" r="5" transform="translate(46 8)"/><circle class="e" cx="5" cy="5" r="5" transform="translate(53 27)"/><circle class="e" cx="5" cy="5" r="5" transform="translate(46 46)"/><circle class="e" cx="5" cy="5" r="5" transform="translate(8 8)"/><circle class="e" cx="5" cy="5" r="5" transform="translate(1 27)"/><circle class="e" cx="5" cy="5" r="5" transform="translate(8 46)"/><circle class="e" cx="5" cy="5" r="5" transform="translate(27 53)"/><path class="h" d="M32,6"/><path class="h" d="M51,51,6,32,51,13,32,58,13,13,58,32,13,51,32,6Z"/><line class="i" x2="2" transform="translate(29 28)"/><line class="i" x2="2" transform="translate(33 28)"/><line class="i" x2="2" transform="translate(35 32)"/><line class="i" x2="2" transform="translate(31 32)"/><line class="i" x2="2" transform="translate(27 32)"/><line class="i" x2="2" transform="translate(33 36)"/><line class="i" x2="2" transform="translate(29 36)"/></g><g transform="translate(689 321)"><circle class="e" cx="3" cy="3" r="3" transform="translate(29 1)"/><circle class="e" cx="3" cy="3" r="3" transform="translate(29 57)"/><line class="e" y1="9" transform="translate(32 7)"/><line class="e" y2="9" transform="translate(32 48)"/><circle class="e" cx="3" cy="3" r="3" transform="translate(57 29)"/><circle class="e" cx="3" cy="3" r="3" transform="translate(1 29)"/><line class="e" x2="9" transform="translate(48 32)"/><line class="e" x1="9" transform="translate(7 32)"/><circle class="e" cx="21" cy="21" r="21" transform="translate(11 11)"/><path class="e" d="M59.1,39A28.025,28.025,0,0,1,39,59.1"/><path class="e" d="M39,4.9A28.025,28.025,0,0,1,59.1,25"/><path class="e" d="M4.9,25A27.681,27.681,0,0,1,24,5.2"/><path class="e" d="M25,59.1A28.025,28.025,0,0,1,4.9,39"/><circle class="e" cx="13" cy="13" r="13" transform="translate(19 19)"/><line class="e" x2="11" y2="11" transform="translate(44 44)"/><line class="e" x2="11" y2="11" transform="translate(9 9)"/><line class="e" y1="11" x2="11" transform="translate(44 9)"/><line class="e" y1="11" x2="11" transform="translate(9 44)"/><ellipse class="e" cx="5" cy="13" rx="5" ry="13" transform="translate(27 19)"/><ellipse class="e" cx="13" cy="5" rx="13" ry="5" transform="translate(19 27)"/></g><g transform="translate(696 421)"><path class="e" d="M49,9,41,1H1V63H49Z"/><path class="e" d="M49,9H41V1"/><g transform="translate(9 16)"><path class="c" d="M0,0H32V32H0Z"/><path class="j" d="M25.333,9.667H21.587A7.98,7.98,0,0,0,19.16,7.053L21.333,4.88,19.453,3,16.56,5.893a8.087,8.087,0,0,0-1.893-.227,7.891,7.891,0,0,0-1.88.227L9.88,3,8,4.88l2.16,2.173A8.083,8.083,0,0,0,7.747,9.667H4v2.667H6.787a8.85,8.85,0,0,0-.12,1.333V15H4v2.667H6.667V19a8.85,8.85,0,0,0,.12,1.333H4V23H7.747a7.986,7.986,0,0,0,13.84,0h3.747V20.333H22.547A8.851,8.851,0,0,0,22.667,19V17.667h2.667V15H22.667V13.667a8.851,8.851,0,0,0-.12-1.333h2.787Zm-8,10.667H12V17.667h5.333Zm0-5.333H12V12.333h5.333Z" transform="translate(1.333 1)"/></g></g><line class="k" y2="28" transform="translate(721 389)"/><line class="k" y2="31" transform="translate(721 489)"/><path class="d" d="M1214-2625.585l1.414-1.415,4.95,4.95,4.95-4.95,1.414,1.415-6.364,6.364Z" transform="translate(-499.364 3140.636)"/><g transform="translate(564 508)"><path class="e" d="M59,43H5L1,39V37H25l2,2H37l2-2H63v2Z" transform="translate(-23 22)"/><path class="e" d="M59,34V4a2.946,2.946,0,0,0-3-3H8A2.946,2.946,0,0,0,5,4V34" transform="translate(-23 22)"/><line class="e" x2="2" transform="translate(4 53)"/><line class="e" x2="2" transform="translate(0 53)"/><line class="e" x2="2" transform="translate(8 53)"/><line class="e" x2="2" transform="translate(12 53)"/><line class="e" x2="2" transform="translate(16 53)"/><path class="e" d="M21,31H9V5H55V31H43" transform="translate(-23 22)"/><g transform="translate(22 50)"><g class="f" transform="translate(0 -1)"><path class="v" d="M 12 24.02938079833984 L 11.76278018951416 23.97146034240723 C 9.049360275268555 23.30887985229492 6.56374979019165 21.61688995361328 4.763830184936523 19.20718002319336 C 2.981549978256226 16.82109069824219 2 13.90639019012451 2 11 L 2 5 L 2 4.350130081176758 L 2.593859910964966 4.086190223693848 L 11.59385967254639 0.08619000017642975 L 12 -0.09431999921798706 L 12.40614032745361 0.08619000017642975 L 21.4061393737793 4.086190223693848 L 22 4.350130081176758 L 22 5 L 22 11 C 22 13.90639019012451 21.0184497833252 16.82109069824219 19.23616981506348 19.20718002319336 C 17.43625068664551 21.61688995361328 14.95063972473145 23.30887985229492 12.23721981048584 23.97146034240723 L 12 24.02938079833984 Z M 13 12.98999977111816 L 13 19.4395637512207 C 14.09261703491211 18.86817932128906 15.08090686798096 18.0280876159668 15.9051399230957 16.96207046508789 C 16.8092155456543 15.79279899597168 17.45445251464844 14.43673610687256 17.80118942260742 12.98999977111816 L 13 12.98999977111816 Z M 6 11 L 11 11 L 11 4.72854471206665 L 6 6.949973106384277 L 6 11 Z"/><path class="w" d="M 12 23 C 17.15999984741211 21.73999977111816 21 16.54999923706055 21 11 L 21 5 L 12 1 L 3 5 L 3 11 C 3 16.54999923706055 6.840000152587891 21.73999977111816 12 23 M 12 3.190000057220459 L 12 11.98999977111816 L 19 11.98999977111816 C 18.46999931335449 16.11000061035156 15.72000026702881 19.78000068664551 12 20.93000030517578 L 12 12 L 5 12 L 5 6.300000190734863 L 12 3.190000057220459 M 12 25.05875968933105 L 11.52556991577148 24.94290924072266 C 8.587100028991699 24.22537994384766 5.901209831237793 22.40092086791992 3.962650060653687 19.80562019348145 C 2.052160024642944 17.24786949157715 1 14.12063980102539 1 11 L 1 5 L 1 3.700249910354614 L 2.187720060348511 3.172379970550537 L 11.18772029876709 -0.8276200294494629 L 12 -1.188639998435974 L 12.81227970123291 -0.8276200294494629 L 21.81228065490723 3.172379970550537 L 23 3.700249910354614 L 23 5 L 23 11 C 23 14.12063980102539 21.94783973693848 17.24786949157715 20.03734970092773 19.80562019348145 C 18.09878921508789 22.40092086791992 15.4128999710083 24.22537994384766 12.47443008422852 24.94290924072266 L 12 25.05875968933105 Z M 14 13.98999977111816 L 14 17.54250335693359 C 14.39844703674316 17.19195365905762 14.77160453796387 16.79327583312988 15.11404037475586 16.35038948059082 C 15.66032409667969 15.64386653900146 16.10853004455566 14.84128952026367 16.43914794921875 13.98999977111816 L 14 13.98999977111816 Z M 7 10 L 10 10 L 10 6.267074584960938 L 7 7.599931716918945 L 7 10 Z"/></g><path class="c" d="M0,0H24V24H0Z"/><rect class="g" width="7" height="5" transform="translate(5 6)"/><path class="g" d="M0,0H5L4.817,4.714,0,6Z" transform="translate(12 11)"/></g></g><g transform="translate(860 508)"><path class="e" d="M59,43H5L1,39V37H25l2,2H37l2-2H63v2Z" transform="translate(-23 22)"/><path class="e" d="M59,34V4a2.946,2.946,0,0,0-3-3H8A2.946,2.946,0,0,0,5,4V34" transform="translate(-23 22)"/><line class="e" x2="2" transform="translate(4 53)"/><line class="e" x2="2" transform="translate(0 53)"/><line class="e" x2="2" transform="translate(8 53)"/><line class="e" x2="2" transform="translate(12 53)"/><line class="e" x2="2" transform="translate(16 53)"/><path class="e" d="M21,31H9V5H55V31H43" transform="translate(-23 22)"/></g><g transform="translate(689 525)"><path class="e" d="M63,4a2.946,2.946,0,0,0-3-3H4A2.946,2.946,0,0,0,1,4V44a2.946,2.946,0,0,0,3,3H60a2.946,2.946,0,0,0,3-3Z"/><line class="e" x2="2" y2="10" transform="translate(38 47)"/><line class="e" y1="10" x2="2" transform="translate(24 47)"/><line class="e" x2="26" transform="translate(19 57)"/><line class="e" x2="2" transform="translate(31 43)"/><line class="e" x2="2" transform="translate(31 33)"/><line class="e" x2="2" transform="translate(35 33)"/><line class="e" x2="2" transform="translate(39 33)"/><line class="e" x2="2" transform="translate(27 33)"/><line class="e" x2="2" transform="translate(23 33)"/><rect class="e" width="54" height="34" transform="translate(5 5)"/></g><g transform="translate(-4 -2)"><line class="l" x1="71" transform="translate(613 554)"/><g class="m" transform="translate(-2007.429 -666.45) rotate(90)"><path class="v" d="M 1220.364013671875 -2619.928466796875 L 1214.707153320312 -2625.58544921875 L 1215.414184570312 -2626.29296875 L 1220.010498046875 -2621.696533203125 L 1220.364013671875 -2621.343017578125 L 1220.717529296875 -2621.696533203125 L 1225.31396484375 -2626.29296875 L 1226.020874023438 -2625.585693359375 L 1220.364013671875 -2619.928466796875 Z"/><path class="x" d="M 1220.364013671875 -2620.6357421875 L 1225.31396484375 -2625.585693359375 L 1225.313842773438 -2625.585693359375 L 1221.071166992188 -2621.343017578125 L 1220.364013671875 -2620.6357421875 L 1219.656860351562 -2621.343017578125 L 1215.414306640625 -2625.585693359375 L 1215.4140625 -2625.585693359375 L 1220.364013671875 -2620.6357421875 M 1220.364013671875 -2619.221435546875 L 1214.000122070312 -2625.58544921875 L 1215.4140625 -2627.000244140625 L 1220.364013671875 -2622.050048828125 L 1225.314086914062 -2627.000244140625 L 1226.727905273438 -2625.58544921875 L 1220.364013671875 -2619.221435546875 Z"/></g><g class="m" transform="translate(3305.793 1774.328) rotate(-90)"><path class="v" d="M 1220.364013671875 -2619.928466796875 L 1214.707153320312 -2625.58544921875 L 1215.414184570312 -2626.29296875 L 1220.010498046875 -2621.696533203125 L 1220.364013671875 -2621.343017578125 L 1220.717529296875 -2621.696533203125 L 1225.31396484375 -2626.29296875 L 1226.020874023438 -2625.585693359375 L 1220.364013671875 -2619.928466796875 Z"/><path class="x" d="M 1220.364013671875 -2620.6357421875 L 1225.31396484375 -2625.585693359375 L 1225.313842773438 -2625.585693359375 L 1221.071166992188 -2621.343017578125 L 1220.364013671875 -2620.6357421875 L 1219.656860351562 -2621.343017578125 L 1215.414306640625 -2625.585693359375 L 1215.4140625 -2625.585693359375 L 1220.364013671875 -2620.6357421875 M 1220.364013671875 -2619.221435546875 L 1214.000122070312 -2625.58544921875 L 1215.4140625 -2627.000244140625 L 1220.364013671875 -2622.050048828125 L 1225.314086914062 -2627.000244140625 L 1226.727905273438 -2625.58544921875 L 1220.364013671875 -2619.221435546875 Z"/></g></g><g transform="translate(147.597 -2)"><line class="l" x1="71" transform="translate(613 554)"/><g class="m" transform="translate(-2007.429 -666.45) rotate(90)"><path class="v" d="M 1220.364013671875 -2619.928466796875 L 1214.707153320312 -2625.58544921875 L 1215.414184570312 -2626.29296875 L 1220.010498046875 -2621.696533203125 L 1220.364013671875 -2621.343017578125 L 1220.717529296875 -2621.696533203125 L 1225.31396484375 -2626.29296875 L 1226.020874023438 -2625.585693359375 L 1220.364013671875 -2619.928466796875 Z"/><path class="x" d="M 1220.364013671875 -2620.6357421875 L 1225.31396484375 -2625.585693359375 L 1225.313842773438 -2625.585693359375 L 1221.071166992188 -2621.343017578125 L 1220.364013671875 -2620.6357421875 L 1219.656860351562 -2621.343017578125 L 1215.414306640625 -2625.585693359375 L 1215.4140625 -2625.585693359375 L 1220.364013671875 -2620.6357421875 M 1220.364013671875 -2619.221435546875 L 1214.000122070312 -2625.58544921875 L 1215.4140625 -2627.000244140625 L 1220.364013671875 -2622.050048828125 L 1225.314086914062 -2627.000244140625 L 1226.727905273438 -2625.58544921875 L 1220.364013671875 -2619.221435546875 Z"/></g><g class="m" transform="translate(3305.793 1774.328) rotate(-90)"><path class="v" d="M 1220.364013671875 -2619.928466796875 L 1214.707153320312 -2625.58544921875 L 1215.414184570312 -2626.29296875 L 1220.010498046875 -2621.696533203125 L 1220.364013671875 -2621.343017578125 L 1220.717529296875 -2621.696533203125 L 1225.31396484375 -2626.29296875 L 1226.020874023438 -2625.585693359375 L 1220.364013671875 -2619.928466796875 Z"/><path class="x" d="M 1220.364013671875 -2620.6357421875 L 1225.31396484375 -2625.585693359375 L 1225.313842773438 -2625.585693359375 L 1221.071166992188 -2621.343017578125 L 1220.364013671875 -2620.6357421875 L 1219.656860351562 -2621.343017578125 L 1215.414306640625 -2625.585693359375 L 1215.4140625 -2625.585693359375 L 1220.364013671875 -2620.6357421875 M 1220.364013671875 -2619.221435546875 L 1214.000122070312 -2625.58544921875 L 1215.4140625 -2627.000244140625 L 1220.364013671875 -2622.050048828125 L 1225.314086914062 -2627.000244140625 L 1226.727905273438 -2625.58544921875 L 1220.364013671875 -2619.221435546875 Z"/></g></g><g transform="translate(712 769)"><path class="e" d="M59,43H5L1,39V37H25l2,2H37l2-2H63v2Z" transform="translate(-23 22)"/><path class="e" d="M59,34V4a2.946,2.946,0,0,0-3-3H8A2.946,2.946,0,0,0,5,4V34" transform="translate(-23 22)"/><line class="e" x2="2" transform="translate(4 53)"/><line class="e" x2="2" transform="translate(0 53)"/><line class="e" x2="2" transform="translate(8 53)"/><line class="e" x2="2" transform="translate(12 53)"/><line class="e" x2="2" transform="translate(16 53)"/><path class="e" d="M21,31H9V5H55V31H43" transform="translate(-23 22)"/><g transform="translate(22 50)"><g class="f" transform="translate(0 -1)"><path class="v" d="M 12 24.02938079833984 L 11.76278018951416 23.97146034240723 C 9.049360275268555 23.30887985229492 6.56374979019165 21.61688995361328 4.763830184936523 19.20718002319336 C 2.981549978256226 16.82109069824219 2 13.90639019012451 2 11 L 2 5 L 2 4.350130081176758 L 2.593859910964966 4.086190223693848 L 11.59385967254639 0.08619000017642975 L 12 -0.09431999921798706 L 12.40614032745361 0.08619000017642975 L 21.4061393737793 4.086190223693848 L 22 4.350130081176758 L 22 5 L 22 11 C 22 13.90639019012451 21.0184497833252 16.82109069824219 19.23616981506348 19.20718002319336 C 17.43625068664551 21.61688995361328 14.95063972473145 23.30887985229492 12.23721981048584 23.97146034240723 L 12 24.02938079833984 Z M 13 12.98999977111816 L 13 19.4395637512207 C 14.09261703491211 18.86817932128906 15.08090686798096 18.0280876159668 15.9051399230957 16.96207046508789 C 16.8092155456543 15.79279899597168 17.45445251464844 14.43673610687256 17.80118942260742 12.98999977111816 L 13 12.98999977111816 Z M 6 11 L 11 11 L 11 4.72854471206665 L 6 6.949973106384277 L 6 11 Z"/><path class="w" d="M 12 23 C 17.15999984741211 21.73999977111816 21 16.54999923706055 21 11 L 21 5 L 12 1 L 3 5 L 3 11 C 3 16.54999923706055 6.840000152587891 21.73999977111816 12 23 M 12 3.190000057220459 L 12 11.98999977111816 L 19 11.98999977111816 C 18.46999931335449 16.11000061035156 15.72000026702881 19.78000068664551 12 20.93000030517578 L 12 12 L 5 12 L 5 6.300000190734863 L 12 3.190000057220459 M 12 25.05875968933105 L 11.52556991577148 24.94290924072266 C 8.587100028991699 24.22537994384766 5.901209831237793 22.40092086791992 3.962650060653687 19.80562019348145 C 2.052160024642944 17.24786949157715 1 14.12063980102539 1 11 L 1 5 L 1 3.700249910354614 L 2.187720060348511 3.172379970550537 L 11.18772029876709 -0.8276200294494629 L 12 -1.188639998435974 L 12.81227970123291 -0.8276200294494629 L 21.81228065490723 3.172379970550537 L 23 3.700249910354614 L 23 5 L 23 11 C 23 14.12063980102539 21.94783973693848 17.24786949157715 20.03734970092773 19.80562019348145 C 18.09878921508789 22.40092086791992 15.4128999710083 24.22537994384766 12.47443008422852 24.94290924072266 L 12 25.05875968933105 Z M 14 13.98999977111816 L 14 17.54250335693359 C 14.39844703674316 17.19195365905762 14.77160453796387 16.79327583312988 15.11404037475586 16.35038948059082 C 15.66032409667969 15.64386653900146 16.10853004455566 14.84128952026367 16.43914794921875 13.98999977111816 L 14 13.98999977111816 Z M 7 10 L 10 10 L 10 6.267074584960938 L 7 7.599931716918945 L 7 10 Z"/></g><path class="c" d="M0,0H24V24H0Z"/><rect class="g" width="7" height="5" transform="translate(5 6)"/><path class="g" d="M0,0H5L4.817,4.714,0,6Z" transform="translate(12 11)"/></g></g><g transform="translate(550 782)"><path class="e" d="M37,58V6a4.951,4.951,0,0,0-5-5H6A4.951,4.951,0,0,0,1,6V58a4.951,4.951,0,0,0,5,5H32A4.951,4.951,0,0,0,37,58Z"/><rect class="e" width="28" height="44" transform="translate(5 11)"/><line class="e" x2="4" transform="translate(17 59)"/><line class="e" x1="2" transform="translate(12 6)"/><line class="e" x2="10" transform="translate(16 6)"/><line class="e" x2="2" transform="translate(10 49)"/><line class="e" x2="2" transform="translate(14 49)"/><line class="e" x2="2" transform="translate(18 49)"/><line class="e" x2="2" transform="translate(22 49)"/><line class="e" x2="2" transform="translate(26 49)"/><line class="e" x2="2" transform="translate(10 17)"/><line class="e" x2="2" transform="translate(14 17)"/><line class="e" x2="2" transform="translate(18 17)"/><line class="e" x2="2" transform="translate(22 17)"/><line class="e" x2="2" transform="translate(26 17)"/><line class="e" x2="2" transform="translate(10 22)"/><line class="e" x2="2" transform="translate(14 22)"/><line class="e" x2="2" transform="translate(18 22)"/><line class="e" x2="2" transform="translate(22 22)"/><line class="e" x2="2" transform="translate(26 22)"/><line class="e" x2="2" transform="translate(10 27)"/><line class="e" x2="2" transform="translate(14 27)"/><line class="e" x2="2" transform="translate(18 27)"/><line class="e" x2="2" transform="translate(22 27)"/><line class="e" x2="2" transform="translate(26 27)"/><line class="e" x2="2" transform="translate(10 32)"/><line class="e" x2="2" transform="translate(14 32)"/><line class="e" x2="2" transform="translate(18 32)"/><line class="e" x2="2" transform="translate(22 32)"/><line class="e" x2="2" transform="translate(26 32)"/><line class="e" x2="2" transform="translate(10 37)"/><line class="e" x2="2" transform="translate(14 37)"/><line class="e" x2="2" transform="translate(18 37)"/></g><g transform="translate(854 782)"><path class="e" d="M37,58V6a4.951,4.951,0,0,0-5-5H6A4.951,4.951,0,0,0,1,6V58a4.951,4.951,0,0,0,5,5H32A4.951,4.951,0,0,0,37,58Z"/><rect class="e" width="28" height="44" transform="translate(5 11)"/><line class="e" x2="4" transform="translate(17 59)"/><line class="e" x1="2" transform="translate(12 6)"/><line class="e" x2="10" transform="translate(16 6)"/><line class="e" x2="2" transform="translate(10 49)"/><line class="e" x2="2" transform="translate(14 49)"/><line class="e" x2="2" transform="translate(18 49)"/><line class="e" x2="2" transform="translate(22 49)"/><line class="e" x2="2" transform="translate(26 49)"/><line class="e" x2="2" transform="translate(10 17)"/><line class="e" x2="2" transform="translate(14 17)"/><line class="e" x2="2" transform="translate(18 17)"/><line class="e" x2="2" transform="translate(22 17)"/><line class="e" x2="2" transform="translate(26 17)"/><line class="e" x2="2" transform="translate(10 22)"/><line class="e" x2="2" transform="translate(14 22)"/><line class="e" x2="2" transform="translate(18 22)"/><line class="e" x2="2" transform="translate(22 22)"/><line class="e" x2="2" transform="translate(26 22)"/><line class="e" x2="2" transform="translate(10 27)"/><line class="e" x2="2" transform="translate(14 27)"/><line class="e" x2="2" transform="translate(18 27)"/><line class="e" x2="2" transform="translate(22 27)"/><line class="e" x2="2" transform="translate(26 27)"/><line class="e" x2="2" transform="translate(10 32)"/><line class="e" x2="2" transform="translate(14 32)"/><line class="e" x2="2" transform="translate(18 32)"/><line class="e" x2="2" transform="translate(22 32)"/><line class="e" x2="2" transform="translate(26 32)"/><line class="e" x2="2" transform="translate(10 37)"/><line class="e" x2="2" transform="translate(14 37)"/><line class="e" x2="2" transform="translate(18 37)"/></g><g transform="translate(-6 260)"><line class="l" x1="82" transform="translate(605 554)"/><g class="m" transform="translate(-2016.429 -666.45) rotate(90)"><path class="v" d="M 1220.364013671875 -2619.928466796875 L 1214.707153320312 -2625.58544921875 L 1215.414184570312 -2626.29296875 L 1220.010498046875 -2621.696533203125 L 1220.364013671875 -2621.343017578125 L 1220.717529296875 -2621.696533203125 L 1225.31396484375 -2626.29296875 L 1226.020874023438 -2625.585693359375 L 1220.364013671875 -2619.928466796875 Z"/><path class="x" d="M 1220.364013671875 -2620.6357421875 L 1225.31396484375 -2625.585693359375 L 1225.313842773438 -2625.585693359375 L 1221.071166992188 -2621.343017578125 L 1220.364013671875 -2620.6357421875 L 1219.656860351562 -2621.343017578125 L 1215.414306640625 -2625.585693359375 L 1215.4140625 -2625.585693359375 L 1220.364013671875 -2620.6357421875 M 1220.364013671875 -2619.221435546875 L 1214.000122070312 -2625.58544921875 L 1215.4140625 -2627.000244140625 L 1220.364013671875 -2622.050048828125 L 1225.314086914062 -2627.000244140625 L 1226.727905273438 -2625.58544921875 L 1220.364013671875 -2619.221435546875 Z"/></g><g class="m" transform="translate(3308.793 1774.328) rotate(-90)"><path class="v" d="M 1220.364013671875 -2619.928466796875 L 1214.707153320312 -2625.58544921875 L 1215.414184570312 -2626.29296875 L 1220.010498046875 -2621.696533203125 L 1220.364013671875 -2621.343017578125 L 1220.717529296875 -2621.696533203125 L 1225.31396484375 -2626.29296875 L 1226.020874023438 -2625.585693359375 L 1220.364013671875 -2619.928466796875 Z"/><path class="x" d="M 1220.364013671875 -2620.6357421875 L 1225.31396484375 -2625.585693359375 L 1225.313842773438 -2625.585693359375 L 1221.071166992188 -2621.343017578125 L 1220.364013671875 -2620.6357421875 L 1219.656860351562 -2621.343017578125 L 1215.414306640625 -2625.585693359375 L 1215.4140625 -2625.585693359375 L 1220.364013671875 -2620.6357421875 M 1220.364013671875 -2619.221435546875 L 1214.000122070312 -2625.58544921875 L 1215.4140625 -2627.000244140625 L 1220.364013671875 -2622.050048828125 L 1225.314086914062 -2627.000244140625 L 1226.727905273438 -2625.58544921875 L 1220.364013671875 -2619.221435546875 Z"/></g></g><g transform="translate(149.597 260)"><line class="l" x1="82" transform="translate(610.903 554)"/><g class="m" transform="translate(-2010.429 -666.45) rotate(90)"><path class="v" d="M 1220.364013671875 -2619.928466796875 L 1214.707153320312 -2625.58544921875 L 1215.414184570312 -2626.29296875 L 1220.010498046875 -2621.696533203125 L 1220.364013671875 -2621.343017578125 L 1220.717529296875 -2621.696533203125 L 1225.31396484375 -2626.29296875 L 1226.020874023438 -2625.585693359375 L 1220.364013671875 -2619.928466796875 Z"/><path class="x" d="M 1220.364013671875 -2620.6357421875 L 1225.31396484375 -2625.585693359375 L 1225.313842773438 -2625.585693359375 L 1221.071166992188 -2621.343017578125 L 1220.364013671875 -2620.6357421875 L 1219.656860351562 -2621.343017578125 L 1215.414306640625 -2625.585693359375 L 1215.4140625 -2625.585693359375 L 1220.364013671875 -2620.6357421875 M 1220.364013671875 -2619.221435546875 L 1214.000122070312 -2625.58544921875 L 1215.4140625 -2627.000244140625 L 1220.364013671875 -2622.050048828125 L 1225.314086914062 -2627.000244140625 L 1226.727905273438 -2625.58544921875 L 1220.364013671875 -2619.221435546875 Z"/></g><g class="m" transform="translate(3314.793 1774.328) rotate(-90)"><path class="v" d="M 1220.364013671875 -2619.928466796875 L 1214.707153320312 -2625.58544921875 L 1215.414184570312 -2626.29296875 L 1220.010498046875 -2621.696533203125 L 1220.364013671875 -2621.343017578125 L 1220.717529296875 -2621.696533203125 L 1225.31396484375 -2626.29296875 L 1226.020874023438 -2625.585693359375 L 1220.364013671875 -2619.928466796875 Z"/><path class="x" d="M 1220.364013671875 -2620.6357421875 L 1225.31396484375 -2625.585693359375 L 1225.313842773438 -2625.585693359375 L 1221.071166992188 -2621.343017578125 L 1220.364013671875 -2620.6357421875 L 1219.656860351562 -2621.343017578125 L 1215.414306640625 -2625.585693359375 L 1215.4140625 -2625.585693359375 L 1220.364013671875 -2620.6357421875 M 1220.364013671875 -2619.221435546875 L 1214.000122070312 -2625.58544921875 L 1215.4140625 -2627.000244140625 L 1220.364013671875 -2622.050048828125 L 1225.314086914062 -2627.000244140625 L 1226.727905273438 -2625.58544921875 L 1220.364013671875 -2619.221435546875 Z"/></g></g><g transform="translate(144.597 127)"><line class="l" x1="36.903" transform="translate(614 554)"/><g class="m" transform="translate(-2007.429 -666.45) rotate(90)"><path class="v" d="M 1220.364013671875 -2619.928466796875 L 1214.707153320312 -2625.58544921875 L 1215.414184570312 -2626.29296875 L 1220.010498046875 -2621.696533203125 L 1220.364013671875 -2621.343017578125 L 1220.717529296875 -2621.696533203125 L 1225.31396484375 -2626.29296875 L 1226.020874023438 -2625.585693359375 L 1220.364013671875 -2619.928466796875 Z"/><path class="x" d="M 1220.364013671875 -2620.6357421875 L 1225.31396484375 -2625.585693359375 L 1225.313842773438 -2625.585693359375 L 1221.071166992188 -2621.343017578125 L 1220.364013671875 -2620.6357421875 L 1219.656860351562 -2621.343017578125 L 1215.414306640625 -2625.585693359375 L 1215.4140625 -2625.585693359375 L 1220.364013671875 -2620.6357421875 M 1220.364013671875 -2619.221435546875 L 1214.000122070312 -2625.58544921875 L 1215.4140625 -2627.000244140625 L 1220.364013671875 -2622.050048828125 L 1225.314086914062 -2627.000244140625 L 1226.727905273438 -2625.58544921875 L 1220.364013671875 -2619.221435546875 Z"/></g><g class="m" transform="translate(3272.793 1774.328) rotate(-90)"><path class="v" d="M 1220.364013671875 -2619.928466796875 L 1214.707153320312 -2625.58544921875 L 1215.414184570312 -2626.29296875 L 1220.010498046875 -2621.696533203125 L 1220.364013671875 -2621.343017578125 L 1220.717529296875 -2621.696533203125 L 1225.31396484375 -2626.29296875 L 1226.020874023438 -2625.585693359375 L 1220.364013671875 -2619.928466796875 Z"/><path class="x" d="M 1220.364013671875 -2620.6357421875 L 1225.31396484375 -2625.585693359375 L 1225.313842773438 -2625.585693359375 L 1221.071166992188 -2621.343017578125 L 1220.364013671875 -2620.6357421875 L 1219.656860351562 -2621.343017578125 L 1215.414306640625 -2625.585693359375 L 1215.4140625 -2625.585693359375 L 1220.364013671875 -2620.6357421875 M 1220.364013671875 -2619.221435546875 L 1214.000122070312 -2625.58544921875 L 1215.4140625 -2627.000244140625 L 1220.364013671875 -2622.050048828125 L 1225.314086914062 -2627.000244140625 L 1226.727905273438 -2625.58544921875 L 1220.364013671875 -2619.221435546875 Z"/></g></g><g transform="translate(-109.403 127)"><line class="l" x1="78" transform="translate(592.903 554)"/><g class="m" transform="translate(-2027.429 -666.45) rotate(90)"><path class="v" d="M 1220.364013671875 -2619.928466796875 L 1214.707153320312 -2625.58544921875 L 1215.414184570312 -2626.29296875 L 1220.010498046875 -2621.696533203125 L 1220.364013671875 -2621.343017578125 L 1220.717529296875 -2621.696533203125 L 1225.31396484375 -2626.29296875 L 1226.020874023438 -2625.585693359375 L 1220.364013671875 -2619.928466796875 Z"/><path class="x" d="M 1220.364013671875 -2620.6357421875 L 1225.31396484375 -2625.585693359375 L 1225.313842773438 -2625.585693359375 L 1221.071166992188 -2621.343017578125 L 1220.364013671875 -2620.6357421875 L 1219.656860351562 -2621.343017578125 L 1215.414306640625 -2625.585693359375 L 1215.4140625 -2625.585693359375 L 1220.364013671875 -2620.6357421875 M 1220.364013671875 -2619.221435546875 L 1214.000122070312 -2625.58544921875 L 1215.4140625 -2627.000244140625 L 1220.364013671875 -2622.050048828125 L 1225.314086914062 -2627.000244140625 L 1226.727905273438 -2625.58544921875 L 1220.364013671875 -2619.221435546875 Z"/></g><g class="m" transform="translate(3292.803 1774.328) rotate(-90)"><path class="v" d="M 1220.364013671875 -2619.928466796875 L 1214.707153320312 -2625.58544921875 L 1215.414184570312 -2626.29296875 L 1220.010498046875 -2621.696533203125 L 1220.364013671875 -2621.343017578125 L 1220.717529296875 -2621.696533203125 L 1225.31396484375 -2626.29296875 L 1226.020874023438 -2625.585693359375 L 1220.364013671875 -2619.928466796875 Z"/><path class="x" d="M 1220.364013671875 -2620.6357421875 L 1225.31396484375 -2625.585693359375 L 1225.313842773438 -2625.585693359375 L 1221.071166992188 -2621.343017578125 L 1220.364013671875 -2620.6357421875 L 1219.656860351562 -2621.343017578125 L 1215.414306640625 -2625.585693359375 L 1215.4140625 -2625.585693359375 L 1220.364013671875 -2620.6357421875 M 1220.364013671875 -2619.221435546875 L 1214.000122070312 -2625.58544921875 L 1215.4140625 -2627.000244140625 L 1220.364013671875 -2622.050048828125 L 1225.314086914062 -2627.000244140625 L 1226.727905273438 -2625.58544921875 L 1220.364013671875 -2619.221435546875 Z"/></g></g><g transform="translate(31.997 127)"><line class="n" x1="36.903" transform="translate(614 554)"/><path class="o" d="M1214-2625.585l1.414-1.415,4.95,4.95,4.95-4.95,1.414,1.415-6.364,6.364Z" transform="translate(-2007.429 -666.45) rotate(90)"/><path class="o" d="M1214-2625.585l1.414-1.415,4.95,4.95,4.95-4.95,1.414,1.415-6.364,6.364Z" transform="translate(3272.793 1774.328) rotate(-90)"/></g><g transform="translate(-58.858 795.693) rotate(-45)"><line class="l" x1="99.878" transform="translate(571.025 554)"/><g class="m" transform="translate(-2049.855 -666.45) rotate(90)"><path class="v" d="M 1220.364013671875 -2619.928466796875 L 1214.707153320312 -2625.58544921875 L 1215.414184570312 -2626.29296875 L 1220.010498046875 -2621.696533203125 L 1220.364013671875 -2621.343017578125 L 1220.717529296875 -2621.696533203125 L 1225.31396484375 -2626.29296875 L 1226.020874023438 -2625.585693359375 L 1220.364013671875 -2619.928466796875 Z"/><path class="x" d="M 1220.364013671875 -2620.6357421875 L 1225.31396484375 -2625.585693359375 L 1225.313842773438 -2625.585693359375 L 1221.071166992188 -2621.343017578125 L 1220.364013671875 -2620.6357421875 L 1219.656860351562 -2621.343017578125 L 1215.414306640625 -2625.585693359375 L 1215.4140625 -2625.585693359375 L 1220.364013671875 -2620.6357421875 M 1220.364013671875 -2619.221435546875 L 1214.000122070312 -2625.58544921875 L 1215.4140625 -2627.000244140625 L 1220.364013671875 -2622.050048828125 L 1225.314086914062 -2627.000244140625 L 1226.727905273438 -2625.58544921875 L 1220.364013671875 -2619.221435546875 Z"/></g><g class="m" transform="translate(3292.803 1774.328) rotate(-90)"><path class="v" d="M 1220.364013671875 -2619.928466796875 L 1214.707153320312 -2625.58544921875 L 1215.414184570312 -2626.29296875 L 1220.010498046875 -2621.696533203125 L 1220.364013671875 -2621.343017578125 L 1220.717529296875 -2621.696533203125 L 1225.31396484375 -2626.29296875 L 1226.020874023438 -2625.585693359375 L 1220.364013671875 -2619.928466796875 Z"/><path class="x" d="M 1220.364013671875 -2620.6357421875 L 1225.31396484375 -2625.585693359375 L 1225.313842773438 -2625.585693359375 L 1221.071166992188 -2621.343017578125 L 1220.364013671875 -2620.6357421875 L 1219.656860351562 -2621.343017578125 L 1215.414306640625 -2625.585693359375 L 1215.4140625 -2625.585693359375 L 1220.364013671875 -2620.6357421875 M 1220.364013671875 -2619.221435546875 L 1214.000122070312 -2625.58544921875 L 1215.4140625 -2627.000244140625 L 1220.364013671875 -2622.050048828125 L 1225.314086914062 -2627.000244140625 L 1226.727905273438 -2625.58544921875 L 1220.364013671875 -2619.221435546875 Z"/></g></g><g transform="translate(-182.858 661.693) rotate(-45)"><line class="p" x1="94.221" y1="0.219" transform="translate(576.682 553.781)"/><path class="q" d="M1214-2625.585l1.414-1.415,4.95,4.95,4.95-4.95,1.414,1.415-6.364,6.364Z" transform="translate(-2044.198 -666.45) rotate(90)"/><path class="q" d="M1214-2625.585l1.414-1.415,4.95,4.95,4.95-4.95,1.414,1.415-6.364,6.364Z" transform="translate(3292.803 1774.328) rotate(-90)"/></g><rect class="r" width="101.2" height="2" transform="translate(442.414 742) rotate(45)"/><path class="r" d="M1220.364-2624.172l-4.95,4.949-1.414-1.414,6.364-6.364,6.364,6.364-1.414,1.414Z" transform="translate(-778.364 3345.586)"/><rect class="r" width="2" height="22.4" transform="translate(441 721)"/><rect class="r" width="2" height="27.43" transform="translate(540 813) rotate(90)"/><path class="r" d="M1214-2615.686l4.95-4.95-4.95-4.949,1.414-1.415,6.364,6.364h0l-6.364,6.363Z" transform="translate(-679.364 3434.636)"/><g transform="translate(547)"><rect class="r" width="101.2" height="2" transform="translate(443.973 743.414) rotate(135)"/><path class="r" d="M1220.364-2624.172l-4.95,4.949-1.414-1.414,6.364-6.364,6.364,6.364-1.414,1.414Z" transform="translate(-777.364 3339.586)"/><rect class="r" width="2" height="28.4" transform="translate(442 715)"/><rect class="r" width="2" height="17.6" transform="translate(372.4 813) rotate(90)"/><path class="r" d="M1214-2615.686l4.95-4.95-4.95-4.949,1.414-1.415,6.364,6.364h0l-6.364,6.363Z" transform="translate(1574.414 -1806.637) rotate(180)"/></g><g transform="translate(426 -133)"><rect class="r" width="10.2" height="2" transform="translate(443.973 775.414) rotate(135)"/><path class="r" d="M1220.364-2624.172l-4.95,4.949-1.414-1.414,6.364-6.364,6.364,6.364-1.414,1.414Z" transform="translate(-777.364 3339.586)"/><rect class="r" width="2" height="60.4" transform="translate(442 715)"/><path class="r" d="M1214-2615.686l4.95-4.95-4.95-4.949,1.414-1.415,6.364,6.364h0l-6.364,6.363Z" transform="translate(-554.642 -1933.497) rotate(135)"/></g><g transform="translate(885 1357.949) rotate(180)"><rect class="r" width="101.2" height="2" transform="translate(443.973 735.414) rotate(135)"/><path class="r" d="M1220.364-2624.172l-4.95,4.949-1.414-1.414,6.364-6.364,6.364,6.364-1.414,1.414Z" transform="translate(-777.364 3339.586)"/><rect class="r" width="2" height="20.4" transform="translate(442 715)"/><rect class="r" width="2" height="22.6" transform="translate(372.4 805) rotate(90)"/><path class="r" d="M1214-2615.686l4.95-4.95-4.95-4.949,1.414-1.415,6.364,6.364h0l-6.364,6.363Z" transform="translate(1569.414 -1814.637) rotate(180)"/></g><g transform="translate(175.526 1006.474) rotate(-90)"><rect class="r" width="101.9" height="2" transform="translate(455.434 743.414) rotate(135)"/><path class="r" d="M1220.364-2624.172l-4.95,4.949-1.414-1.414,6.364-6.364,6.364,6.364-1.414,1.414Z" transform="translate(-765.903 3355.586)"/><rect class="r" width="2" height="12.4" transform="translate(453.461 731)"/><rect class="r" width="2" height="28.8" transform="translate(383.374 813.474) rotate(90)"/><path class="r" d="M1214-2615.686l4.95-4.95-4.95-4.949,1.414-1.415,6.364,6.364h0l-6.364,6.363Z" transform="translate(1574.414 -1806.148) rotate(180)"/></g><rect class="d" width="2" height="85" transform="translate(801.142 475.444) rotate(45)"/><circle class="d" cx="5.5" cy="5.5" r="5.5" transform="translate(733 534)"/><circle class="s" cx="5.5" cy="5.5" r="5.5" transform="translate(582.556 674) rotate(-90)"/><rect class="t" width="2" height="197" transform="translate(445.703 527.561) rotate(-45)"/><g transform="translate(147 -119)"><g class="u" transform="translate(250 597)"><rect class="v" width="52" height="52" rx="8"/><rect class="c" x="1" y="1" width="50" height="50" rx="7"/></g><g transform="translate(260 607)"><path class="c" d="M0,0H32V32H0Z"/><path class="q" d="M25.333,9.667H21.587A7.98,7.98,0,0,0,19.16,7.053L21.333,4.88,19.453,3,16.56,5.893a8.087,8.087,0,0,0-1.893-.227,7.891,7.891,0,0,0-1.88.227L9.88,3,8,4.88l2.16,2.173A8.083,8.083,0,0,0,7.747,9.667H4v2.667H6.787a8.85,8.85,0,0,0-.12,1.333V15H4v2.667H6.667V19a8.85,8.85,0,0,0,.12,1.333H4V23H7.747a7.986,7.986,0,0,0,13.84,0h3.747V20.333H22.547A8.851,8.851,0,0,0,22.667,19V17.667h2.667V15H22.667V13.667a8.851,8.851,0,0,0-.12-1.333h2.787Zm-8,10.667H12V17.667h5.333Zm0-5.333H12V12.333h5.333Z" transform="translate(1.333 1)"/></g></g></g></svg>