<svg xmlns="http://www.w3.org/2000/svg" viewBox="13512.078 293.358 318.257 247.38"><defs><style>.a{fill:#1cb9df;}.b,.d{fill:#fff;}.b{font-size:13px;font-family:SFUIDisplay-Bold, SF UI Display;font-weight:700;letter-spacing:0.04em;}.c,.d{stroke:none;}</style></defs><g transform="translate(13291 5)"><g transform="translate(239.63 86.11)"><g class="a" transform="translate(115.348 206.576) rotate(30)"><path class="c" d="M 24.05698776245117 28.30815887451172 L 23.19488716125488 28.30815887451172 L 7.692777633666992 28.30815887451172 L 6.824167728424072 28.30815887451172 L 6.391807556152344 27.5547981262207 L -1.30097234249115 14.15071868896484 L -1.729482412338257 13.40407848358154 L -1.30097234249115 12.65743827819824 L 6.391807556152344 -0.7466415166854858 L 6.824167728424072 -1.500001549720764 L 7.692777633666992 -1.500001549720764 L 23.19488716125488 -1.500001549720764 L 24.05698776245117 -1.500001549720764 L 24.490966796875 -0.7551115155220032 L 32.30029678344727 12.64896869659424 L 32.74022674560547 13.40407848358154 L 32.30029678344727 14.15918827056885 L 24.490966796875 27.56326866149902 L 24.05698776245117 28.30815887451172 Z"/><path class="d" d="M 23.19488716125488 26.80815887451172 L 31.00421714782715 13.40407848358154 L 23.19488716125488 -1.516418478786363e-06 L 7.692777633666992 -1.516418478786363e-06 L -2.379760644544149e-06 13.40407848358154 L 7.692777633666992 26.80815887451172 L 23.19488716125488 26.80815887451172 M 24.91907691955566 29.80815887451172 L 23.19488716125488 29.80815887451172 L 7.692777633666992 29.80815887451172 L 5.955557823181152 29.80815887451172 L 5.090837478637695 28.30144882202148 L -2.601942300796509 14.89736843109131 L -3.458962440490723 13.40407848358154 L -2.601942300796509 11.91078853607178 L 5.090837478637695 -1.49329149723053 L 5.955557823181152 -3.000001430511475 L 7.692777633666992 -3.000001430511475 L 23.19488716125488 -3.000001430511475 L 24.91907691955566 -3.000001430511475 L 25.78703689575195 -1.51021146774292 L 33.59636688232422 11.8938684463501 L 34.47623825073242 13.40407848358154 L 33.59636688232422 14.91428852081299 L 25.78703689575195 28.31836891174316 L 24.91907691955566 29.80815887451172 Z"/></g><text class="b" transform="translate(121.672 230.753)"><tspan x="-3.12" y="0">1</tspan></text></g><g transform="translate(154 -1)"><g transform="translate(238.63 87.11)"><g class="a" transform="translate(115.348 206.576) rotate(30)"><path class="c" d="M 24.05698776245117 28.30815887451172 L 23.19488716125488 28.30815887451172 L 7.692777633666992 28.30815887451172 L 6.824167728424072 28.30815887451172 L 6.391807556152344 27.5547981262207 L -1.30097234249115 14.15071868896484 L -1.729482412338257 13.40407848358154 L -1.30097234249115 12.65743827819824 L 6.391807556152344 -0.7466415166854858 L 6.824167728424072 -1.500001549720764 L 7.692777633666992 -1.500001549720764 L 23.19488716125488 -1.500001549720764 L 24.05698776245117 -1.500001549720764 L 24.490966796875 -0.7551115155220032 L 32.30029678344727 12.64896869659424 L 32.74022674560547 13.40407848358154 L 32.30029678344727 14.15918827056885 L 24.490966796875 27.56326866149902 L 24.05698776245117 28.30815887451172 Z"/><path class="d" d="M 23.19488716125488 26.80815887451172 L 31.00421714782715 13.40407848358154 L 23.19488716125488 -1.516418478786363e-06 L 7.692777633666992 -1.516418478786363e-06 L -2.379760644544149e-06 13.40407848358154 L 7.692777633666992 26.80815887451172 L 23.19488716125488 26.80815887451172 M 24.91907691955566 29.80815887451172 L 23.19488716125488 29.80815887451172 L 7.692777633666992 29.80815887451172 L 5.955557823181152 29.80815887451172 L 5.090837478637695 28.30144882202148 L -2.601942300796509 14.89736843109131 L -3.458962440490723 13.40407848358154 L -2.601942300796509 11.91078853607178 L 5.090837478637695 -1.49329149723053 L 5.955557823181152 -3.000001430511475 L 7.692777633666992 -3.000001430511475 L 23.19488716125488 -3.000001430511475 L 24.91907691955566 -3.000001430511475 L 25.78703689575195 -1.51021146774292 L 33.59636688232422 11.8938684463501 L 34.47623825073242 13.40407848358154 L 33.59636688232422 14.91428852081299 L 25.78703689575195 28.31836891174316 L 24.91907691955566 29.80815887451172 Z"/></g><text class="b" transform="translate(121.672 230.753)"><tspan x="-3.92" y="0">2</tspan></text></g></g><g transform="translate(-115 199)"><g transform="translate(238.63 87.11)"><g class="a" transform="translate(115.348 206.576) rotate(30)"><path class="c" d="M 24.05698776245117 28.30815887451172 L 23.19488716125488 28.30815887451172 L 7.692777633666992 28.30815887451172 L 6.824167728424072 28.30815887451172 L 6.391807556152344 27.5547981262207 L -1.30097234249115 14.15071868896484 L -1.729482412338257 13.40407848358154 L -1.30097234249115 12.65743827819824 L 6.391807556152344 -0.7466415166854858 L 6.824167728424072 -1.500001549720764 L 7.692777633666992 -1.500001549720764 L 23.19488716125488 -1.500001549720764 L 24.05698776245117 -1.500001549720764 L 24.490966796875 -0.7551115155220032 L 32.30029678344727 12.64896869659424 L 32.74022674560547 13.40407848358154 L 32.30029678344727 14.15918827056885 L 24.490966796875 27.56326866149902 L 24.05698776245117 28.30815887451172 Z"/><path class="d" d="M 23.19488716125488 26.80815887451172 L 31.00421714782715 13.40407848358154 L 23.19488716125488 -1.516418478786363e-06 L 7.692777633666992 -1.516418478786363e-06 L -2.379760644544149e-06 13.40407848358154 L 7.692777633666992 26.80815887451172 L 23.19488716125488 26.80815887451172 M 24.91907691955566 29.80815887451172 L 23.19488716125488 29.80815887451172 L 7.692777633666992 29.80815887451172 L 5.955557823181152 29.80815887451172 L 5.090837478637695 28.30144882202148 L -2.601942300796509 14.89736843109131 L -3.458962440490723 13.40407848358154 L -2.601942300796509 11.91078853607178 L 5.090837478637695 -1.49329149723053 L 5.955557823181152 -3.000001430511475 L 7.692777633666992 -3.000001430511475 L 23.19488716125488 -3.000001430511475 L 24.91907691955566 -3.000001430511475 L 25.78703689575195 -1.51021146774292 L 33.59636688232422 11.8938684463501 L 34.47623825073242 13.40407848358154 L 33.59636688232422 14.91428852081299 L 25.78703689575195 28.31836891174316 L 24.91907691955566 29.80815887451172 Z"/></g><text class="b" transform="translate(121.672 230.753)"><tspan x="-4.094" y="0">3</tspan></text></g></g><g transform="translate(52 199)"><g transform="translate(238.63 87.11)"><g class="a" transform="translate(115.348 206.576) rotate(30)"><path class="c" d="M 24.05698776245117 28.30815887451172 L 23.19488716125488 28.30815887451172 L 7.692777633666992 28.30815887451172 L 6.824167728424072 28.30815887451172 L 6.391807556152344 27.5547981262207 L -1.30097234249115 14.15071868896484 L -1.729482412338257 13.40407848358154 L -1.30097234249115 12.65743827819824 L 6.391807556152344 -0.7466415166854858 L 6.824167728424072 -1.500001549720764 L 7.692777633666992 -1.500001549720764 L 23.19488716125488 -1.500001549720764 L 24.05698776245117 -1.500001549720764 L 24.490966796875 -0.7551115155220032 L 32.30029678344727 12.64896869659424 L 32.74022674560547 13.40407848358154 L 32.30029678344727 14.15918827056885 L 24.490966796875 27.56326866149902 L 24.05698776245117 28.30815887451172 Z"/><path class="d" d="M 23.19488716125488 26.80815887451172 L 31.00421714782715 13.40407848358154 L 23.19488716125488 -1.516418478786363e-06 L 7.692777633666992 -1.516418478786363e-06 L -2.379760644544149e-06 13.40407848358154 L 7.692777633666992 26.80815887451172 L 23.19488716125488 26.80815887451172 M 24.91907691955566 29.80815887451172 L 23.19488716125488 29.80815887451172 L 7.692777633666992 29.80815887451172 L 5.955557823181152 29.80815887451172 L 5.090837478637695 28.30144882202148 L -2.601942300796509 14.89736843109131 L -3.458962440490723 13.40407848358154 L -2.601942300796509 11.91078853607178 L 5.090837478637695 -1.49329149723053 L 5.955557823181152 -3.000001430511475 L 7.692777633666992 -3.000001430511475 L 23.19488716125488 -3.000001430511475 L 24.91907691955566 -3.000001430511475 L 25.78703689575195 -1.51021146774292 L 33.59636688232422 11.8938684463501 L 34.47623825073242 13.40407848358154 L 33.59636688232422 14.91428852081299 L 25.78703689575195 28.31836891174316 L 24.91907691955566 29.80815887451172 Z"/></g><text class="b" transform="translate(121.672 230.753)"><tspan x="-4.212" y="0">4</tspan></text></g></g></g></svg>