<svg xmlns="http://www.w3.org/2000/svg" viewBox="12072 1373 630 525"><defs><style>.a{font-size:13px;font-family:SFUIDisplay-Regular,SF UI Display;letter-spacing:.02em}.b,.g,.u,.w{fill:#fff}.b,.k{stroke:#e53939}.b,.e,.h,.i,.k,.l,.n,.p,.s,.u{stroke-width:2px}.c,.e,.h,.i,.k,.l,.n,.p{fill:none}.d{fill:#e53939}.e,.h,.i{stroke:#2aa0bc;stroke-miterlimit:10}.f,.j{fill:#2aa0bc}.h{stroke-linecap:round}.h,.i{stroke-linejoin:round}.l{stroke:#adb5bd}.m{fill:#868e96}.n{stroke:#fc3}.o{fill:#fc3}.p{stroke:#00b050}.q,.s{fill:#00b050}.r,.x{fill:#adb5bd}.s{stroke:#fff}.t{fill:#1ea84c}.u{stroke:#1ea84c}.v,.w,.x{stroke:none}</style></defs><g transform="translate(11675 1052)"><text class="a" transform="translate(604 734)"><tspan x="-36.152" y="0">Супер-узел</tspan></text><text class="a" transform="translate(838 734)"><tspan x="-36.152" y="0">Супер-узел</tspan></text><text class="a" transform="translate(721 734)"><tspan x="-43.248" y="0">Управляющие</tspan><tspan x="-25.437" y="14">сервера</tspan></text><g class="b" transform="translate(799 427)"><rect class="v" width="52" height="52" rx="8"/><rect class="c" x="1" y="1" width="50" height="50" rx="7"/></g><path class="c" d="M809 437h32v32h-32z"/><path class="d" d="M835.666 447.667h-3.746a7.98 7.98 0 0 0-2.427-2.614l2.173-2.173-1.88-1.88-2.893 2.893a8.087 8.087 0 0 0-1.893-.227 7.891 7.891 0 0 0-1.88.227L820.213 441l-1.88 1.88 2.16 2.173a8.083 8.083 0 0 0-2.413 2.614h-3.747v2.667h2.787a8.85 8.85 0 0 0-.12 1.333V453h-2.667v2.667H817V457a8.85 8.85 0 0 0 .12 1.333h-2.787V461h3.747a7.986 7.986 0 0 0 13.84 0h3.747v-2.667h-2.787A8.851 8.851 0 0 0 833 457v-1.333h2.667V453H833v-1.333a8.851 8.851 0 0 0-.12-1.333h2.787zm-8 10.667h-5.333v-2.667h5.333zm0-5.333h-5.333v-2.668h5.333z"/><path class="e" d="M1017 704h-54l-4-4v-2h24l2 2h10l2-2h24v2zM1017 695v-30a2.946 2.946 0 0 0-3-3h-48a2.946 2.946 0 0 0-3 3v30M985 692h2M981 692h2M989 692h2M993 692h2M997 692h2"/><path class="e" d="M979 692h-12v-26h46v26h-12"/><g class="f"><path class="v" d="M1015 712.03l-.237-.059c-2.714-.662-5.2-2.354-7-4.764-1.781-2.386-2.763-5.3-2.763-8.207v-6.65l.594-.264 9-4 .406-.18.406.18 9 4 .594.264V699c0 2.906-.982 5.821-2.764 8.207-1.8 2.41-4.285 4.102-6.999 4.764l-.237.058zm1-11.04v6.45c1.093-.572 2.08-1.412 2.905-2.478a10.49 10.49 0 0 0 1.896-3.972H1016zm-7-1.99h5v-6.271l-5 2.221V699z"/><path class="w" d="M1015 711c5.16-1.26 9-6.45 9-12v-6l-9-4-9 4v6c0 5.55 3.84 10.74 9 12m0-19.81v8.8h7c-.53 4.12-3.28 7.79-7 8.94V700h-7v-5.7l7-3.11m0 21.869l-.474-.116c-2.939-.718-5.625-2.542-7.563-5.137-1.91-2.558-2.963-5.685-2.963-8.806v-7.3l1.188-.528 9-4 .812-.36.812.36 9 4 1.188.528v7.3c0 3.12-1.052 6.248-2.963 8.806-1.938 2.595-4.624 4.42-7.563 5.137l-.474.116zm2-11.069v3.553c.398-.351.772-.75 1.114-1.193a9.481 9.481 0 0 0 1.325-2.36H1017zm-7-3.99h3v-3.733l-3 1.333v2.4z"/></g><path class="c" d="M1003 689h24v24h-24z"/><path class="g" d="M1008 695h7v5h-7zM1015 700h5l-.183 4.714L1015 706z"/><path class="e" d="M473 657a2.946 2.946 0 0 0-3-3h-56a2.946 2.946 0 0 0-3 3v40a2.946 2.946 0 0 0 3 3h56a2.946 2.946 0 0 0 3-3zM448 700l2 10M434 710l2-10M429 710h26M441 696h2M441 686h2M445 686h2M449 686h2M437 686h2M433 686h2"/><path class="e" d="M415 658h54v34h-54z"/><g class="f"><path class="v" d="M471 711.03l-.237-.059c-2.714-.662-5.2-2.354-7-4.764-1.781-2.386-2.763-5.3-2.763-8.207v-6.65l.594-.264 9-4 .406-.18.406.18 9 4 .594.264V698c0 2.906-.982 5.821-2.764 8.207-1.8 2.41-4.285 4.102-6.999 4.764l-.237.058zm1-11.04v6.45c1.093-.572 2.08-1.412 2.905-2.478a10.49 10.49 0 0 0 1.896-3.972H472zm-7-1.99h5v-6.271l-5 2.221V698z"/><path class="w" d="M471 710c5.16-1.26 9-6.45 9-12v-6l-9-4-9 4v6c0 5.55 3.84 10.74 9 12m0-19.81v8.8h7c-.53 4.12-3.28 7.79-7 8.94V699h-7v-5.7l7-3.11m0 21.869l-.474-.116c-2.939-.718-5.625-2.542-7.563-5.137-1.91-2.558-2.963-5.685-2.963-8.806v-7.3l1.188-.528 9-4 .812-.36.812.36 9 4 1.188.528v7.3c0 3.12-1.052 6.248-2.963 8.806-1.938 2.595-4.624 4.42-7.563 5.137l-.474.116zm2-11.069v3.553c.398-.351.772-.75 1.114-1.193a9.481 9.481 0 0 0 1.325-2.36H473zm-7-3.99h3v-3.733l-3 1.333v2.4z"/></g><path class="c" d="M459 688h24v24h-24z"/><path class="g" d="M464 694l7-2v7h-7zM471 699h5l-.183 4.714L471 705z"/><g transform="translate(694 649)"><path class="e" d="M1 1h52v16H1zM5 21v-4M49 17v4M7 6v6M11 6v6M15 6v6M19 6v6M23 6v6M1 21h52v16H1zM5 41v-4M49 37v4M7 26v6M11 26v6M15 26v6M19 26v6M23 26v6M37 29h-2M33 29h-2M29 29h-2M1 41h52v16H1zM5 64v-7M49 57v7M7 46v6M11 46v6M15 46v6M19 46v6M23 46v6"/><circle class="e" cx="3" cy="3" r="3" transform="translate(41 26)"/><path class="e" d="M37 49h-2M33 49h-2M29 49h-2"/><circle class="e" cx="3" cy="3" r="3" transform="translate(41 46)"/><path class="e" d="M37 9h-2M33 9h-2M29 9h-2"/><circle class="e" cx="3" cy="3" r="3" transform="translate(41 6)"/><path class="e" d="M8 61h38"/></g><g transform="translate(572 649)"><circle class="e" cx="5" cy="5" r="5" transform="translate(27 1)"/><circle class="e" cx="5" cy="5" r="5" transform="translate(46 8)"/><circle class="e" cx="5" cy="5" r="5" transform="translate(53 27)"/><circle class="e" cx="5" cy="5" r="5" transform="translate(46 46)"/><circle class="e" cx="5" cy="5" r="5" transform="translate(8 8)"/><circle class="e" cx="5" cy="5" r="5" transform="translate(1 27)"/><circle class="e" cx="5" cy="5" r="5" transform="translate(8 46)"/><circle class="e" cx="5" cy="5" r="5" transform="translate(27 53)"/><path class="h" d="M51 51L6 32l45-19-19 45-19-45 45 19-45 19L32 6z"/><path class="i" d="M29 28h2M33 28h2M35 32h2M31 32h2M27 32h2M33 36h2M29 36h2"/></g><g transform="translate(806 649)"><circle class="e" cx="5" cy="5" r="5" transform="translate(27 1)"/><circle class="e" cx="5" cy="5" r="5" transform="translate(46 8)"/><circle class="e" cx="5" cy="5" r="5" transform="translate(53 27)"/><circle class="e" cx="5" cy="5" r="5" transform="translate(46 46)"/><circle class="e" cx="5" cy="5" r="5" transform="translate(8 8)"/><circle class="e" cx="5" cy="5" r="5" transform="translate(1 27)"/><circle class="e" cx="5" cy="5" r="5" transform="translate(8 46)"/><circle class="e" cx="5" cy="5" r="5" transform="translate(27 53)"/><path class="h" d="M51 51L6 32l45-19-19 45-19-45 45 19-45 19L32 6z"/><path class="i" d="M29 28h2M33 28h2M35 32h2M31 32h2M27 32h2M33 36h2M29 36h2"/></g><g transform="translate(689 321)"><circle class="e" cx="3" cy="3" r="3" transform="translate(29 1)"/><circle class="e" cx="3" cy="3" r="3" transform="translate(29 57)"/><path class="e" d="M32 16V7M32 48v9"/><circle class="e" cx="3" cy="3" r="3" transform="translate(57 29)"/><circle class="e" cx="3" cy="3" r="3" transform="translate(1 29)"/><path class="e" d="M48 32h9M16 32H7"/><circle class="e" cx="21" cy="21" r="21" transform="translate(11 11)"/><path class="e" d="M59.1 39A28.025 28.025 0 0 1 39 59.1M39 4.9A28.025 28.025 0 0 1 59.1 25M4.9 25A27.681 27.681 0 0 1 24 5.2M25 59.1A28.025 28.025 0 0 1 4.9 39"/><circle class="e" cx="13" cy="13" r="13" transform="translate(19 19)"/><path class="e" d="M44 44l11 11M9 9l11 11M44 20L55 9M9 55l11-11"/><ellipse class="e" cx="5" cy="13" rx="5" ry="13" transform="translate(27 19)"/><ellipse class="e" cx="13" cy="5" rx="13" ry="5" transform="translate(19 27)"/></g><path class="e" d="M745 430l-8-8h-40v62h48z"/><path class="e" d="M745 430h-8v-8"/><path class="c" d="M705 437h32v32h-32z"/><path class="j" d="M731.666 447.667h-3.746a7.98 7.98 0 0 0-2.427-2.614l2.173-2.173-1.88-1.88-2.893 2.893a8.087 8.087 0 0 0-1.893-.227 7.891 7.891 0 0 0-1.88.227L716.213 441l-1.88 1.88 2.16 2.173a8.083 8.083 0 0 0-2.413 2.614h-3.747v2.667h2.787a8.85 8.85 0 0 0-.12 1.333V453h-2.667v2.667H713V457a8.85 8.85 0 0 0 .12 1.333h-2.787V461h3.747a7.986 7.986 0 0 0 13.84 0h3.747v-2.667h-2.787A8.851 8.851 0 0 0 729 457v-1.333h2.667V453H729v-1.333a8.851 8.851 0 0 0-.12-1.333h2.787zm-8 10.667h-5.333v-2.667h5.333zm0-5.333h-5.333v-2.668h5.333z"/><path class="k" d="M721 389v28M721 489v31"/><path class="d" d="M714.636 515.051l1.414-1.415 4.95 4.95 4.95-4.95 1.414 1.415-6.364 6.364z"/><g><path class="e" d="M600 573h-54l-4-4v-2h24l2 2h10l2-2h24v2zM600 564v-30a2.946 2.946 0 0 0-3-3h-48a2.946 2.946 0 0 0-3 3v30M568 561h2M564 561h2M572 561h2M576 561h2M580 561h2"/><path class="e" d="M562 561h-12v-26h46v26h-12"/><g class="f"><path class="v" d="M598 581.03l-.237-.059c-2.714-.662-5.2-2.354-7-4.764-1.781-2.386-2.763-5.3-2.763-8.207v-6.65l.594-.264 9-4 .406-.18.406.18 9 4 .594.264V568c0 2.906-.982 5.821-2.764 8.207-1.8 2.41-4.285 4.102-6.999 4.764l-.237.058zm1-11.04v6.45c1.093-.572 2.08-1.412 2.905-2.478a10.49 10.49 0 0 0 1.896-3.972H599zm-7-1.99h5v-6.271l-5 2.221V568z"/><path class="w" d="M598 580c5.16-1.26 9-6.45 9-12v-6l-9-4-9 4v6c0 5.55 3.84 10.74 9 12m0-19.81v8.8h7c-.53 4.12-3.28 7.79-7 8.94V569h-7v-5.7l7-3.11m0 21.869l-.474-.116c-2.939-.718-5.625-2.542-7.563-5.137-1.91-2.558-2.963-5.685-2.963-8.806v-7.3l1.188-.528 9-4 .812-.36.812.36 9 4 1.188.528v7.3c0 3.12-1.052 6.248-2.963 8.806-1.938 2.595-4.624 4.42-7.563 5.137l-.474.116zm2-11.069v3.553c.398-.351.772-.75 1.114-1.193a9.481 9.481 0 0 0 1.325-2.36H600zm-7-3.99h3v-3.733l-3 1.333v2.4z"/></g><path class="c" d="M586 558h24v24h-24z"/><path class="g" d="M591 564h7v5h-7zM598 569h5l-.183 4.714L598 575z"/></g><g><path class="e" d="M896 573h-54l-4-4v-2h24l2 2h10l2-2h24v2zM896 564v-30a2.946 2.946 0 0 0-3-3h-48a2.946 2.946 0 0 0-3 3v30M864 561h2M860 561h2M868 561h2M872 561h2M876 561h2"/><path class="e" d="M858 561h-12v-26h46v26h-12"/></g><g><path class="e" d="M752 529a2.946 2.946 0 0 0-3-3h-56a2.946 2.946 0 0 0-3 3v40a2.946 2.946 0 0 0 3 3h56a2.946 2.946 0 0 0 3-3zM727 572l2 10M713 582l2-10M708 582h26M720 568h2M720 558h2M724 558h2M728 558h2M716 558h2M712 558h2"/><path class="e" d="M694 530h54v34h-54z"/></g><g><path class="l" d="M680 552h-71"/><g class="m"><path class="v" d="M608.5 551.914l5.656-5.657.708.707-4.596 4.596-.354.354.354.354 4.596 4.596-.707.707-5.658-5.657z"/><path class="x" d="M609.207 551.914l4.95 4.95-4.243-4.243-.707-.707.707-.707 4.243-4.243-4.95 4.95m-1.415 0l6.364-6.364 1.415 1.414-4.95 4.95 4.95 4.95-1.415 1.414-6.364-6.364z"/></g><g class="m"><path class="v" d="M681.865 551.964l-5.657 5.657-.708-.707 4.596-4.596.354-.354-.354-.354-4.596-4.596.707-.707 5.658 5.657z"/><path class="x" d="M681.157 551.964l-4.95-4.95 4.243 4.243.707.707-.707.707-4.243 4.243 4.95-4.95m1.415 0l-6.364 6.364-1.415-1.414 4.95-4.95-4.95-4.95 1.415-1.414 6.364 6.364z"/></g></g><g><path class="l" d="M831.597 552h-71"/><g class="m"><path class="v" d="M760.096 551.914l5.657-5.657.708.707-4.596 4.596-.354.354.354.354 4.596 4.596-.707.707-5.658-5.657z"/><path class="x" d="M760.804 551.914l4.95 4.95-4.243-4.243-.707-.707.707-.707 4.243-4.243-4.95 4.95m-1.415 0l6.364-6.364 1.415 1.414-4.95 4.95 4.95 4.95-1.415 1.414-6.364-6.364z"/></g><g class="m"><path class="v" d="M833.462 551.964l-5.657 5.657-.708-.707 4.596-4.596.354-.354-.354-.354-4.596-4.596.707-.707 5.658 5.657z"/><path class="x" d="M832.754 551.964l-4.95-4.95 4.243 4.243.707.707-.707.707-4.243 4.243 4.95-4.95m1.415 0l-6.364 6.364-1.415-1.414 4.95-4.95-4.95-4.95 1.415-1.414 6.364 6.364z"/></g></g><g><path class="e" d="M748 834h-54l-4-4v-2h24l2 2h10l2-2h24v2zM748 825v-30a2.946 2.946 0 0 0-3-3h-48a2.946 2.946 0 0 0-3 3v30M716 822h2M712 822h2M720 822h2M724 822h2M728 822h2"/><path class="e" d="M710 822h-12v-26h46v26h-12"/><g class="f"><path class="v" d="M746 842.03l-.237-.059c-2.714-.662-5.2-2.354-7-4.764-1.781-2.386-2.763-5.3-2.763-8.207v-6.65l.594-.264 9-4 .406-.18.406.18 9 4 .594.264V829c0 2.906-.982 5.821-2.764 8.207-1.8 2.41-4.285 4.102-6.999 4.764l-.237.058zm1-11.04v6.45c1.093-.572 2.08-1.412 2.905-2.478a10.49 10.49 0 0 0 1.896-3.972H747zm-7-1.99h5v-6.271l-5 2.221V829z"/><path class="w" d="M746 841c5.16-1.26 9-6.45 9-12v-6l-9-4-9 4v6c0 5.55 3.84 10.74 9 12m0-19.81v8.8h7c-.53 4.12-3.28 7.79-7 8.94V830h-7v-5.7l7-3.11m0 21.869l-.474-.116c-2.939-.718-5.625-2.542-7.563-5.137-1.91-2.558-2.963-5.685-2.963-8.806v-7.3l1.188-.528 9-4 .812-.36.812.36 9 4 1.188.528v7.3c0 3.12-1.052 6.248-2.963 8.806-1.938 2.595-4.624 4.42-7.563 5.137l-.474.116zm2-11.069v3.553c.398-.351.772-.75 1.114-1.193a9.481 9.481 0 0 0 1.325-2.36H748zm-7-3.99h3v-3.733l-3 1.333v2.4z"/></g><path class="c" d="M734 819h24v24h-24z"/><path class="g" d="M739 825h7v5h-7zM746 830h5l-.183 4.714L746 836z"/></g><g><path class="e" d="M587 840v-52a4.951 4.951 0 0 0-5-5h-26a4.951 4.951 0 0 0-5 5v52a4.951 4.951 0 0 0 5 5h26a4.951 4.951 0 0 0 5-5z"/><path class="e" d="M555 793h28v44h-28zM567 841h4M564 788h-2M566 788h10M560 831h2M564 831h2M568 831h2M572 831h2M576 831h2M560 799h2M564 799h2M568 799h2M572 799h2M576 799h2M560 804h2M564 804h2M568 804h2M572 804h2M576 804h2M560 809h2M564 809h2M568 809h2M572 809h2M576 809h2M560 814h2M564 814h2M568 814h2M572 814h2M576 814h2M560 819h2M564 819h2M568 819h2"/></g><g><path class="e" d="M891 840v-52a4.951 4.951 0 0 0-5-5h-26a4.951 4.951 0 0 0-5 5v52a4.951 4.951 0 0 0 5 5h26a4.951 4.951 0 0 0 5-5z"/><path class="e" d="M859 793h28v44h-28zM871 841h4M868 788h-2M870 788h10M864 831h2M868 831h2M872 831h2M876 831h2M880 831h2M864 799h2M868 799h2M872 799h2M876 799h2M880 799h2M864 804h2M868 804h2M872 804h2M876 804h2M880 804h2M864 809h2M868 809h2M872 809h2M876 809h2M880 809h2M864 814h2M868 814h2M872 814h2M876 814h2M880 814h2M864 819h2M868 819h2M872 819h2"/></g><g><path class="l" d="M681 814h-82"/><g class="m"><path class="v" d="M597.5 813.914l5.656-5.657.708.707-4.596 4.596-.354.354.354.354 4.596 4.596-.707.707-5.658-5.657z"/><path class="x" d="M598.207 813.914l4.95 4.95-4.243-4.243-.707-.707.707-.707 4.243-4.243-4.95 4.95m-1.415 0l6.364-6.364 1.415 1.414-4.95 4.95 4.95 4.95-1.415 1.414-6.364-6.364z"/></g><g class="m"><path class="v" d="M682.865 813.964l-5.657 5.657-.708-.707 4.596-4.596.354-.354-.354-.354-4.596-4.596.707-.707 5.658 5.657z"/><path class="x" d="M682.157 813.964l-4.95-4.95 4.243 4.243.707.707-.707.707-4.243 4.243 4.95-4.95m1.415 0l-6.364 6.364-1.415-1.414 4.95-4.95-4.95-4.95 1.415-1.414 6.364 6.364z"/></g></g><g><path class="l" d="M842.5 814h-82"/><g class="m"><path class="v" d="M759.096 813.914l5.657-5.657.708.707-4.596 4.596-.354.354.354.354 4.596 4.596-.707.707-5.658-5.657z"/><path class="x" d="M759.804 813.914l4.95 4.95-4.243-4.243-.707-.707.707-.707 4.243-4.243-4.95 4.95m-1.415 0l6.364-6.364 1.415 1.414-4.95 4.95 4.95 4.95-1.415 1.414-6.364-6.364z"/></g><g class="m"><path class="v" d="M844.462 813.964l-5.657 5.657-.708-.707 4.596-4.596.354-.354-.354-.354-4.596-4.596.707-.707 5.658 5.657z"/><path class="x" d="M843.754 813.964l-4.95-4.95 4.243 4.243.707.707-.707.707-4.243 4.243 4.95-4.95m1.415 0l-6.364 6.364-1.415-1.414 4.95-4.95-4.95-4.95 1.415-1.414 6.364 6.364z"/></g></g><g><path class="l" d="M795.5 681h-36.903"/><g class="m"><path class="v" d="M757.096 680.914l5.657-5.657.708.707-4.596 4.596-.354.354.354.354 4.596 4.596-.707.707-5.658-5.657z"/><path class="x" d="M757.804 680.914l4.95 4.95-4.243-4.243-.707-.707.707-.707 4.243-4.243-4.95 4.95m-1.415 0l6.364-6.364 1.415 1.414-4.95 4.95 4.95 4.95-1.415 1.414-6.364-6.364z"/></g><g class="m"><path class="v" d="M797.462 680.964l-5.657 5.657-.708-.707 4.596-4.596.354-.354-.354-.354-4.596-4.596.707-.707 5.658 5.657z"/><path class="x" d="M796.754 680.964l-4.95-4.95 4.243 4.243.707.707-.707.707-4.243 4.243 4.95-4.95m1.415 0l-6.364 6.364-1.415-1.414 4.95-4.95-4.95-4.95 1.415-1.414 6.364 6.364z"/></g></g><g><path class="l" d="M561.5 681h-78"/><g class="m"><path class="v" d="M483.096 680.914l5.657-5.657.708.707-4.596 4.596-.354.354.354.354 4.596 4.596-.707.707-5.658-5.657z"/><path class="x" d="M483.804 680.914l4.95 4.95-4.243-4.243-.707-.707.707-.707 4.243-4.243-4.95 4.95m-1.415 0l6.364-6.364 1.415 1.414-4.95 4.95 4.95 4.95-1.415 1.414-6.364-6.364z"/></g><g class="m"><path class="v" d="M563.472 680.964l-5.657 5.657-.708-.707 4.596-4.596.354-.354-.354-.354-4.596-4.596.707-.707 5.658 5.657z"/><path class="x" d="M562.764 680.964l-4.95-4.95 4.243 4.243.707.707-.707.707-4.243 4.243 4.95-4.95m1.415 0l-6.364 6.364-1.415-1.414 4.95-4.95-4.95-4.95 1.415-1.414 6.364 6.364z"/></g></g><g><path class="n" d="M682.9 681h-36.903"/><path class="o" d="M650.153 674.55l1.415 1.414-4.95 4.95 4.95 4.95-1.415 1.414-6.364-6.364zM679.205 687.328l-1.415-1.414 4.95-4.95-4.95-4.95 1.415-1.414 6.364 6.364z"/></g><g><path class="l" d="M807.28 713.03l-70.625 70.625"/><g class="m"><path class="v" d="M735.921 784.267v-8h1v7h7v1h-8z"/><path class="x" d="M736.421 783.766h7-7v-7 7m-1 1v-9h2v7h7v2h-9z"/></g><g class="m"><path class="v" d="M808.648 711.61v8l-1 .001v-7h-7v-1h8z"/><path class="x" d="M808.148 712.11h-7 7v7.001-7m1-1v9h-2v-7h-7v-2h9z"/></g></g><g><path class="p" d="M683.28 579.03L616.5 645.5"/><path class="q" d="M615.421 637.767l2-.001v7h7v2h-9zM685.148 586.11l-2 .001v-7h-7v-2h9z"/></g><path class="r" d="M442.414 742l71.56 71.56-1.415 1.413-71.56-71.559zM442 721.414l-4.95 4.949-1.414-1.414 6.364-6.364 6.364 6.364-1.414 1.414z"/><path class="r" d="M441 721h2v22.4h-2zM540 813v2h-27.43v-2z"/><path class="r" d="M534.636 818.95l4.95-4.95-4.95-4.949 1.414-1.415 6.364 6.364-6.364 6.363z"/><g><path class="r" d="M990.973 743.414l-71.56 71.56-1.413-1.415 71.559-71.56zM990 715.414l-4.95 4.949-1.414-1.414 6.364-6.364 6.364 6.364-1.414 1.414z"/><path class="r" d="M989 715h2v28.4h-2zM919.4 813v2h-17.6v-2z"/><path class="r" d="M907.414 809.049l-4.95 4.95 4.95 4.949-1.414 1.415-6.364-6.364 6.364-6.363z"/></g><g><path class="r" d="M869.973 642.414l-7.212 7.212-1.415-1.414L868.56 641zM869 582.414l-4.95 4.949-1.414-1.414 6.364-6.364 6.364 6.364-1.414 1.414z"/><path class="r" d="M868 582h2v60.4h-2zM862.5 641.5v7h7v2h-9v-9z"/></g><g><path class="r" d="M441.027 622.535l71.56-71.56L514 552.39l-71.559 71.56zM442 642.535l4.95-4.949 1.414 1.414-6.364 6.364-6.364-6.364 1.414-1.414z"/><path class="r" d="M443 642.949h-2v-20.4h2zM512.6 552.949v-2h22.6v2z"/><path class="r" d="M529.586 556.9l4.95-4.95-4.95-4.949 1.414-1.415 6.364 6.364-6.364 6.363z"/></g><g><path class="r" d="M918.94 551.04l72.054 72.054-1.414 1.414-72.054-72.054zM906.94 552.013l4.949 4.95-1.414 1.414-6.364-6.364 6.364-6.364 1.414 1.414z"/><path class="r" d="M906.526 553.013v-2h12.4v2zM989 623.1h2v28.8h-2z"/><path class="r" d="M985.064 646.06l4.95 4.95 4.949-4.95 1.415 1.414-6.364 6.364-6.363-6.364z"/></g><path class="d" d="M801.142 475.444l1.414 1.414-60.104 60.104-1.414-1.414z"/><circle class="d" cx="5.5" cy="5.5" r="5.5" transform="translate(733 534)"/><circle class="s" cx="5.5" cy="5.5" r="5.5" transform="rotate(-90 628.278 45.722)"/><path class="t" d="M445.703 527.561l1.414-1.414 139.3 139.3-1.414 1.414z"/><g><g class="u" transform="translate(397 478)"><rect class="v" width="52" height="52" rx="8"/><rect class="c" x="1" y="1" width="50" height="50" rx="7"/></g><path class="c" d="M407 488h32v32h-32z"/><path class="q" d="M433.666 498.667h-3.746a7.98 7.98 0 0 0-2.427-2.614l2.173-2.173-1.88-1.88-2.893 2.893a8.087 8.087 0 0 0-1.893-.227 7.891 7.891 0 0 0-1.88.227L418.213 492l-1.88 1.88 2.16 2.173a8.083 8.083 0 0 0-2.413 2.614h-3.747v2.667h2.787a8.85 8.85 0 0 0-.12 1.333V504h-2.667v2.667H415V508a8.85 8.85 0 0 0 .12 1.333h-2.787V512h3.747a7.986 7.986 0 0 0 13.84 0h3.747v-2.667h-2.787A8.851 8.851 0 0 0 431 508v-1.333h2.667V504H431v-1.333a8.851 8.851 0 0 0-.12-1.333h2.787zm-8 10.667h-5.333v-2.667h5.333zm0-5.333h-5.333v-2.668h5.333z"/></g></g></svg>