<svg xmlns="http://www.w3.org/2000/svg" viewBox="13512.078 293.358 318.257 247.38"><defs><style>.a{fill:#1cb9df}.b,.d{fill:#fff}.b{font-size:13px;font-family:SFUIDisplay-Bold,SF UI Display;font-weight:700;letter-spacing:.04em}.c,.d{stroke:none}</style></defs><g class="a"><path class="c" d="M13652.658 334.23l-.747-.431-13.425-7.751-.752-.434.002-.869.04-15.455.002-.86.745-.433 13.364-7.762.75-.436.753.434 13.425 7.751.747.431.003.863.061 15.512.004.874-.759.434-13.465 7.704-.748.428z"/><path class="d" d="M13652.661 332.5l13.465-7.704-.06-15.513-13.426-7.75-13.364 7.761-.04 15.455 13.425 7.751m-.007 3.46l-1.493-.862-13.425-7.751-1.504-.869.004-1.737.04-15.454.004-1.722 1.49-.865 13.363-7.762 1.503-.872 1.504.868 13.425 7.751 1.494.862.006 1.725.061 15.513.007 1.747-1.517.868-13.465 7.704-1.497.856z"/></g><text class="b" transform="translate(13652.302 321.863)"><tspan x="-3.12" y="0">1</tspan></text><g class="a"><path class="c" d="M13805.658 334.23l-.747-.431-13.425-7.751-.752-.434.002-.869.04-15.455.002-.86.745-.433 13.364-7.762.75-.436.753.434 13.425 7.751.747.431.003.863.061 15.512.004.874-.759.434-13.465 7.704-.748.428z"/><path class="d" d="M13805.661 332.5l13.465-7.704-.06-15.513-13.426-7.75-13.364 7.761-.04 15.455 13.425 7.751m-.007 3.46l-1.493-.862-13.425-7.751-1.504-.869.004-1.737.04-15.454.004-1.722 1.49-.865 13.363-7.762 1.503-.872 1.504.868 13.425 7.751 1.494.862.006 1.725.061 15.513.007 1.747-1.517.868-13.465 7.704-1.497.856z"/></g><text class="b" transform="translate(13805.302 321.863)"><tspan x="-3.92" y="0">2</tspan></text><g><g class="a"><path class="c" d="M13536.658 534.23l-.747-.431-13.425-7.751-.752-.434.002-.869.04-15.455.002-.86.745-.433 13.364-7.762.75-.436.753.434 13.425 7.751.747.431.003.863.061 15.512.004.874-.759.434-13.465 7.704-.748.428z"/><path class="d" d="M13536.661 532.5l13.465-7.704-.06-15.513-13.426-7.75-13.364 7.761-.04 15.455 13.425 7.751m-.007 3.46l-1.493-.862-13.425-7.751-1.504-.869.004-1.737.04-15.454.004-1.722 1.49-.865 13.363-7.762 1.503-.872 1.504.868 13.425 7.751 1.494.862.006 1.725.061 15.513.007 1.747-1.517.868-13.465 7.704-1.497.856z"/></g><text class="b" transform="translate(13536.302 521.863)"><tspan x="-4.094" y="0">3</tspan></text></g><g><g class="a"><path class="c" d="M13703.658 534.23l-.747-.431-13.425-7.751-.752-.434.002-.869.04-15.455.002-.86.745-.433 13.364-7.762.75-.436.753.434 13.425 7.751.747.431.003.863.061 15.512.004.874-.759.434-13.465 7.704-.748.428z"/><path class="d" d="M13703.661 532.5l13.465-7.704-.06-15.513-13.426-7.75-13.364 7.761-.04 15.455 13.425 7.751m-.007 3.46l-1.493-.862-13.425-7.751-1.504-.869.004-1.737.04-15.454.004-1.722 1.49-.865 13.363-7.762 1.503-.872 1.504.868 13.425 7.751 1.494.862.006 1.725.061 15.513.007 1.747-1.517.868-13.465 7.704-1.497.856z"/></g><text class="b" transform="translate(13703.302 521.863)"><tspan x="-4.212" y="0">4</tspan></text></g></svg>