<svg id="SVGDoc" width="510" height="482" xmlns="http://www.w3.org/2000/svg" version="1.1" xmlns:xlink="http://www.w3.org/1999/xlink" xmlns:avocode="https://avocode.com/" viewBox="0 0 510 482"><defs><path d="M857.99948,7494.00015c-16.28777,0 -32.56134,-1.64059 -48.36874,-4.87625c-15.4072,-3.1524 -30.56467,-7.85736 -45.0513,-13.98416c-14.22241,-6.01584 -27.93854,-13.46085 -40.7673,-22.1283c-12.71417,-8.59088 -24.66434,-18.45078 -35.51846,-29.30582c-10.8623,-10.8623 -20.72217,-22.81277 -29.30576,-35.51944c-8.66577,-12.82562 -16.11078,-26.54205 -22.1283,-40.76816c-6.12637,-14.48447 -10.83136,-29.6416 -13.98425,-45.05042c-3.23505,-15.80618 -4.87534,-32.07947 -4.87534,-48.36783c0,-16.28799 1.64029,-32.56158 4.87534,-48.3687c3.15454,-15.41336 7.85947,-30.57048 13.98425,-45.05035c6.01706,-14.22435 13.46204,-27.94048 22.1283,-40.7673c8.58533,-12.70847 18.44522,-24.65894 29.30576,-35.51942c10.85916,-10.85912 22.80936,-20.71906 35.51846,-29.30582c12.82965,-8.66647 26.54578,-16.11147 40.7673,-22.12829c14.47757,-6.12341 29.63498,-10.82841 45.0513,-13.98418c15.81046,-3.23506 32.08405,-4.87535 48.36874,-4.87535c16.28354,0 32.55647,1.64029 48.36688,4.87535c15.40683,3.15312 30.56424,7.85812 45.0513,13.98418c14.21912,6.01506 27.93553,13.46006 40.76823,22.12829c12.70571,8.58453 24.65618,18.44441 35.51941,29.30582c0.28635,0.28653 0.57277,0.57459 0.85888,0.86377l-14.28818,14.14388c-41.12018,-41.5 -98.08029,-65.30147 -156.27654,-65.30147c-121.30817,0 -219.99957,98.69141 -219.99957,219.99959c0,121.30872 98.69141,220.00052 219.99957,220.00052c91.69624,0 174.65165,-57.81775 206.42395,-143.87216l18.80982,6.93701c-1.28788,3.49298 -2.66547,6.97574 -4.09388,10.35287c-6.01741,14.22357 -13.46241,27.94 -22.12829,40.76816c-8.58706,12.7092 -18.44694,24.65967 -29.30577,35.51944c-10.86071,10.85974 -22.81118,20.71964 -35.51941,29.30582c-12.82671,8.66571 -26.54311,16.11069 -40.76823,22.1283c-14.48706,6.12692 -29.64447,10.83194 -45.0513,13.98416c-15.8074,3.23566 -32.08035,4.87625 -48.36688,4.87625z" id="Path-0"/><path d="M1120.14423,7318.9119l-0.00098,-0.00024l-19.44511,-4.81494c1.97621,-7.98056 3.57379,-16.16064 4.74763,-24.31427l19.80594,2.86404c-0.75589,5.28137 -1.67717,10.58603 -2.73743,15.76773c-0.71489,3.49304 -1.51219,7.02463 -2.36981,10.4967z" id="Path-1"/><path d="M1125.25105,7292.65112l-0.00084,-0.0011l-19.80493,-2.8642c1.69429,-11.76868 2.5538,-23.80862 2.5538,-35.78653c0,-3.93729 -0.09338,-7.92557 -0.27757,-11.85403l19.97795,-0.94839c0.19963,4.25598 0.30031,8.56302 0.30031,12.80243c0,12.90494 -0.92476,25.90897 -2.74858,38.65082z" id="Path-2"/><path d="M1107.72107,7242.13605c-1.23488,-26.28418 -6.56778,-52.02582 -15.85056,-76.50987l18.76547,-7.09102c5.0345,13.32381 9.0305,27.13487 11.87828,41.05016c2.78299,13.60109 4.52737,27.59789 5.18472,41.60158l-19.97691,0.94913z" id="Path-3"/><path d="M1091.86786,7165.61911l-0.00023,-0.00058c-9.41206,-24.82506 -22.70084,-47.93175 -39.49693,-68.67757l15.64244,-12.6396c4.88631,6.03915 9.5538,12.34386 13.87421,18.73914c9.75017,14.4313 18.12573,29.86188 24.89404,45.86313c1.33809,3.1635 2.63399,6.40146 3.85173,9.62393l-18.76434,7.09122z" id="Path-4"/><path d="M954.19373,7495.62421l-0.00037,-0.00092l-0.752,-1.88892c7.38002,-2.94818 14.71893,-6.28522 21.81342,-9.9198l0.9331,1.82886c-5.56044,2.84351 -11.27522,5.50928 -16.98601,7.92468c-1.64976,0.69775 -3.33443,1.3894 -5.00721,2.05573z" id="Path-5"/><path d="M976.16241,7485.65643l-0.00045,-0.00092l-0.93243,-1.828c7.34398,-3.76147 14.59588,-7.9281 21.55469,-12.38544l1.11554,1.74774c-7.01218,4.48334 -14.32528,8.67706 -21.73645,12.46619z" id="Path-6"/><path d="M997.85594,7473.21783l-0.00054,-0.00085l-1.11463,-1.74707c9.62989,-6.16571 18.94793,-13.04376 27.69557,-20.4444l1.34693,1.59454c-7.15632,6.05066 -14.69832,11.7619 -22.41661,16.97656c-1.81267,1.22449 -3.66646,2.44269 -5.50988,3.62067z" id="Path-7"/><path d="M1025.75005,7452.64807l-0.00064,-0.00073l-1.34601,-1.59393c16.04813,-13.57452 30.42717,-29.08011 42.73782,-46.08746l1.68759,1.2182c-8.12312,11.23001 -17.20146,21.88287 -26.98264,31.66406c-5.12286,5.12286 -10.53811,10.10202 -16.09535,14.79919z" id="Path-8"/><path d="M1068.82117,7406.19464l-0.00082,-0.00058l-1.68671,-1.21765c13.71374,-18.94202 24.77447,-39.61261 32.87474,-61.43906l1.90057,0.70316c-1.36301,3.68488 -2.82436,7.37305 -4.34289,10.96341c-6.51478,15.40329 -14.57995,30.26248 -23.97149,44.16479c-1.54448,2.28601 -3.15029,4.58231 -4.77282,6.8251z" id="Path-9"/></defs><desc>Generated with Avocode.</desc><g transform="matrix(1,0,0,1,-618,-7014)"><g><title>pie</title><g><title>85%</title><g><title>Subtraction 1</title><use xlink:href="#Path-0" fill="#343a40" fill-opacity="1"/></g></g><g><title>15%</title><g><title>bg</title><use xlink:href="#Path-1" fill="#00ccff" fill-opacity="1"/></g><g><title>3%</title><use xlink:href="#Path-2" fill="#219fbf" fill-opacity="1"/></g><g><title>5%</title><use xlink:href="#Path-3" fill="#18829c" fill-opacity="1"/></g><g><title>5%</title><use xlink:href="#Path-4" fill="#166072" fill-opacity="1"/></g></g><g><title>bounties</title><g><title>10%</title><use xlink:href="#Path-5" fill="#00ccff" fill-opacity="1"/></g><g><title>10%</title><use xlink:href="#Path-6" fill="#219fbf" fill-opacity="1"/></g><g><title>15%</title><use xlink:href="#Path-7" fill="#18829c" fill-opacity="1"/></g><g><title>30%</title><use xlink:href="#Path-8" fill="#166072" fill-opacity="1"/></g><g><title>35%</title><use xlink:href="#Path-9" fill="#19434e" fill-opacity="1"/></g></g></g></g></svg>