<svg xmlns="http://www.w3.org/2000/svg" viewBox="3705 26 42.375 42.312"><defs><style>.a{fill:red;}.b{fill:#0cf;}.c{fill:#1ea84c;}.d{fill:#fff;}</style></defs><g transform="translate(3705 26)"><path class="a" d="M37.141,11.522a.5.5,0,0,1-.5-.5V6.17l-8.815-5.1-8.815,5.1v4.911a.5.5,0,0,1-.5.5.463.463,0,0,1-.5-.5V5.6L27.822,0l9.759,5.6v5.478A.43.43,0,0,1,37.141,11.522Z" transform="translate(-6.666)"/><path class="b" d="M9.759,55.719,0,50.115V38.844l4.533-2.582a.465.465,0,0,1,.441.819l-4.03,2.33v10.2l8.815,5.1,4.282-2.456a.465.465,0,0,1,.441.819Z" transform="translate(0 -13.407)"/><path class="c" d="M48.615,55.719,43.452,52.7a.45.45,0,0,1-.189-.63.51.51,0,0,1,.63-.189l4.722,2.707,8.815-5.1V39.411l-4.03-2.33a.465.465,0,0,1,.441-.819l4.533,2.582V50.115Z" transform="translate(-16 -13.407)"/><g transform="translate(2.456 2.833)"><path class="d" d="M29.3,21.374,22,17.156V8.719L29.3,4.5l7.3,4.219v8.437ZM25.211,15.33l4.156,2.393,4.156-2.393V10.545L29.367,8.152l-4.156,2.393Zm9.822.881Z" transform="translate(-10.604 -4.5)"/><path class="d" d="M20.3,37.074,13,32.856V24.419L20.3,20.2l7.3,4.219v8.437ZM16.148,31.03,20.3,33.422l4.156-2.393V26.245L20.3,23.852l-4.156,2.393Zm9.822.944Z" transform="translate(-7.27 -10.315)"/><path class="d" d="M38.4,37.074l-7.3-4.219V24.419L38.4,20.2l7.3,4.219v8.437ZM34.248,31.03,38.4,33.422l4.156-2.393V26.245L38.4,23.852l-4.156,2.393V31.03Zm9.885.944Z" transform="translate(-13.974 -10.315)"/><path class="d" d="M11.2,52.811,3.9,48.593V40.219L11.2,36l7.3,4.219v8.374ZM7.048,46.767,11.2,49.159l4.156-2.393V41.982L11.2,39.589,7.048,41.982Zm9.885.944Z" transform="translate(-3.9 -16.166)"/><path class="d" d="M29.341,52.811,22.1,48.593V40.219L29.341,36l7.3,4.219v8.374Zm-4.093-6.045L29.4,49.159l4.156-2.393V41.982L29.4,39.589l-4.156,2.393Zm9.822.944Z" transform="translate(-10.641 -16.166)"/><path class="d" d="M47.5,52.811l-7.3-4.219V40.219L47.5,36l7.3,4.219v8.374Zm-4.156-6.045L47.5,49.159l4.156-2.393V41.982L47.5,39.589l-4.156,2.393Zm9.885.944Z" transform="translate(-17.344 -16.166)"/></g></g></svg>