<svg id="SVGDoc" width="898" height="21" xmlns="http://www.w3.org/2000/svg" version="1.1" xmlns:xlink="http://www.w3.org/1999/xlink" xmlns:avocode="https://avocode.com/" viewBox="0 0 898 21"><defs><path d="M511,2030v-20h2v20z" id="Path-0"/><path d="M530.99997,2020v-10h1v10z" id="Path-1"/><path d="M549.00003,2020v-10h1v10z" id="Path-2"/><path d="M568,2020v-10h1v10z" id="Path-3"/><path d="M585.99997,2020v-10h1v10z" id="Path-4"/><path d="M605.00003,2020v-10h1v10z" id="Path-5"/><path d="M624,2019v-10h1v10z" id="Path-6"/><path d="M641.99997,2020v-10h1v10z" id="Path-7"/><path d="M661.00003,2020v-10h1v10z" id="Path-8"/><path d="M679,2020v-10h1v10z" id="Path-9"/><path d="M697.99997,2020v-10h1v10z" id="Path-10"/><path d="M716.00003,2020v-10h1v10z" id="Path-11"/><path d="M735,2030v-20h2v20z" id="Path-12"/><path d="M755,2020v-10h1v10z" id="Path-13"/><path d="M773,2020v-10h1v10z" id="Path-14"/><path d="M792,2020v-10h1v10z" id="Path-15"/><path d="M810,2020v-10h1v10z" id="Path-16"/><path d="M829,2020v-10h1v10z" id="Path-17"/><path d="M848,2019v-10h1v10z" id="Path-18"/><path d="M866,2020v-10h1v10z" id="Path-19"/><path d="M885,2020v-10h1v10z" id="Path-20"/><path d="M903,2020v-10h1v10z" id="Path-21"/><path d="M922,2020v-10h1v10z" id="Path-22"/><path d="M940,2020v-10h1v10z" id="Path-23"/><path d="M959,2030v-20h2v20z" id="Path-24"/><path d="M979,2020v-10h1v10z" id="Path-25"/><path d="M997,2020v-10h1v10z" id="Path-26"/><path d="M1016,2020v-10h1v10z" id="Path-27"/><path d="M1034,2020v-10h1v10z" id="Path-28"/><path d="M1053,2020v-10h1v10z" id="Path-29"/><path d="M1072,2019v-10h1v10z" id="Path-30"/><path d="M1090,2020v-10h1v10z" id="Path-31"/><path d="M1109,2020v-10h1v10z" id="Path-32"/><path d="M1127,2020v-10h1v10z" id="Path-33"/><path d="M1146,2020v-10h1v10z" id="Path-34"/><path d="M1164,2020v-10h1v10z" id="Path-35"/><path d="M1183,2030v-20h2v20z" id="Path-36"/><path d="M1203,2020v-10h1v10z" id="Path-37"/><path d="M1221,2020v-10h1v10z" id="Path-38"/><path d="M1240,2020v-10h1v10z" id="Path-39"/><path d="M1258,2020v-10h1v10z" id="Path-40"/><path d="M1277,2020v-10h1v10z" id="Path-41"/><path d="M1296,2019v-10h1v10z" id="Path-42"/><path d="M1314,2020v-10h1v10z" id="Path-43"/><path d="M1333,2020v-10h1v10z" id="Path-44"/><path d="M1351,2020v-10h1v10z" id="Path-45"/><path d="M1370,2020v-10h1v10z" id="Path-46"/><path d="M1388,2020v-10h1v10z" id="Path-47"/><path d="M1407,2030v-20h2v20z" id="Path-48"/></defs><desc>Generated with Avocode.</desc><g transform="matrix(1,0,0,1,-511,-2009)"><g><title>ruller</title><g><title>Rectangle 20</title><use xlink:href="#Path-0" fill="#ced4da" fill-opacity="1"/></g><g><title>Rectangle 24</title><use xlink:href="#Path-1" fill="#ced4da" fill-opacity="1"/></g><g><title>Rectangle 25</title><use xlink:href="#Path-2" fill="#ced4da" fill-opacity="1"/></g><g><title>Rectangle 26</title><use xlink:href="#Path-3" fill="#ced4da" fill-opacity="1"/></g><g><title>Rectangle 27</title><use xlink:href="#Path-4" fill="#ced4da" fill-opacity="1"/></g><g><title>Rectangle 28</title><use xlink:href="#Path-5" fill="#ced4da" fill-opacity="1"/></g><g><title>Rectangle 29</title><use xlink:href="#Path-6" fill="#ced4da" fill-opacity="1"/></g><g><title>Rectangle 30</title><use xlink:href="#Path-7" fill="#ced4da" fill-opacity="1"/></g><g><title>Rectangle 31</title><use xlink:href="#Path-8" fill="#ced4da" fill-opacity="1"/></g><g><title>Rectangle 32</title><use xlink:href="#Path-9" fill="#ced4da" fill-opacity="1"/></g><g><title>Rectangle 33</title><use xlink:href="#Path-10" fill="#ced4da" fill-opacity="1"/></g><g><title>Rectangle 34</title><use xlink:href="#Path-11" fill="#ced4da" fill-opacity="1"/></g><g><title>Rectangle 20</title><use xlink:href="#Path-12" fill="#ced4da" fill-opacity="1"/></g><g><title>Rectangle 24</title><use xlink:href="#Path-13" fill="#ced4da" fill-opacity="1"/></g><g><title>Rectangle 25</title><use xlink:href="#Path-14" fill="#ced4da" fill-opacity="1"/></g><g><title>Rectangle 26</title><use xlink:href="#Path-15" fill="#ced4da" fill-opacity="1"/></g><g><title>Rectangle 27</title><use xlink:href="#Path-16" fill="#ced4da" fill-opacity="1"/></g><g><title>Rectangle 28</title><use xlink:href="#Path-17" fill="#ced4da" fill-opacity="1"/></g><g><title>Rectangle 29</title><use xlink:href="#Path-18" fill="#ced4da" fill-opacity="1"/></g><g><title>Rectangle 30</title><use xlink:href="#Path-19" fill="#ced4da" fill-opacity="1"/></g><g><title>Rectangle 31</title><use xlink:href="#Path-20" fill="#ced4da" fill-opacity="1"/></g><g><title>Rectangle 32</title><use xlink:href="#Path-21" fill="#ced4da" fill-opacity="1"/></g><g><title>Rectangle 33</title><use xlink:href="#Path-22" fill="#ced4da" fill-opacity="1"/></g><g><title>Rectangle 34</title><use xlink:href="#Path-23" fill="#ced4da" fill-opacity="1"/></g><g><title>Rectangle 20</title><use xlink:href="#Path-24" fill="#ced4da" fill-opacity="1"/></g><g><title>Rectangle 24</title><use xlink:href="#Path-25" fill="#ced4da" fill-opacity="1"/></g><g><title>Rectangle 25</title><use xlink:href="#Path-26" fill="#ced4da" fill-opacity="1"/></g><g><title>Rectangle 26</title><use xlink:href="#Path-27" fill="#ced4da" fill-opacity="1"/></g><g><title>Rectangle 27</title><use xlink:href="#Path-28" fill="#ced4da" fill-opacity="1"/></g><g><title>Rectangle 28</title><use xlink:href="#Path-29" fill="#ced4da" fill-opacity="1"/></g><g><title>Rectangle 29</title><use xlink:href="#Path-30" fill="#ced4da" fill-opacity="1"/></g><g><title>Rectangle 30</title><use xlink:href="#Path-31" fill="#ced4da" fill-opacity="1"/></g><g><title>Rectangle 31</title><use xlink:href="#Path-32" fill="#ced4da" fill-opacity="1"/></g><g><title>Rectangle 32</title><use xlink:href="#Path-33" fill="#ced4da" fill-opacity="1"/></g><g><title>Rectangle 33</title><use xlink:href="#Path-34" fill="#ced4da" fill-opacity="1"/></g><g><title>Rectangle 34</title><use xlink:href="#Path-35" fill="#ced4da" fill-opacity="1"/></g><g><title>Rectangle 20</title><use xlink:href="#Path-36" fill="#ced4da" fill-opacity="1"/></g><g><title>Rectangle 24</title><use xlink:href="#Path-37" fill="#ced4da" fill-opacity="1"/></g><g><title>Rectangle 25</title><use xlink:href="#Path-38" fill="#ced4da" fill-opacity="1"/></g><g><title>Rectangle 26</title><use xlink:href="#Path-39" fill="#ced4da" fill-opacity="1"/></g><g><title>Rectangle 27</title><use xlink:href="#Path-40" fill="#ced4da" fill-opacity="1"/></g><g><title>Rectangle 28</title><use xlink:href="#Path-41" fill="#ced4da" fill-opacity="1"/></g><g><title>Rectangle 29</title><use xlink:href="#Path-42" fill="#ced4da" fill-opacity="1"/></g><g><title>Rectangle 30</title><use xlink:href="#Path-43" fill="#ced4da" fill-opacity="1"/></g><g><title>Rectangle 31</title><use xlink:href="#Path-44" fill="#ced4da" fill-opacity="1"/></g><g><title>Rectangle 32</title><use xlink:href="#Path-45" fill="#ced4da" fill-opacity="1"/></g><g><title>Rectangle 33</title><use xlink:href="#Path-46" fill="#ced4da" fill-opacity="1"/></g><g><title>Rectangle 34</title><use xlink:href="#Path-47" fill="#ced4da" fill-opacity="1"/></g><g><title>Rectangle 23</title><use xlink:href="#Path-48" fill="#ced4da" fill-opacity="1"/></g></g></g></svg>