<svg xmlns="http://www.w3.org/2000/svg" xmlns:xlink="http://www.w3.org/1999/xlink" viewBox="-292.414 1188.81 34 30.069">
  <defs>
    <style>
      .cls-1 {
        fill: #fff;
      }

      .cls-2 {
        fill: #e9ecef;
      }

      .cls-3 {
        fill: #ced4da;
      }

      .cls-4 {
        filter: url(#Path_408);
      }

      .cls-5 {
        filter: url(#Path_406);
      }
    </style>
    <filter id="Path_406" x="-292.414" y="1188.81" width="34" height="30.069" filterUnits="userSpaceOnUse">
      <feOffset dy="1" input="SourceAlpha"/>
      <feGaussianBlur stdDeviation="1" result="blur"/>
      <feFlood flood-opacity="0.161"/>
      <feComposite operator="in" in2="blur"/>
      <feComposite in="SourceGraphic"/>
    </filter>
    <filter id="Path_408" x="-282.664" y="1204.719" width="11.376" height="12.383" filterUnits="userSpaceOnUse">
      <feOffset dy="1" input="SourceAlpha"/>
      <feGaussianBlur stdDeviation="1" result="blur-2"/>
      <feFlood flood-opacity="0.161"/>
      <feComposite operator="in" in2="blur-2"/>
      <feComposite in="SourceGraphic"/>
    </filter>
  </defs>
  <g id="telegram" transform="translate(-289.414 1154.868)">
    <g class="cls-5" transform="matrix(1, 0, 0, 1, 289.41, -1154.87)">
      <path id="Path_406-2" data-name="Path 406" class="cls-1" d="M7.431,49.341.553,46.331a.922.922,0,0,1,.081-1.72l26.155-8.622a.922.922,0,0,1,1.186,1.087L22.748,59.3a.922.922,0,0,1-1.481.5l-6.141-5.025Z" transform="translate(-289.41 1154.87)"/>
    </g>
    <path id="Path_407" data-name="Path 407" class="cls-2" d="M150.127,123.581l-14.251,8.553,1.744,8.088a1.018,1.018,0,0,0,1.606.6l4.345-3.254L140,134.644l10.582-10.483A.37.37,0,0,0,150.127,123.581Z" transform="translate(-128.445 -82.794)"/>
    <g class="cls-4" transform="matrix(1, 0, 0, 1, 289.41, -1154.87)">
      <path id="Path_408-2" data-name="Path 408" class="cls-3" d="M178.275,333.139a1.012,1.012,0,0,0,1.031-.112l4.345-3.254-1.788-1.463-1.788-1.463Z" transform="translate(-457.94 879.87)"/>
    </g>
  </g>
</svg>
