<svg width="510" height="482" xmlns="http://www.w3.org/2000/svg" xmlns:xlink="http://www.w3.org/1999/xlink" viewBox="0 0 510 482"><defs><path d="M858 7494c-16.288 0-32.562-1.64-48.37-4.876a238.805 238.805 0 0 1-45.05-13.984 240.009 240.009 0 0 1-40.768-22.129 241.76 241.76 0 0 1-35.518-29.305 241.665 241.665 0 0 1-29.306-35.52 239.992 239.992 0 0 1-22.128-40.768 238.778 238.778 0 0 1-13.985-45.05C619.64 7286.56 618 7270.288 618 7254c0-16.288 1.64-32.562 4.875-48.369a238.807 238.807 0 0 1 13.985-45.05 240.03 240.03 0 0 1 22.128-40.768 241.697 241.697 0 0 1 29.306-35.519 241.768 241.768 0 0 1 35.518-29.306 240.214 240.214 0 0 1 40.767-22.128 238.887 238.887 0 0 1 45.052-13.984c15.81-3.235 32.084-4.876 48.368-4.876s32.557 1.64 48.367 4.876a238.93 238.93 0 0 1 45.052 13.984 240.183 240.183 0 0 1 40.768 22.128 241.88 241.88 0 0 1 36.378 30.17l-14.288 14.144c-41.12-41.5-98.08-65.302-156.277-65.302-121.308 0-220 98.692-220 220s98.692 220 220 220c91.697 0 174.652-57.817 206.424-143.872l18.81 6.937a238.445 238.445 0 0 1-4.094 10.353 240.17 240.17 0 0 1-22.128 40.768 241.84 241.84 0 0 1-29.306 35.52 241.826 241.826 0 0 1-35.52 29.305 240.082 240.082 0 0 1-40.767 22.129 238.801 238.801 0 0 1-45.052 13.984C890.56 7492.36 874.286 7494 858 7494z" id="a"/><path d="M1120.144 7318.912l-19.446-4.815a249.433 249.433 0 0 0 4.748-24.315l19.806 2.864a269.426 269.426 0 0 1-2.738 15.768 268.366 268.366 0 0 1-2.37 10.497z" id="b"/><path d="M1125.251 7292.651v-.001l-19.806-2.864a251.987 251.987 0 0 0 2.277-47.64l19.977-.95a273.71 273.71 0 0 1-2.448 51.453z" id="c"/><path d="M1107.721 7242.136c-1.235-26.284-6.568-52.026-15.85-76.51l18.765-7.09a269.188 269.188 0 0 1 11.878 41.05 271.745 271.745 0 0 1 5.185 41.6l-19.977.95z" id="d"/><path d="M1091.868 7165.62v-.001c-9.412-24.826-22.701-47.932-39.497-68.678l15.642-12.64a270.012 270.012 0 0 1 38.768 64.602 268.038 268.038 0 0 1 3.852 9.625l-18.764 7.09z" id="e"/><path d="M954.194 7495.624l-.753-1.89a257.747 257.747 0 0 0 21.814-9.92l.933 1.83a259.442 259.442 0 0 1-21.993 9.98z" id="f"/><path d="M976.162 7485.656l-.932-1.828a259.187 259.187 0 0 0 21.554-12.386l1.116 1.748a261.538 261.538 0 0 1-21.737 12.466z" id="g"/><path d="M997.856 7473.218v-.001l-1.115-1.747a260.582 260.582 0 0 0 27.695-20.444l1.347 1.594a262.256 262.256 0 0 1-22.416 16.977 259.882 259.882 0 0 1-5.51 3.62z" id="h"/><path d="M1025.75 7452.648l-1.347-1.595a260.447 260.447 0 0 0 42.738-46.087l1.688 1.218a262.434 262.434 0 0 1-26.983 31.664 262.489 262.489 0 0 1-16.095 14.8z" id="i"/><path d="M1068.821 7406.195l-1.687-1.219a257.668 257.668 0 0 0 32.874-61.439l1.9.704a258.408 258.408 0 0 1-4.342 10.963 260.05 260.05 0 0 1-28.744 50.99z" id="j"/></defs><g transform="translate(-618 -7014)"><title>pie</title><title>85%</title><title>Subtraction 1</title><use xlink:href="#a" fill="#343a40"/><g><title>15%</title><title>bg</title><use xlink:href="#b" fill="#0cf"/><title>3%</title><use xlink:href="#c" fill="#219fbf"/><g><title>5%</title><use xlink:href="#d" fill="#18829c"/></g><g><title>5%</title><use xlink:href="#e" fill="#166072"/></g></g><g><title>bounties</title><title>10%</title><use xlink:href="#f" fill="#0cf"/><title>10%</title><use xlink:href="#g" fill="#219fbf"/><title>15%</title><use xlink:href="#h" fill="#18829c"/><g><title>30%</title><use xlink:href="#i" fill="#166072"/></g><g><title>35%</title><use xlink:href="#j" fill="#19434e"/></g></g></g></svg>