<svg xmlns="http://www.w3.org/2000/svg" xmlns:xlink="http://www.w3.org/1999/xlink" width="212" height="43" viewBox="0 0 212 43"><defs><path id="a" d="M313.47 32.52a.5.5 0 0 1-.5-.5v-4.85l-8.81-5.1-8.82 5.1v4.91a.5.5 0 0 1-.5.5c-.32 0-.5-.18-.5-.5V26.6l9.82-5.6 9.76 5.6v5.48c0 .25-.2.44-.45.44z"/><path id="b" d="M292.76 63.31l-9.76-5.6V46.44l4.53-2.58c.26-.13.5-.07.63.18.13.26.07.5-.19.63L283.94 47v10.2l8.82 5.1 4.28-2.45c.25-.13.5-.06.63.19s.06.5-.19.63z"/><path id="c" d="M315.62 63.31l-5.17-3.02a.457.457 0 0 1-.19-.63c.13-.19.44-.31.63-.19l4.73 2.7 8.81-5.1V47l-4.03-2.33a.455.455 0 0 1-.19-.63c.13-.25.44-.31.63-.18l4.53 2.58V57.7z"/><path id="d" d="M347.66 49.59l1.39 4.66h-10.52a3.57 3.57 0 0 1-3.58-3.53V30.13h4.65v19.46z"/><path id="e" d="M366.49 39.83l-1.38 4.21h-7.69v5.48h11.02v4.66h-11.96c-1.95 0-3.72-1.57-3.72-3.52V39.83z"/><path id="f" d="M381.85 48.26l5.73-18.2h4.91l-8 24.12h-5.34l-7.62-24.11h4.9z"/><path id="g" d="M429.01 49.59l1.39 4.66h-10.52a3.57 3.57 0 0 1-3.59-3.53V30.13h4.66v19.46z"/><path id="h" d="M451.68 30.13v24.12h-4.66L438.71 38v16.25h-4.66V32.2c0-1.2.95-2.14 2.14-2.14h3.46l7.37 14.1v-14.1h4.66z"/><path id="i" d="M493.55 34.79h-5.29v19.46h-4.66V34.79h-5.54l-1.38-4.66H495z"/><path id="j" d="M357.99 36.8l-5.29.07 4.4-6.74h11.28v4.4h-8.88z"/><path id="k" d="M409.3 39.83l-1.38 4.21h-7.68v5.48h11.02v4.66h-11.97c-1.95 0-3.71-1.57-3.71-3.52V39.83z"/><path id="l" d="M400.8 36.8l-5.28.07 4.4-6.74h11.27v4.4h-8.87z"/><path id="m" d="M471.33 39.83l-1.39 4.21h-7.68v5.48h11.02v4.66H461.3c-1.95 0-3.71-1.57-3.71-3.52V39.83z"/><path id="n" d="M462.83 36.8l-5.23.07 4.4-6.74h11.28v4.4h-8.88z"/><path id="o" d="M304.16 40.7l-7.3-4.21v-8.44l7.3-4.22 7.3 4.22v8.44zm-4.1-6.04l4.16 2.4 4.15-2.4v-4.78l-4.15-2.4-4.16 2.4z"/><path id="p" d="M298.49 50.6l-7.3-4.23v-8.43l7.3-4.22 7.3 4.22v8.43zm-4.16-6.05l4.16 2.4 4.15-2.4v-4.79l-4.15-2.39-4.16 2.4z"/><path id="q" d="M309.89 50.6l-7.3-4.23v-8.43l7.3-4.22 7.3 4.22v8.43zm-4.16-6.05l4.16 2.4 4.15-2.4v-4.79l-4.15-2.39-4.16 2.4v4.78z"/><path id="r" d="M292.76 60.48l-7.3-4.22v-8.37l7.3-4.22 7.3 4.22v8.37zm-4.16-6.05l4.16 2.4 4.16-2.4v-4.78l-4.16-2.4-4.16 2.4z"/><path id="s" d="M304.16 60.48l-7.24-4.22v-8.37l7.24-4.22 7.3 4.22v8.37zm-4.1-6.05l4.16 2.4 4.15-2.4v-4.78l-4.15-2.4-4.16 2.4z"/><path id="t" d="M315.62 60.48l-7.3-4.22v-8.37l7.3-4.22 7.3 4.22v8.37zm-4.16-6.05l4.16 2.4 4.15-2.4v-4.78l-4.15-2.4-4.16 2.4z"/></defs><use fill="red" xlink:href="#a" transform="translate(-283 -21)"/><use fill="#0cf" xlink:href="#b" transform="translate(-283 -21)"/><use fill="#1ea84c" xlink:href="#c" transform="translate(-283 -21)"/><use fill="#fff" xlink:href="#d" transform="translate(-283 -21)"/><use fill="#fff" xlink:href="#e" transform="translate(-283 -21)"/><use fill="#fff" xlink:href="#f" transform="translate(-283 -21)"/><use fill="#fff" xlink:href="#g" transform="translate(-283 -21)"/><use fill="#fff" xlink:href="#h" transform="translate(-283 -21)"/><use fill="#fff" xlink:href="#i" transform="translate(-283 -21)"/><use fill="#fff" xlink:href="#j" transform="translate(-283 -21)"/><use fill="#fff" xlink:href="#k" transform="translate(-283 -21)"/><use fill="#fff" xlink:href="#l" transform="translate(-283 -21)"/><use fill="#fff" xlink:href="#m" transform="translate(-283 -21)"/><use fill="#fff" xlink:href="#n" transform="translate(-283 -21)"/><use fill="#fff" xlink:href="#o" transform="translate(-283 -21)"/><use fill="#fff" xlink:href="#p" transform="translate(-283 -21)"/><use fill="#fff" xlink:href="#q" transform="translate(-283 -21)"/><use fill="#fff" xlink:href="#r" transform="translate(-283 -21)"/><use fill="#fff" xlink:href="#s" transform="translate(-283 -21)"/><use fill="#fff" xlink:href="#t" transform="translate(-283 -21)"/></svg>