<svg xmlns="http://www.w3.org/2000/svg" viewBox="3705 26 42.375 42.312"><defs><style>.a{fill:red}.b{fill:#0cf}.c{fill:#1ea84c}.d{fill:#fff}</style></defs><path class="a" d="M3735.475 37.522a.5.5 0 0 1-.5-.5V32.17l-8.815-5.1-8.815 5.1v4.911a.5.5 0 0 1-.5.5.463.463 0 0 1-.5-.5V31.6l9.811-5.6 9.759 5.6v5.478a.43.43 0 0 1-.44.444z"/><path class="b" d="M3714.759 68.312L3705 62.708V51.437l4.533-2.582a.465.465 0 0 1 .441.819l-4.03 2.33v10.2l8.815 5.1 4.282-2.456a.465.465 0 0 1 .441.819z"/><path class="c" d="M3737.615 68.312l-5.163-3.019a.45.45 0 0 1-.189-.63.51.51 0 0 1 .63-.189l4.722 2.707 8.815-5.1V52.004l-4.03-2.33a.465.465 0 0 1 .441-.819l4.533 2.582v11.271z"/><path class="d" d="M3726.152 45.707l-7.3-4.218v-8.437l7.3-4.219 7.3 4.219v8.437zm-4.089-6.044l4.156 2.393 4.156-2.393v-4.785l-4.156-2.393-4.156 2.393zm9.822.881z"/><path class="d" d="M3720.486 55.592l-7.3-4.218v-8.437l7.3-4.219 7.3 4.219v8.437zm-4.152-6.044l4.152 2.392 4.156-2.393v-4.784l-4.156-2.393-4.156 2.393zm9.822.944z"/><path class="d" d="M3731.882 55.592l-7.3-4.219v-8.436l7.3-4.219 7.3 4.219v8.437zm-4.152-6.044l4.152 2.392 4.156-2.393v-4.784l-4.156-2.393-4.156 2.393v4.785zm9.885.944zM3714.756 65.478l-7.3-4.218v-8.374l7.3-4.219 7.3 4.219v8.374zm-4.152-6.044l4.152 2.392 4.156-2.393v-4.784l-4.156-2.393-4.152 2.393zm9.885.944z"/><path class="d" d="M3726.156 65.478l-7.241-4.218v-8.374l7.241-4.219 7.3 4.219v8.374zm-4.093-6.045l4.152 2.393 4.156-2.393v-4.784l-4.156-2.393-4.156 2.393zm9.822.944z"/><path class="d" d="M3737.612 65.478l-7.3-4.219v-8.373l7.3-4.219 7.3 4.219v8.374zm-4.156-6.045l4.156 2.393 4.156-2.393v-4.784l-4.156-2.393-4.156 2.393zm9.885.944z"/></svg>