<svg width="898" height="21" xmlns="http://www.w3.org/2000/svg" xmlns:xlink="http://www.w3.org/1999/xlink" viewBox="0 0 898 21"><defs><path d="M511 2030v-20h2v20z" id="a"/><path d="M531 2020v-10h1v10z" id="b"/><path d="M549 2020v-10h1v10z" id="c"/><path d="M568 2020v-10h1v10z" id="d"/><path d="M586 2020v-10h1v10z" id="e"/><path d="M605 2020v-10h1v10z" id="f"/><path d="M624 2019v-10h1v10z" id="g"/><path d="M642 2020v-10h1v10z" id="h"/><path d="M661 2020v-10h1v10z" id="i"/><path d="M679 2020v-10h1v10z" id="j"/><path d="M698 2020v-10h1v10z" id="k"/><path d="M716 2020v-10h1v10z" id="l"/><path d="M735 2030v-20h2v20z" id="m"/><path d="M755 2020v-10h1v10z" id="n"/><path d="M773 2020v-10h1v10z" id="o"/><path d="M792 2020v-10h1v10z" id="p"/><path d="M810 2020v-10h1v10z" id="q"/><path d="M829 2020v-10h1v10z" id="r"/><path d="M848 2019v-10h1v10z" id="s"/><path d="M866 2020v-10h1v10z" id="t"/><path d="M885 2020v-10h1v10z" id="u"/><path d="M903 2020v-10h1v10z" id="v"/><path d="M922 2020v-10h1v10z" id="w"/><path d="M940 2020v-10h1v10z" id="x"/><path d="M959 2030v-20h2v20z" id="y"/><path d="M979 2020v-10h1v10z" id="z"/><path d="M997 2020v-10h1v10z" id="A"/><path d="M1016 2020v-10h1v10z" id="B"/><path d="M1034 2020v-10h1v10z" id="C"/><path d="M1053 2020v-10h1v10z" id="D"/><path d="M1072 2019v-10h1v10z" id="E"/><path d="M1090 2020v-10h1v10z" id="F"/><path d="M1109 2020v-10h1v10z" id="G"/><path d="M1127 2020v-10h1v10z" id="H"/><path d="M1146 2020v-10h1v10z" id="I"/><path d="M1164 2020v-10h1v10z" id="J"/><path d="M1183 2030v-20h2v20z" id="K"/><path d="M1203 2020v-10h1v10z" id="L"/><path d="M1221 2020v-10h1v10z" id="M"/><path d="M1240 2020v-10h1v10z" id="N"/><path d="M1258 2020v-10h1v10z" id="O"/><path d="M1277 2020v-10h1v10z" id="P"/><path d="M1296 2019v-10h1v10z" id="Q"/><path d="M1314 2020v-10h1v10z" id="R"/><path d="M1333 2020v-10h1v10z" id="S"/><path d="M1351 2020v-10h1v10z" id="T"/><path d="M1370 2020v-10h1v10z" id="U"/><path d="M1388 2020v-10h1v10z" id="V"/><path d="M1407 2030v-20h2v20z" id="W"/></defs><g transform="translate(-511 -2009)"><title>ruller</title><title>Rectangle 20</title><use xlink:href="#a" fill="#ced4da"/><title>Rectangle 24</title><use xlink:href="#b" fill="#ced4da"/><title>Rectangle 25</title><use xlink:href="#c" fill="#ced4da"/><title>Rectangle 26</title><use xlink:href="#d" fill="#ced4da"/><title>Rectangle 27</title><use xlink:href="#e" fill="#ced4da"/><title>Rectangle 28</title><use xlink:href="#f" fill="#ced4da"/><title>Rectangle 29</title><use xlink:href="#g" fill="#ced4da"/><title>Rectangle 30</title><use xlink:href="#h" fill="#ced4da"/><title>Rectangle 31</title><use xlink:href="#i" fill="#ced4da"/><title>Rectangle 32</title><use xlink:href="#j" fill="#ced4da"/><title>Rectangle 33</title><use xlink:href="#k" fill="#ced4da"/><title>Rectangle 34</title><use xlink:href="#l" fill="#ced4da"/><title>Rectangle 20</title><use xlink:href="#m" fill="#ced4da"/><title>Rectangle 24</title><use xlink:href="#n" fill="#ced4da"/><title>Rectangle 25</title><use xlink:href="#o" fill="#ced4da"/><title>Rectangle 26</title><use xlink:href="#p" fill="#ced4da"/><title>Rectangle 27</title><use xlink:href="#q" fill="#ced4da"/><title>Rectangle 28</title><use xlink:href="#r" fill="#ced4da"/><title>Rectangle 29</title><use xlink:href="#s" fill="#ced4da"/><title>Rectangle 30</title><use xlink:href="#t" fill="#ced4da"/><title>Rectangle 31</title><use xlink:href="#u" fill="#ced4da"/><title>Rectangle 32</title><use xlink:href="#v" fill="#ced4da"/><title>Rectangle 33</title><use xlink:href="#w" fill="#ced4da"/><title>Rectangle 34</title><use xlink:href="#x" fill="#ced4da"/><title>Rectangle 20</title><use xlink:href="#y" fill="#ced4da"/><g><title>Rectangle 24</title><use xlink:href="#z" fill="#ced4da"/></g><g><title>Rectangle 25</title><use xlink:href="#A" fill="#ced4da"/></g><g><title>Rectangle 26</title><use xlink:href="#B" fill="#ced4da"/></g><g><title>Rectangle 27</title><use xlink:href="#C" fill="#ced4da"/></g><g><title>Rectangle 28</title><use xlink:href="#D" fill="#ced4da"/></g><g><title>Rectangle 29</title><use xlink:href="#E" fill="#ced4da"/></g><g><title>Rectangle 30</title><use xlink:href="#F" fill="#ced4da"/></g><g><title>Rectangle 31</title><use xlink:href="#G" fill="#ced4da"/></g><g><title>Rectangle 32</title><use xlink:href="#H" fill="#ced4da"/></g><g><title>Rectangle 33</title><use xlink:href="#I" fill="#ced4da"/></g><g><title>Rectangle 34</title><use xlink:href="#J" fill="#ced4da"/></g><g><title>Rectangle 20</title><use xlink:href="#K" fill="#ced4da"/></g><g><title>Rectangle 24</title><use xlink:href="#L" fill="#ced4da"/></g><g><title>Rectangle 25</title><use xlink:href="#M" fill="#ced4da"/></g><g><title>Rectangle 26</title><use xlink:href="#N" fill="#ced4da"/></g><g><title>Rectangle 27</title><use xlink:href="#O" fill="#ced4da"/></g><g><title>Rectangle 28</title><use xlink:href="#P" fill="#ced4da"/></g><g><title>Rectangle 29</title><use xlink:href="#Q" fill="#ced4da"/></g><g><title>Rectangle 30</title><use xlink:href="#R" fill="#ced4da"/></g><g><title>Rectangle 31</title><use xlink:href="#S" fill="#ced4da"/></g><g><title>Rectangle 32</title><use xlink:href="#T" fill="#ced4da"/></g><g><title>Rectangle 33</title><use xlink:href="#U" fill="#ced4da"/></g><g><title>Rectangle 34</title><use xlink:href="#V" fill="#ced4da"/></g><g><title>Rectangle 23</title><use xlink:href="#W" fill="#ced4da"/></g></g></svg>