<svg version="1" xmlns="http://www.w3.org/2000/svg" width="348" height="348" viewBox="0 0 261 261"><path d="M113 9.7c-9.1 5.2-18.3 10.5-20.5 11.7-17.1 9.7-22.4 12.9-22.7 13.9-.2.7-.4 8.5-.3 17.4.1 17.2.7 19.9 4.3 17.7 1.5-1 1.7-3.2 1.9-16.4.1-11.2.5-15.6 1.5-16.5C79.1 35.8 128.9 7 130 7c.5 0 6 3 12.2 6.6 11.7 6.9 15.5 9.1 22.3 12.9 2.2 1.3 7.4 4.3 11.5 6.7l7.5 4.5.3 15.3c.1 8.5.7 15.9 1.3 16.6.5.6 1.9 1 2.9.7 1.9-.5 2-1.5 2-18.2V34.5l-26.1-15c-14.4-8.3-27.9-16-30-17.3-2.2-1.2-4.1-2.2-4.2-2.1-.1 0-7.6 4.3-16.7 9.6z"/><path d="M106.8 30.7L85 43.3v40.5L67.6 94l-17.3 10.1v20.1c0 18.7-.1 20.2-1.9 21.5-1 .8-9 5.5-17.6 10.5l-15.8 9v51.3l6.3 3.6C50.5 237.2 59.1 242 59.9 242c.6 0 8.7-4.5 18-9.9l17-9.9 17.1 9.9c9.5 5.4 17.5 9.9 18 9.9s8.6-4.5 18.1-10l17.3-9.9 3 1.9c8.8 5.4 31.2 18 32 18 .7 0 25.8-14.3 38.1-21.7 1.1-.7 3-1.7 4.3-2.2l2.2-1.1-.2-26.1-.3-26.1-17-9.9-17-9.8-.5-20.7-.5-20.7-17.2-10-17.3-10V43.4l-5.7-3.3c-3.2-1.9-7.6-4.4-9.8-5.6-2.2-1.2-9.1-5.2-15.4-8.9-6.3-3.6-12.4-6.8-13.5-7.1-1.4-.3-9.5 3.9-23.8 12.2zm36.9 16.8l12.1 7v28.6l-3.6 2.3c-2 1.3-7.8 4.6-12.9 7.5l-9.1 5.2-12.6-7.2-12.6-7.1V54.5l12.3-7.2c6.7-4 12.7-7.1 13.2-7 .6.1 6.5 3.3 13.2 7.2zm-36.2 60.6l12.5 7.1.1 5.2c.2 14.4-.1 24-.8 24.6-.4.5-6.1 3.8-12.5 7.5l-11.7 6.7-12.5-7.2c-6.9-3.9-12.6-7.5-12.7-7.8-.5-3.5-.3-27.6.3-28.5.7-1.1 22.6-14.5 24.1-14.6.4-.1 6.3 3.1 13.2 7zm70.9 0l12.2 7.2v29.4l-12.8 7.2-12.7 7.3-12.6-7.2-12.5-7.1v-29.7l12.3-7c6.7-3.9 12.6-7.1 13-7.1.5-.1 6.3 3.1 13.1 7zM72.7 168.9l11.8 6.9.5 11.3c.9 19.4 1.9 17.4-12.6 25.7L59.8 220l-12.6-7.4-12.7-7.4v-29.3l12-6.9c6.6-3.8 12.5-7 13.2-7 .6 0 6.5 3.1 13 6.9zm70.6.2l12.2 7.1v14.4c-.1 7.9-.4 14.6-.8 15-.3.4-5.9 3.7-12.4 7.5l-11.7 6.8-6.1-3.3c-3.3-1.8-9-5.1-12.7-7.2l-6.8-3.9v-29.3l12.3-7.1c6.7-3.9 12.5-7.1 13-7.1.4 0 6.2 3.2 13 7.1zm70.3-.2l11.9 6.9v29.6l-12.6 7.3-12.6 7.3-12.6-7.2-12.7-7.3v-29.3l12.3-7.1c6.7-3.9 12.7-7.1 13.3-7.1.6 0 6.5 3.1 13 6.9z"/><path d="M25.5 141.8c-1.6.9-8.1 4.6-14.2 8L0 156.2v69.3l29.9 17.2 30 17.2 13.8-7.6c16.5-9 17.6-9.9 16.2-12.4-.5-1.1-1.4-1.9-1.9-1.9s-6.7 3.4-13.8 7.5c-7.1 4.1-13.5 7.5-14.2 7.5-.7 0-9.2-4.6-18.9-10.2s-21.5-12.4-26.4-15.1L6 222.8v-63.3l12.5-7c11.7-6.6 14.5-9.1 13-11.5-.9-1.4-2.5-1.2-6 .8zm203.6-.9c-2.6 1.7.8 4.8 11.9 11.1 6.1 3.4 11.6 6.8 12.3 7.4.9.9 1.2 8.9 1.1 31.2-.1 16.4-.2 30.2-.3 30.5-.1.4-12.2 7.7-27 16.3L200.2 253l-14.8-8.6c-11.3-6.6-15.1-8.4-16.3-7.7-.9.6-1.6 1.6-1.6 2.4 0 1.2 18.8 13.2 29.6 18.9l3.5 1.8 29.4-16.9c16.2-9.3 29.7-17.5 30-18.4.4-1.1.5-64.5.1-67.7-.1-.7-25.2-15.2-28.1-16.2-.8-.3-2.1-.2-2.9.3z"/></svg>