<svg width="400" height="288" xmlns="http://www.w3.org/2000/svg" viewBox="11920 6983 400 288"><defs><style>.a{fill:#1cb9df;}.b{fill:#fff;font-size:15px;font-family:SFUIDisplay-Regular, SF UI Display;letter-spacing:0.04em;}</style></defs><g transform="translate(11591 6743)"><g transform="translate(-4 -9)"><circle class="a" cx="30" cy="30" r="30" transform="translate(333 249)"/><text class="b" transform="translate(363 284)"><tspan x="-15.164" y="0">80%</tspan></text></g><g transform="translate(81 -9)"><circle class="a" cx="30" cy="30" r="30" transform="translate(333 249)"/><text class="b" transform="translate(363 284)"><tspan x="-14.699" y="0">70%</tspan></text></g><g transform="translate(166 -9)"><circle class="a" cx="30" cy="30" r="30" transform="translate(333 249)"/><text class="b" transform="translate(363 284)"><tspan x="-14.699" y="0">70%</tspan></text></g><g transform="translate(39 67)"><circle class="a" cx="30" cy="30" r="30" transform="translate(333 249)"/><text class="b" transform="translate(363 284)"><tspan x="-14.699" y="0">70%</tspan></text></g><g transform="translate(39 219)"><circle class="a" cx="30" cy="30" r="30" transform="translate(333 249)"/><text class="b" transform="translate(363 284)"><tspan x="-14.699" y="0">70%</tspan></text></g><g transform="translate(251 -9)"><circle class="a" cx="30" cy="30" r="30" transform="translate(333 249)"/><text class="b" transform="translate(363 284)"><tspan x="-15.164" y="0">80%</tspan></text></g><g transform="translate(124 67)"><circle class="a" cx="30" cy="30" r="30" transform="translate(333 249)"/><text class="b" transform="translate(363 284)"><tspan x="-15.164" y="0">80%</tspan></text></g><g transform="translate(124 219)"><circle class="a" cx="30" cy="30" r="30" transform="translate(333 249)"/><text class="b" transform="translate(363 284)"><tspan x="-15.164" y="0">80%</tspan></text></g><g transform="translate(81 143)"><circle class="a" cx="30" cy="30" r="30" transform="translate(333 249)"/><text class="b" transform="translate(363 284)"><tspan x="-14.699" y="0">70%</tspan></text></g><g transform="translate(336 143)"><circle class="a" cx="30" cy="30" r="30" transform="translate(333 249)"/><text class="b" transform="translate(363 284)"><tspan x="-15.164" y="0">80%</tspan></text></g><g transform="translate(336 -9)"><circle class="a" cx="30" cy="30" r="30" transform="translate(333 249)"/><text class="b" transform="translate(363 284)"><tspan x="-14.699" y="0">70%</tspan></text></g><g transform="translate(209 67)"><circle class="a" cx="30" cy="30" r="30" transform="translate(333 249)"/><text class="b" transform="translate(363 284)"><tspan x="-14.699" y="0">70%</tspan></text></g><g transform="translate(209 219)"><circle class="a" cx="30" cy="30" r="30" transform="translate(333 249)"/><text class="b" transform="translate(363 284)"><tspan x="-15.164" y="0">80%</tspan></text></g><g transform="translate(166 143)"><circle class="a" cx="30" cy="30" r="30" transform="translate(333 249)"/><text class="b" transform="translate(363 284)"><tspan x="-15.164" y="0">80%</tspan></text></g><g transform="translate(-4 143)"><circle class="a" cx="30" cy="30" r="30" transform="translate(333 249)"/><text class="b" transform="translate(363 284)"><tspan x="-15.164" y="0">80%</tspan></text></g><g transform="translate(251 143)"><circle class="a" cx="30" cy="30" r="30" transform="translate(333 249)"/><text class="b" transform="translate(363 284)"><tspan x="-14.699" y="0">70%</tspan></text></g><g transform="translate(294 67)"><circle class="a" cx="30" cy="30" r="30" transform="translate(333 249)"/><text class="b" transform="translate(363 284)"><tspan x="-14.699" y="0">70%</tspan></text></g><g transform="translate(294 219)"><circle class="a" cx="30" cy="30" r="30" transform="translate(333 249)"/><text class="b" transform="translate(363 284)"><tspan x="-14.699" y="0">70%</tspan></text></g></g></svg>