<svg width="288" height="288" xmlns="http://www.w3.org/2000/svg" viewBox="12476 6983 288 288"><defs><style>.a{fill:#e9ecef;}.b{fill:#1cb9df;}</style></defs><g transform="translate(11591 6743)"><g transform="translate(552 -9)"><circle class="a" cx="144" cy="144" r="144" transform="translate(333 249)"/></g><g transform="translate(0 11)"><g transform="translate(7)"><g transform="translate(596 31)"><circle class="b" cx="5" cy="5" r="5" transform="translate(333 249)"/></g><g transform="translate(610 29)"><circle class="b" cx="7" cy="7" r="7" transform="translate(333 249)"/></g><g transform="translate(630 33)"><circle class="b" cx="3" cy="3" r="3" transform="translate(333 249)"/></g><g transform="translate(642 29)"><circle class="b" cx="7" cy="7" r="7" transform="translate(333 249)"/></g><g transform="translate(662 33)"><circle class="b" cx="3" cy="3" r="3" transform="translate(333 249)"/></g><g transform="translate(678 33)"><circle class="b" cx="3" cy="3" r="3" transform="translate(333 249)"/></g><g transform="translate(690 29)"><circle class="b" cx="7" cy="7" r="7" transform="translate(333 249)"/></g><g transform="translate(710 33)"><circle class="b" cx="3" cy="3" r="3" transform="translate(333 249)"/></g><g transform="translate(724 31)"><circle class="b" cx="5" cy="5" r="5" transform="translate(333 249)"/></g><g transform="translate(740 31)"><circle class="b" cx="5" cy="5" r="5" transform="translate(333 249)"/></g><g transform="translate(758 33)"><circle class="b" cx="3" cy="3" r="3" transform="translate(333 249)"/></g><g transform="translate(770 29)"><circle class="b" cx="7" cy="7" r="7" transform="translate(333 249)"/></g></g><g transform="translate(7 16)"><g transform="translate(594 29)"><circle class="b" cx="7" cy="7" r="7" transform="translate(333 249)"/></g><g transform="translate(612 31)"><circle class="b" cx="5" cy="5" r="5" transform="translate(333 249)"/></g><g transform="translate(630 33)"><circle class="b" cx="3" cy="3" r="3" transform="translate(333 249)"/></g><g transform="translate(646 33)"><circle class="b" cx="3" cy="3" r="3" transform="translate(333 249)"/></g><g transform="translate(662 33)"><circle class="b" cx="7" cy="7" r="7" transform="translate(329 245)"/></g><g transform="translate(678 33)"><circle class="b" cx="5" cy="5" r="5" transform="translate(331 247)"/></g><g transform="translate(694 33)"><circle class="b" cx="3" cy="3" r="3" transform="translate(333 249)"/></g><g transform="translate(710 33)"><circle class="b" cx="3" cy="3" r="3" transform="translate(333 249)"/></g><g transform="translate(724 31)"><circle class="b" cx="5" cy="5" r="5" transform="translate(333 249)"/></g><g transform="translate(742 33)"><circle class="b" cx="3" cy="3" r="3" transform="translate(333 249)"/></g><g transform="translate(758 33)"><circle class="b" cx="3" cy="3" r="3" transform="translate(333 249)"/></g><g transform="translate(770 29)"><circle class="b" cx="7" cy="7" r="7" transform="translate(333 249)"/></g></g><g transform="translate(7 32)"><g transform="translate(598 33)"><circle class="b" cx="3" cy="3" r="3" transform="translate(333 249)"/></g><g transform="translate(614 33)"><circle class="b" cx="3" cy="3" r="3" transform="translate(333 249)"/></g><g transform="translate(630 33)"><circle class="b" cx="3" cy="3" r="3" transform="translate(333 249)"/></g><g transform="translate(644 31)"><circle class="b" cx="5" cy="5" r="5" transform="translate(333 249)"/></g><g transform="translate(660 31)"><circle class="b" cx="5" cy="5" r="5" transform="translate(333 249)"/></g><g transform="translate(676 31)"><circle class="b" cx="5" cy="5" r="5" transform="translate(333 249)"/></g><g transform="translate(690 29)"><circle class="b" cx="7" cy="7" r="7" transform="translate(333 249)"/></g><g transform="translate(710 33)"><circle class="b" cx="3" cy="3" r="3" transform="translate(333 249)"/></g><g transform="translate(726 33)"><circle class="b" cx="3" cy="3" r="3" transform="translate(333 249)"/></g><g transform="translate(740 31)"><circle class="b" cx="5" cy="5" r="5" transform="translate(333 249)"/></g><g transform="translate(756 31)"><circle class="b" cx="5" cy="5" r="5" transform="translate(333 249)"/></g><g transform="translate(774 33)"><circle class="b" cx="3" cy="3" r="3" transform="translate(333 249)"/></g></g><g transform="translate(7 48)"><g transform="translate(598 33)"><circle class="b" cx="3" cy="3" r="3" transform="translate(333 249)"/></g><g transform="translate(612 31)"><circle class="b" cx="5" cy="5" r="5" transform="translate(333 249)"/></g><g transform="translate(630 33)"><circle class="b" cx="3" cy="3" r="3" transform="translate(333 249)"/></g><g transform="translate(642 29)"><circle class="b" cx="7" cy="7" r="7" transform="translate(333 249)"/></g><g transform="translate(658 29)"><circle class="b" cx="7" cy="7" r="7" transform="translate(333 249)"/></g><g transform="translate(678 33)"><circle class="b" cx="3" cy="3" r="3" transform="translate(333 249)"/></g><g transform="translate(692 31)"><circle class="b" cx="5" cy="5" r="5" transform="translate(333 249)"/></g><g transform="translate(710 33)"><circle class="b" cx="3" cy="3" r="3" transform="translate(333 249)"/></g><g transform="translate(724 31)"><circle class="b" cx="5" cy="5" r="5" transform="translate(333 249)"/></g><g transform="translate(738 29)"><circle class="b" cx="7" cy="7" r="7" transform="translate(333 249)"/></g><g transform="translate(758 33)"><circle class="b" cx="3" cy="3" r="3" transform="translate(333 249)"/></g><g transform="translate(772 31)"><circle class="b" cx="5" cy="5" r="5" transform="translate(333 249)"/></g></g><g transform="translate(7 64)"><g transform="translate(596 31)"><circle class="b" cx="5" cy="5" r="5" transform="translate(333 249)"/></g><g transform="translate(614 33)"><circle class="b" cx="3" cy="3" r="3" transform="translate(333 249)"/></g><g transform="translate(626 29)"><circle class="b" cx="7" cy="7" r="7" transform="translate(333 249)"/></g><g transform="translate(646 33)"><circle class="b" cx="3" cy="3" r="3" transform="translate(333 249)"/></g><g transform="translate(660 31)"><circle class="b" cx="5" cy="5" r="5" transform="translate(333 249)"/></g><g transform="translate(676 31)"><circle class="b" cx="5" cy="5" r="5" transform="translate(333 249)"/></g><g transform="translate(694 33)"><circle class="b" cx="3" cy="3" r="3" transform="translate(333 249)"/></g><g transform="translate(706 29)"><circle class="b" cx="7" cy="7" r="7" transform="translate(333 249)"/></g><g transform="translate(726 33)"><circle class="b" cx="3" cy="3" r="3" transform="translate(333 249)"/></g><g transform="translate(738 29)"><circle class="b" cx="7" cy="7" r="7" transform="translate(333 249)"/></g><g transform="translate(758 33)"><circle class="b" cx="3" cy="3" r="3" transform="translate(333 249)"/></g><g transform="translate(774 33)"><circle class="b" cx="3" cy="3" r="3" transform="translate(333 249)"/></g></g><g transform="translate(7 80)"><g transform="translate(598 33)"><circle class="b" cx="3" cy="3" r="3" transform="translate(333 249)"/></g><g transform="translate(612 31)"><circle class="b" cx="5" cy="5" r="5" transform="translate(333 249)"/></g><g transform="translate(626 29)"><circle class="b" cx="7" cy="7" r="7" transform="translate(333 249)"/></g><g transform="translate(646 33)"><circle class="b" cx="3" cy="3" r="3" transform="translate(333 249)"/></g><g transform="translate(660 31)"><circle class="b" cx="5" cy="5" r="5" transform="translate(333 249)"/></g><g transform="translate(676 31)"><circle class="b" cx="5" cy="5" r="5" transform="translate(333 249)"/></g><g transform="translate(690 29)"><circle class="b" cx="7" cy="7" r="7" transform="translate(333 249)"/></g><g transform="translate(710 33)"><circle class="b" cx="3" cy="3" r="3" transform="translate(333 249)"/></g><g transform="translate(726 33)"><circle class="b" cx="3" cy="3" r="3" transform="translate(333 249)"/></g><g transform="translate(738 29)"><circle class="b" cx="7" cy="7" r="7" transform="translate(333 249)"/></g><g transform="translate(756 31)"><circle class="b" cx="5" cy="5" r="5" transform="translate(333 249)"/></g><g transform="translate(772 31)"><circle class="b" cx="5" cy="5" r="5" transform="translate(333 249)"/></g></g><g transform="translate(7 96)"><g transform="translate(596 31)"><circle class="b" cx="5" cy="5" r="5" transform="translate(333 249)"/></g><g transform="translate(610 29)"><circle class="b" cx="7" cy="7" r="7" transform="translate(333 249)"/></g><g transform="translate(628 31)"><circle class="b" cx="5" cy="5" r="5" transform="translate(333 249)"/></g><g transform="translate(644 31)"><circle class="b" cx="5" cy="5" r="5" transform="translate(333 249)"/></g><g transform="translate(660 31)"><circle class="b" cx="5" cy="5" r="5" transform="translate(333 249)"/></g><g transform="translate(678 33)"><circle class="b" cx="3" cy="3" r="3" transform="translate(333 249)"/></g><g transform="translate(694 33)"><circle class="b" cx="3" cy="3" r="3" transform="translate(333 249)"/></g><g transform="translate(708 31)"><circle class="b" cx="5" cy="5" r="5" transform="translate(333 249)"/></g><g transform="translate(722 29)"><circle class="b" cx="7" cy="7" r="7" transform="translate(333 249)"/></g><g transform="translate(738 29)"><circle class="b" cx="7" cy="7" r="7" transform="translate(333 249)"/></g><g transform="translate(758 33)"><circle class="b" cx="3" cy="3" r="3" transform="translate(333 249)"/></g><g transform="translate(772 31)"><circle class="b" cx="5" cy="5" r="5" transform="translate(333 249)"/></g></g><g transform="translate(7 128)"><g transform="translate(598 33)"><circle class="b" cx="3" cy="3" r="3" transform="translate(333 249)"/></g><g transform="translate(612 31)"><circle class="b" cx="5" cy="5" r="5" transform="translate(333 249)"/></g><g transform="translate(628 31)"><circle class="b" cx="5" cy="5" r="5" transform="translate(333 249)"/></g><g transform="translate(646 33)"><circle class="b" cx="3" cy="3" r="3" transform="translate(333 249)"/></g><g transform="translate(662 33)"><circle class="b" cx="3" cy="3" r="3" transform="translate(333 249)"/></g><g transform="translate(676 31)"><circle class="b" cx="5" cy="5" r="5" transform="translate(333 249)"/></g><g transform="translate(694 33)"><circle class="b" cx="3" cy="3" r="3" transform="translate(333 249)"/></g><g transform="translate(708 31)"><circle class="b" cx="5" cy="5" r="5" transform="translate(333 249)"/></g><g transform="translate(724 31)"><circle class="b" cx="5" cy="5" r="5" transform="translate(333 249)"/></g><g transform="translate(742 33)"><circle class="b" cx="3" cy="3" r="3" transform="translate(333 249)"/></g><g transform="translate(754 29)"><circle class="b" cx="7" cy="7" r="7" transform="translate(333 249)"/></g><g transform="translate(770 29)"><circle class="b" cx="7" cy="7" r="7" transform="translate(333 249)"/></g></g><g transform="translate(7 160)"><g transform="translate(598 33)"><circle class="b" cx="3" cy="3" r="3" transform="translate(333 249)"/></g><g transform="translate(614 33)"><circle class="b" cx="5" cy="5" r="5" transform="translate(331 247)"/></g><g transform="translate(628 31)"><circle class="b" cx="5" cy="5" r="5" transform="translate(333 249)"/></g><g transform="translate(646 33)"><circle class="b" cx="3" cy="3" r="3" transform="translate(333 249)"/></g><g transform="translate(658 29)"><circle class="b" cx="7" cy="7" r="7" transform="translate(333 249)"/></g><g transform="translate(678 33)"><circle class="b" cx="3" cy="3" r="3" transform="translate(333 249)"/></g><g transform="translate(692 31)"><circle class="b" cx="5" cy="5" r="5" transform="translate(333 249)"/></g><g transform="translate(710 33)"><circle class="b" cx="3" cy="3" r="3" transform="translate(333 249)"/></g><g transform="translate(722 29)"><circle class="b" cx="7" cy="7" r="7" transform="translate(333 249)"/></g><g transform="translate(742 33)"><circle class="b" cx="3" cy="3" r="3" transform="translate(333 249)"/></g><g transform="translate(756 31)"><circle class="b" cx="5" cy="5" r="5" transform="translate(333 249)"/></g><g transform="translate(770 29)"><circle class="b" cx="7" cy="7" r="7" transform="translate(333 249)"/></g></g><g transform="translate(7 112)"><g transform="translate(596 31)"><circle class="b" cx="5" cy="5" r="5" transform="translate(333 249)"/></g><g transform="translate(614 33)"><circle class="b" cx="3" cy="3" r="3" transform="translate(333 249)"/></g><g transform="translate(630 33)"><circle class="b" cx="7" cy="7" r="7" transform="translate(329 245)"/></g><g transform="translate(644 31)"><circle class="b" cx="5" cy="5" r="5" transform="translate(333 249)"/></g><g transform="translate(662 33)"><circle class="b" cx="3" cy="3" r="3" transform="translate(333 249)"/></g><g transform="translate(676 31)"><circle class="b" cx="5" cy="5" r="5" transform="translate(333 249)"/></g><g transform="translate(690 29)"><circle class="b" cx="7" cy="7" r="7" transform="translate(333 249)"/></g><g transform="translate(708 31)"><circle class="b" cx="5" cy="5" r="5" transform="translate(333 249)"/></g><g transform="translate(726 33)"><circle class="b" cx="3" cy="3" r="3" transform="translate(333 249)"/></g><g transform="translate(740 31)"><circle class="b" cx="5" cy="5" r="5" transform="translate(333 249)"/></g><g transform="translate(756 31)"><circle class="b" cx="5" cy="5" r="5" transform="translate(333 249)"/></g><g transform="translate(772 31)"><circle class="b" cx="5" cy="5" r="5" transform="translate(333 249)"/></g></g><g transform="translate(7 144)"><g transform="translate(598 33)"><circle class="b" cx="7" cy="7" r="7" transform="translate(329 245)"/></g><g transform="translate(614 33)"><circle class="b" cx="3" cy="3" r="3" transform="translate(333 249)"/></g><g transform="translate(628 31)"><circle class="b" cx="5" cy="5" r="5" transform="translate(333 249)"/></g><g transform="translate(646 33)"><circle class="b" cx="7" cy="7" r="7" transform="translate(329 245)"/></g><g transform="translate(662 33)"><circle class="b" cx="3" cy="3" r="3" transform="translate(333 249)"/></g><g transform="translate(674 29)"><circle class="b" cx="7" cy="7" r="7" transform="translate(333 249)"/></g><g transform="translate(692 31)"><circle class="b" cx="5" cy="5" r="5" transform="translate(333 249)"/></g><g transform="translate(710 33)"><circle class="b" cx="3" cy="3" r="3" transform="translate(333 249)"/></g><g transform="translate(726 33)"><circle class="b" cx="3" cy="3" r="3" transform="translate(333 249)"/></g><g transform="translate(738 29)"><circle class="b" cx="7" cy="7" r="7" transform="translate(333 249)"/></g><g transform="translate(758 33)"><circle class="b" cx="3" cy="3" r="3" transform="translate(333 249)"/></g><g transform="translate(774 33)"><circle class="b" cx="3" cy="3" r="3" transform="translate(333 249)"/></g></g><g transform="translate(7 176)"><g transform="translate(594 29)"><circle class="b" cx="7" cy="7" r="7" transform="translate(333 249)"/></g><g transform="translate(614 33)"><circle class="b" cx="3" cy="3" r="3" transform="translate(333 249)"/></g><g transform="translate(630 33)"><circle class="b" cx="3" cy="3" r="3" transform="translate(333 249)"/></g><g transform="translate(642 29)"><circle class="b" cx="7" cy="7" r="7" transform="translate(333 249)"/></g><g transform="translate(660 31)"><circle class="b" cx="5" cy="5" r="5" transform="translate(333 249)"/></g><g transform="translate(678 33)"><circle class="b" cx="3" cy="3" r="3" transform="translate(333 249)"/></g><g transform="translate(692 31)"><circle class="b" cx="5" cy="5" r="5" transform="translate(333 249)"/></g><g transform="translate(706 29)"><circle class="b" cx="7" cy="7" r="7" transform="translate(333 249)"/></g><g transform="translate(726 33)"><circle class="b" cx="3" cy="3" r="3" transform="translate(333 249)"/></g><g transform="translate(740 31)"><circle class="b" cx="5" cy="5" r="5" transform="translate(333 249)"/></g><g transform="translate(754 29)"><circle class="b" cx="7" cy="7" r="7" transform="translate(333 249)"/></g><g transform="translate(770 29)"><circle class="b" cx="7" cy="7" r="7" transform="translate(333 249)"/></g></g></g></g></svg>