<svg xmlns="http://www.w3.org/2000/svg" viewBox="12327 6033 128 128" width="124" height="124"><defs><style>.a,.b,.c,.d{fill:none;stroke-linejoin:round;stroke-miterlimit:10;stroke-width:4px;}.a{stroke:#495057;}.b{stroke:red;}.c{stroke:#1cb9df;}.d{stroke:#1ea84c;}</style></defs><g transform="translate(12328 6034)"><path class="a" d="M45,53H29V69L13,53H1V1H77V53H71"/><rect class="a" width="30" height="48" transform="translate(1 77)"/><path class="a" d="M22,99l8,4H64a6,6,0,0,0,0-12h2a6,6,0,0,0,0-12h4a6,6,0,0,0,0-12H68a6,6,0,0,0,0-12H42l8-22V29a6,6,0,0,0-12,0L32,41,20,55H16" transform="translate(15 22)"/><line class="a" y2="4" transform="translate(23 115)"/><path class="a" d="M48,9H90V57H78L62,73V57H36" transform="translate(35 8)"/><line class="b" x2="4" transform="translate(29 27)"/><line class="c" x2="4" transform="translate(37 27)"/><line class="d" x2="4" transform="translate(45 27)"/><line class="b" x1="32" transform="translate(83 29)"/><line class="c" x1="32" transform="translate(83 41)"/><line class="d" x1="32" transform="translate(83 53)"/><rect class="a" width="52" height="20" transform="translate(13 17)"/></g></svg>