<svg width="58" height="64" xmlns="http://www.w3.org/2000/svg" viewBox="789 15924 60 64"><defs><style>.a,.b{fill:none;stroke:#868e96;stroke-miterlimit:10;stroke-width:2px;}.b{stroke-linejoin:round;}</style></defs><g transform="translate(789 15924)"><line class="a" x2="16" transform="translate(4 55)"/><line class="a" x2="16" transform="translate(4 59)"/><line class="a" x2="16" transform="translate(4 63)"/><line class="a" x2="16" transform="translate(4 51)"/><line class="a" x2="16" transform="translate(4 47)"/><line class="a" x2="16" transform="translate(22 9)"/><line class="a" x2="16" transform="translate(22 13)"/><line class="a" x2="16" transform="translate(22 17)"/><line class="a" x2="16" transform="translate(22 5)"/><line class="a" x2="16" transform="translate(22 1)"/><line class="a" x2="16" transform="translate(4 43)"/><line class="a" x2="16" transform="translate(40 1)"/><line class="a" x2="16" transform="translate(40 43)"/><line class="a" x2="16" transform="translate(40 17)"/><line class="a" x2="16" transform="translate(40 5)"/><line class="a" x2="16" transform="translate(40 9)"/><line class="a" x2="16" transform="translate(40 13)"/><line class="a" x2="16" transform="translate(4 21)"/><line class="a" x2="16" transform="translate(40 21)"/><line class="a" x2="16" transform="translate(22 21)"/><line class="a" x2="16" transform="translate(22 55)"/><line class="a" x2="16" transform="translate(22 59)"/><line class="a" x2="16" transform="translate(22 63)"/><line class="a" x2="16" transform="translate(22 51)"/><line class="a" x2="16" transform="translate(22 47)"/><line class="a" x2="16" transform="translate(22 43)"/><path class="b" d="M52,59H45l6-8H44"/><path class="a" d="M15,14V8a2.946,2.946,0,0,0-3-3h0A2.946,2.946,0,0,0,9,8v6"/><line class="a" x2="6" transform="translate(9 10)"/><line class="a" x2="2" transform="translate(8 30)"/><line class="a" x1="2" transform="translate(50 34)"/><line class="a" x2="14" transform="translate(12 32)"/><line class="a" x2="20" transform="translate(28 32)"/><line class="a" y2="64" transform="translate(1)"/><line class="a" y2="64" transform="translate(59)"/><rect class="a" width="14" height="16" transform="translate(5 1)"/><rect class="a" width="14" height="16" transform="translate(41 47)"/><rect class="a" width="50" height="12" transform="translate(5 26)"/></g></svg>