<svg width="48" height="62" xmlns="http://www.w3.org/2000/svg" viewBox="794 15777 50 64"><defs><style>.a,.b{fill:none;stroke:#868e96;stroke-miterlimit:10;stroke-width:2px;}.b{stroke-linejoin:round;}</style></defs><g transform="translate(794 15777)"><path class="a" d="M41,5h8V63H5V59"/><line class="a" x2="34" transform="translate(6 17)"/><line class="a" x2="34" transform="translate(6 21)"/><line class="a" x2="34" transform="translate(6 25)"/><line class="a" x2="14" transform="translate(6 29)"/><line class="a" y1="15" transform="translate(7 39)"/><line class="a" y1="10" transform="translate(11 44)"/><line class="a" y1="19" transform="translate(15 35)"/><line class="a" y1="13" transform="translate(19 41)"/><line class="a" y1="17" transform="translate(23 37)"/><line class="a" y1="11" transform="translate(27 43)"/><line class="a" y1="13" transform="translate(31 41)"/><line class="a" y1="20" transform="translate(35 34)"/><line class="a" y1="17" transform="translate(39 37)"/><path class="a" d="M37,2V9h7"/><path class="a" d="M37,1l8,8V59H1V1Z"/><rect class="b" width="24" height="6" transform="translate(7 7)"/></g></svg>