<svg width="62" height="62" xmlns="http://www.w3.org/2000/svg" viewBox="1053 6496 64 64"><defs><style>.a{fill:none;stroke:#868e96;stroke-miterlimit:10;stroke-width:2px;}</style></defs><g transform="translate(1053 6496)"><path class="a" d="M42,41h9A12.035,12.035,0,0,0,63,29c0-5.9-4-11-10-11,0-5-3-9-9-9H43A15.81,15.81,0,0,0,29,1,16.047,16.047,0,0,0,13,17a12,12,0,0,0,0,24h9"/><line class="a" y2="10" transform="translate(35 36)"/><line class="a" y2="2" transform="translate(35 32)"/><line class="a" y2="2" transform="translate(35 28)"/><line class="a" y2="2" transform="translate(35 24)"/><line class="a" y2="10" transform="translate(29 24)"/><line class="a" y2="2" transform="translate(29 40)"/><line class="a" y2="2" transform="translate(29 36)"/><line class="a" y2="2" transform="translate(29 44)"/><path class="a" d="M19,18c0-6.1,5-11,10-11"/><circle class="a" cx="7" cy="7" r="7" transform="translate(25 49)"/><circle class="a" cx="3" cy="3" r="3" transform="translate(29 53)"/></g></svg>