<svg width="62" height="54" xmlns="http://www.w3.org/2000/svg" viewBox="821 3502 64 56"><defs><style>.a{fill:none;stroke:#868e96;stroke-linejoin:round;stroke-miterlimit:10;stroke-width:2px;}</style></defs><g transform="translate(821 3502)"><path class="a" d="M59,55H5L1,51V49H25l2,2H37l2-2H63v2Z"/><path class="a" d="M15,13H8a2.946,2.946,0,0,0-3,3V46"/><path class="a" d="M59,46V16a2.946,2.946,0,0,0-3-3H49"/><line class="a" x2="2" transform="translate(27 43)"/><line class="a" x2="2" transform="translate(23 43)"/><line class="a" x2="2" transform="translate(31 43)"/><line class="a" x2="2" transform="translate(35 43)"/><line class="a" x2="2" transform="translate(39 43)"/><path class="a" d="M49,17h6V43H43"/><path class="a" d="M21,43H9V17h6"/><path class="a" d="M46,29,32,39,18,29V1l8,3,3-3h6l3,3,8-3Z"/><line class="a" y2="4" transform="translate(26 4)"/><line class="a" y2="4" transform="translate(38 4)"/><path class="a" d="M36,17l-5,5-3-3"/><circle class="a" cx="8" cy="8" r="8" transform="translate(24 11)"/></g></svg>