<svg width="63" height="62" xmlns="http://www.w3.org/2000/svg" viewBox="1140 6653 64 64"><defs><style>.a{fill:none;stroke:#868e96;stroke-linejoin:round;stroke-miterlimit:10;stroke-width:2px;}</style></defs><g transform="translate(1140 6653)"><path class="a" d="M34,33A23.282,23.282,0,0,1,23,13c0-8,2-12,2-12H53s2,4,2,11c0,15-11,21-11,21"/><path class="a" d="M48,61a2.006,2.006,0,0,1-2,2H32a2.006,2.006,0,0,1-2-2V59a2.006,2.006,0,0,1,2-2H46a2.006,2.006,0,0,1,2,2Z"/><line class="a" x1="4" transform="translate(44 39)"/><path class="a" d="M24,30l-5,5H15"/><rect class="a" width="10" height="22" transform="translate(5 35)"/><line class="a" x1="5" transform="translate(0 35)"/><line class="a" x1="5" transform="translate(0 57)"/><line class="a" x1="2" transform="translate(10 53)"/><path class="a" d="M48,39a3,3,0,0,1,0,6"/><line class="a" x1="4" transform="translate(44 45)"/><path class="a" d="M31,33H46a3,3,0,0,1,0,6"/><path class="a" d="M18,55h3l4,2H45a3,3,0,0,0,0-6"/><path class="a" d="M44,51h2a3,3,0,0,0,0-6"/><path class="a" d="M39,7l2,5h5l-4,3,2,5-5-3-5,3,2-5-4-3h5Z"/><path class="a" d="M59,13V10h4v3c0,13-14,14-17,19"/><path class="a" d="M19,13V10H15v3c0,13,14,14,17,19"/></g></svg>