<svg width="54" height="62" xmlns="http://www.w3.org/2000/svg" viewBox="1687 15923 56 64"><defs><style>.a{fill:none;stroke:#868e96;stroke-miterlimit:10;stroke-width:2px;}</style></defs><g transform="translate(1687 15923)"><circle class="a" cx="15" cy="15" r="15" transform="translate(1 1)"/><path class="a" d="M20,31V51a4,4,0,0,1-8,0V31"/><line class="a" y2="2" transform="translate(16 40)"/><line class="a" y2="2" transform="translate(16 44)"/><line class="a" y2="2" transform="translate(16 48)"/><path class="a" d="M32,7H55V54l-9,9H16V58"/><path class="a" d="M46,63V54h9"/><path class="a" d="M23,16v7H9V9H20"/><path class="a" d="M23,11l-7,7-3-3"/><rect class="a" width="4" height="4" transform="translate(24 34)"/><rect class="a" width="4" height="4" transform="translate(24 42)"/><rect class="a" width="4" height="4" transform="translate(24 50)"/><line class="a" x1="19" transform="translate(31 34)"/><line class="a" x1="19" transform="translate(31 38)"/><line class="a" x1="19" transform="translate(31 42)"/><line class="a" x1="19" transform="translate(31 46)"/><line class="a" x1="10" transform="translate(31 54)"/><line class="a" x1="19" transform="translate(31 50)"/><path class="a" d="M34,18H49V28H31"/><line class="a" x1="2" transform="translate(48 14)"/><line class="a" x1="2" transform="translate(44 14)"/><line class="a" x1="2" transform="translate(40 14)"/></g></svg>