<svg width="62" height="63" xmlns="http://www.w3.org/2000/svg" viewBox="1235 15777 64 64"><defs><style>.a,.b{fill:none;stroke:#868e96;stroke-miterlimit:10;stroke-width:2px;}.b{stroke-linejoin:round;}</style></defs><g transform="translate(1235 15777)"><path class="a" d="M9,28V1H47l8,8V28"/><path class="a" d="M3.1,30.6"/><path class="b" d="M5,55V52L1,40l3.1-9L9,28"/><path class="a" d="M17,56V43l-2-9V28a2.865,2.865,0,0,0-2.9-3A3.031,3.031,0,0,0,9,28v8L8,43"/><path class="b" d="M3,64V55H19v9"/><line class="a" x1="2" transform="translate(14 59)"/><path class="a" d="M60.9,30.6"/><path class="b" d="M59,55V52l4-12-3.1-9L55,28"/><path class="a" d="M47,55V43l2-9V28a2.865,2.865,0,0,1,2.9-3A3.031,3.031,0,0,1,55,28v8l1,7"/><line class="a" x2="2" transform="translate(48 59)"/><path class="a" d="M45,64V56a.945.945,0,0,1,1-1H59a.945.945,0,0,1,1,1v8"/><path class="a" d="M55,9H47V1"/><line class="b" x2="2" transform="translate(14 7)"/><line class="b" x2="2" transform="translate(18 7)"/><line class="b" x2="2" transform="translate(22 7)"/><line class="b" x2="28" transform="translate(14 13)"/><line class="b" x2="36" transform="translate(14 17)"/><line class="b" x2="36" transform="translate(14 21)"/><line class="b" y1="22" transform="translate(38 26)"/><line class="b" y1="18" transform="translate(42 30)"/><line class="b" y1="16" transform="translate(34 32)"/><line class="b" y1="20" transform="translate(30 28)"/><line class="b" y1="18" transform="translate(22 30)"/><line class="b" x2="2" transform="translate(21 51)"/><line class="b" y1="14" transform="translate(26 34)"/><line class="b" x2="2" transform="translate(25 51)"/><line class="b" x2="2" transform="translate(29 51)"/><line class="b" x2="2" transform="translate(33 51)"/><line class="b" x2="2" transform="translate(37 51)"/><line class="b" x2="2" transform="translate(41 51)"/></g></svg>