<svg width="64" height="62" xmlns="http://www.w3.org/2000/svg" viewBox="1328 6651 64 64"><defs><style>.a{fill:none;stroke:#868e96;stroke-linejoin:round;stroke-miterlimit:10;stroke-width:2px;}</style></defs><g transform="translate(1328 6651)"><line class="a" x2="64" transform="translate(0 63)"/><path class="a" d="M21,63V39H43V63"/><path class="a" d="M46,51H61V63"/><path class="a" d="M3,63V45H18"/><path class="a" d="M41,39V35H23v4"/><line class="a" x2="14" transform="translate(25 9)"/><path class="a" d="M38,35l-4-4V29c0-5,7-9,7-18L39,9l2-2V5H23V7l2,2-2,2c0,9,7,13,7,18v2l-4,4"/><path class="a" d="M39,3a2.006,2.006,0,0,1,2-2h3a2.946,2.946,0,0,1,3,3V7c0,12-10,15-10,15"/><path class="a" d="M25,3a2.006,2.006,0,0,0-2-2H20a2.946,2.946,0,0,0-3,3V7c0,12,10,15,10,15"/><line class="a" x1="2" transform="translate(31 13)"/><line class="a" x1="2" transform="translate(27 13)"/><line class="a" x1="2" transform="translate(35 13)"/><path class="a" d="M29,45h3v9"/><line class="a" x2="22" transform="translate(21 59)"/></g></svg>