<svg width="46" height="62" xmlns="http://www.w3.org/2000/svg" viewBox="1454 3497 48 64"><defs><style>.a{fill:none;stroke:#868e96;stroke-linejoin:round;stroke-miterlimit:10;stroke-width:2px;}</style></defs><g transform="translate(1454 3497)"><path class="a" d="M47,46,24,63,1,46V1L11,6l3-5H34l3,5L47,1Z"/><path class="a" d="M5,3V44L24,58,43,44V3"/><line class="a" y2="5" transform="translate(11 6)"/><line class="a" y2="5" transform="translate(37 6)"/><circle class="a" cx="13" cy="13" r="13" transform="translate(11 14)"/><ellipse class="a" cx="3" cy="13" rx="3" ry="13" transform="translate(21 14)"/><ellipse class="a" cx="8" cy="13" rx="8" ry="13" transform="translate(16 14)"/><line class="a" x2="26" transform="translate(11 27)"/><line class="a" x2="2" transform="translate(23 8)"/><line class="a" x2="2" transform="translate(19 8)"/><line class="a" x2="2" transform="translate(27 8)"/><line class="a" x2="2" transform="translate(23 46)"/><line class="a" x2="2" transform="translate(19 46)"/><line class="a" x2="2" transform="translate(27 46)"/></g></svg>