<svg width="62" height="62" xmlns="http://www.w3.org/2000/svg" viewBox="1010 15923 64 64"><defs><style>.a{fill:none;stroke:#868e96;stroke-miterlimit:10;stroke-width:2px;}</style></defs><g transform="translate(1010 15923)"><line class="a" x1="9" y2="2" transform="translate(35 58)"/><line class="a" x1="2" y2="8" transform="translate(58 35)"/><line class="a" y2="8" transform="translate(32 49)"/><path class="a" d="M53,44"/><circle class="a" cx="3" cy="3" r="3" transform="translate(29 29)"/><circle class="a" cx="3" cy="3" r="3" transform="translate(29 15)"/><circle class="a" cx="3" cy="3" r="3" transform="translate(29 1)"/><circle class="a" cx="3" cy="3" r="3" transform="translate(29 43)"/><circle class="a" cx="3" cy="3" r="3" transform="translate(29 57)"/><circle class="a" cx="3" cy="3" r="3" transform="translate(16 21)"/><circle class="a" cx="3" cy="3" r="3" transform="translate(42 21)"/><circle class="a" cx="3" cy="3" r="3" transform="translate(54 43)"/><circle class="a" cx="3" cy="3" r="3" transform="translate(44 54)"/><circle class="a" cx="3" cy="3" r="3" transform="translate(16 37)"/><circle class="a" cx="3" cy="3" r="3" transform="translate(42 37)"/><line class="a" x2="2" transform="translate(21 15)"/><line class="a" x2="2" transform="translate(21 49)"/><line class="a" x2="2" transform="translate(41 49)"/><line class="a" x2="2" transform="translate(12 32)"/><line class="a" x2="2" transform="translate(41 15)"/><line class="a" x2="2" transform="translate(50 32)"/><line class="a" y1="7" x2="6" transform="translate(49 48)"/><line class="a" x1="9" y1="2" transform="translate(35 4)"/><line class="a" x1="2" y1="8" transform="translate(58 21)"/><path class="a" d="M53,20"/><circle class="a" cx="3" cy="3" r="3" transform="translate(54 15)"/><circle class="a" cx="3" cy="3" r="3" transform="translate(44 4)"/><circle class="a" cx="3" cy="3" r="3" transform="translate(57 29)"/><line class="a" x2="6" y2="7" transform="translate(49 9)"/><line class="a" x2="9" y2="2" transform="translate(20 58)"/><line class="a" x2="2" y2="8" transform="translate(4 35)"/><circle class="a" cx="3" cy="3" r="3" transform="translate(4 43)"/><circle class="a" cx="3" cy="3" r="3" transform="translate(14 54)"/><line class="a" x1="6" y1="7" transform="translate(9 48)"/><line class="a" y1="2" x2="9" transform="translate(20 4)"/><line class="a" y1="8" x2="2" transform="translate(4 21)"/><circle class="a" cx="3" cy="3" r="3" transform="translate(4 15)"/><circle class="a" cx="3" cy="3" r="3" transform="translate(14 4)"/><circle class="a" cx="3" cy="3" r="3" transform="translate(1 29)"/><line class="a" x1="6" y2="7" transform="translate(9 9)"/><line class="a" x1="7" y1="4" transform="translate(22 42)"/><line class="a" y1="10" transform="translate(19 27)"/><line class="a" x2="7" y2="5" transform="translate(22 26)"/><line class="a" y1="5" x2="7" transform="translate(35 26)"/><line class="a" y1="8" transform="translate(32 7)"/><line class="a" x2="7" y2="3" transform="translate(35 19)"/><line class="a" y1="4" x2="7" transform="translate(35 42)"/><line class="a" x2="6" y2="3" transform="translate(48 42)"/><line class="a" x1="6" y2="3" transform="translate(10 42)"/><line class="a" y2="10" transform="translate(45 27)"/><line class="a" x1="6" y1="3" transform="translate(10 20)"/></g></svg>