<svg width="58" height="62" xmlns="http://www.w3.org/2000/svg" viewBox="1461 15777 60 64"><defs><style>.a,.b{fill:none;stroke:#868e96;stroke-miterlimit:10;stroke-width:2px;}.b{stroke-linejoin:round;}</style></defs><g transform="translate(1461 15777)"><path class="a" d="M59,9H51V1"/><path class="b" d="M29,55H17V1H51l8,8V55H47"/><path class="b" d="M44,51V63l-6-5-6,5V51"/><path class="a" d="M51,38a2.833,2.833,0,0,0-2.4-2.9,10.887,10.887,0,0,0-1-2.5A3.081,3.081,0,0,0,45,28a4.193,4.193,0,0,0-1.6.4,10.887,10.887,0,0,0-2.5-1,2.952,2.952,0,0,0-5.8,0,10.887,10.887,0,0,0-2.5,1A3.081,3.081,0,0,0,28,31a4.193,4.193,0,0,0,.4,1.6,10.887,10.887,0,0,0-1,2.5,2.952,2.952,0,0,0,0,5.8,10.887,10.887,0,0,0,1,2.5A3.081,3.081,0,0,0,31,48a4.193,4.193,0,0,0,1.6-.4,10.887,10.887,0,0,0,2.5,1,2.952,2.952,0,0,0,5.8,0,10.887,10.887,0,0,0,2.5-1A3.081,3.081,0,0,0,48,45a4.193,4.193,0,0,0-.4-1.6,10.887,10.887,0,0,0,1-2.5A2.833,2.833,0,0,0,51,38Z"/><circle class="b" cx="6" cy="6" r="6" transform="translate(32 32)"/><line class="b" x2="6" transform="translate(5 55)"/><line class="b" x2="6" transform="translate(5 39)"/><line class="b" x2="6" transform="translate(5 6)"/><path class="b" d="M11,4A2.946,2.946,0,0,0,8,1,2.946,2.946,0,0,0,5,4V58l3,5,3-5Z"/><line class="b" x2="12" transform="translate(22 6)"/><line class="b" x2="32" transform="translate(22 13)"/><line class="b" x2="32" transform="translate(22 17)"/><line class="b" x2="32" transform="translate(22 21)"/><path class="b" d="M1,29V10H11"/></g></svg>