<svg width="62" height="62" xmlns="http://www.w3.org/2000/svg" viewBox="1141 6339 64 64"><defs><style>.a,.b{fill:none;stroke:#868e96;stroke-miterlimit:10;stroke-width:2px;}.b{stroke-linecap:round;}</style></defs><g transform="translate(1141 6341)"><path class="a" d="M28,19V57h8V19" transform="translate(0 -2)"/><path class="a" d="M36,11V5a4,4,0,0,0-8,0v6" transform="translate(0 -2)"/><path class="a" d="M25,57H10a6.018,6.018,0,0,0-6,6H60a6.018,6.018,0,0,0-6-6H39" transform="translate(0 -2)"/><line class="a" y2="2" transform="translate(32 2)"/><circle class="a" cx="6" cy="6" r="6" transform="translate(26 7)"/><path class="a" d="M57,17h4a2,2,0,0,0,0-4H38" transform="translate(0 -2)"/><line class="a" x2="13" transform="translate(38 15)"/><path class="a" d="M7,17H3a2,2,0,0,1,0-4H26" transform="translate(0 -2)"/><line class="a" x1="13" transform="translate(13 15)"/><g transform="translate(0 -2)"><path class="b" d="M1,35H19A9,9,0,0,1,1,35Z"/><line class="b" y1="18" x2="8" transform="translate(2 17)"/><line class="b" x2="8" y2="18" transform="translate(10 17)"/></g><g transform="translate(0 -2)"><path class="b" d="M45,35H63a9,9,0,0,1-18,0Z"/><line class="b" y1="18" x2="8" transform="translate(46 17)"/><line class="b" x2="8" y2="18" transform="translate(54 17)"/></g><line class="a" x2="2" transform="translate(31 51)"/><line class="a" x2="2" transform="translate(31 47)"/><line class="a" x2="2" transform="translate(31 43)"/></g></svg>