<svg width="62" height="64" xmlns="http://www.w3.org/2000/svg" viewBox="1418 6496 64 64"><defs><style>.a{fill:none;stroke:#868e96;stroke-miterlimit:10;stroke-width:2px;}</style></defs><g transform="translate(1418 6496)"><path class="a" d="M41,43a2.006,2.006,0,0,1-2,2H25a2.006,2.006,0,0,1-2-2V31a2.006,2.006,0,0,1,2-2H39a2.006,2.006,0,0,1,2,2Z"/><path class="a" d="M25,29V25a6.018,6.018,0,0,1,6-6h2a6.018,6.018,0,0,1,6,6v4"/><circle class="a" cx="1" cy="1" r="1" transform="translate(31 34)"/><line class="a" y2="5" transform="translate(32 36)"/><line class="a" x1="9" transform="translate(7 32)"/><circle class="a" cx="3" cy="3" r="3" transform="translate(1 29)"/><line class="a" x2="9" transform="translate(48 32)"/><circle class="a" cx="3" cy="3" r="3" transform="translate(57 29)"/><path class="a" d="M44,39h4a4.012,4.012,0,0,1,4,4v6"/><circle class="a" cx="3" cy="3" r="3" transform="translate(49 49)"/><path class="a" d="M20,39H16a4.012,4.012,0,0,0-4,4v6"/><circle class="a" cx="3" cy="3" r="3" transform="translate(9 49)"/><path class="a" d="M44,25h4a4.012,4.012,0,0,0,4-4V15"/><circle class="a" cx="3" cy="3" r="3" transform="translate(49 9)"/><path class="a" d="M20,25H16a4.012,4.012,0,0,1-4-4V15"/><circle class="a" cx="3" cy="3" r="3" transform="translate(9 9)"/><circle class="a" cx="3" cy="3" r="3" transform="translate(23 49)"/><line class="a" y2="9" transform="translate(26 55)"/><circle class="a" cx="3" cy="3" r="3" transform="translate(35 49)"/><line class="a" y2="9" transform="translate(38 55)"/><circle class="a" cx="3" cy="3" r="3" transform="translate(23 9)"/><line class="a" y1="9" transform="translate(26)"/><circle class="a" cx="3" cy="3" r="3" transform="translate(35 9)"/><line class="a" y1="9" transform="translate(38)"/><line class="a" x2="2" transform="translate(44 32)"/><line class="a" x1="2" transform="translate(18 32)"/></g></svg>