<svg xmlns="http://www.w3.org/2000/svg" viewBox="12483 3928 64 58" width="62" height="56"><defs><style>.a{fill:none;stroke:#2aa0bc;stroke-linejoin:round;stroke-miterlimit:10;stroke-width:2px;}</style></defs><g transform="translate(12483 3928)"><rect class="a" width="46" height="30" transform="translate(17 27)"/><path class="a" d="M63,27,40,48,17,27"/><line class="a" y1="13" x2="13" transform="translate(17 44)"/><line class="a" x1="13" y1="13" transform="translate(50 44)"/><line class="a" x2="2" transform="translate(2 39)"/><line class="a" x2="2" transform="translate(6 39)"/><line class="a" x2="2" transform="translate(10 39)"/><line class="a" x2="2" transform="translate(4 46)"/><line class="a" x2="2" transform="translate(8 46)"/><line class="a" x2="2" transform="translate(12 46)"/><line class="a" x2="2" transform="translate(2 53)"/><line class="a" x2="2" transform="translate(6 53)"/><line class="a" x2="2" transform="translate(10 53)"/><path class="a" d="M47,24V1H1V33H14"/><line class="a" x1="2" transform="translate(60 5)"/><line class="a" x1="2" transform="translate(56 5)"/><line class="a" x1="2" transform="translate(52 5)"/><line class="a" x1="2" transform="translate(58 12)"/><line class="a" x1="2" transform="translate(54 12)"/><line class="a" x1="2" transform="translate(50 12)"/><line class="a" x1="2" transform="translate(60 19)"/><line class="a" x1="2" transform="translate(56 19)"/><line class="a" x1="2" transform="translate(52 19)"/><rect class="a" width="10" height="10" transform="translate(5 5)"/><line class="a" x1="26" transform="translate(18 5)"/><line class="a" x1="26" transform="translate(18 9)"/><line class="a" x2="40" transform="translate(4 23)"/><line class="a" x2="40" transform="translate(4 19)"/><line class="a" x2="10" transform="translate(4 27)"/></g></svg>