<svg xmlns="http://www.w3.org/2000/svg" viewBox="15528 2630 64 64"><defs><style>.a{fill:none;stroke:#868e96;stroke-miterlimit:10;stroke-width:2px;}</style></defs><g transform="translate(15528 2630)"><path class="a" d="M42,41h9A12.035,12.035,0,0,0,63,29c0-5.9-4-11-10-11,0-5-3-9-9-9H43A15.81,15.81,0,0,0,29,1,16.047,16.047,0,0,0,13,17a12,12,0,0,0,0,24h9"/><path class="a" d="M19,18c0-6.1,5-11,10-11"/><path class="a" d="M39,46"/><path class="a" d="M10,64V59c0-10,7-9,14-13"/><path class="a" d="M40,46c7,4,14,3,14,13v5"/><path class="a" d="M36,50l-4-2-4,2-4-4,2-3,6,1,6-1,2,3Z"/><line class="a" y2="4" transform="translate(37 39)"/><line class="a" y1="4" transform="translate(27 39)"/><line class="a" x2="2" transform="translate(31 57)"/><line class="a" x2="2" transform="translate(31 53)"/><path class="a" d="M41,26v4c-1,7-4,9-4,9a13,13,0,0,1-10,0s-3-2-4-9V26"/><path class="a" d="M23,26c0-6.1,2.9-9,9-9s9,2.9,9,9"/><path class="a" d="M23,26l4-2,5,2,5,2,4-2"/><line class="a" y1="4" transform="translate(18 60)"/><line class="a" y1="4" transform="translate(46 60)"/></g></svg>