<svg width="64" height="58" xmlns="http://www.w3.org/2000/svg" viewBox="1683 15778 64 60"><defs><style>.a{fill:none;stroke:#868e96;stroke-linejoin:round;stroke-miterlimit:10;stroke-width:2px;}</style></defs><g transform="translate(1683 15778)"><path class="a" d="M59,33h4V59H9V55"/><path class="a" d="M55,29h4V55H5V51"/><rect class="a" width="54" height="26" transform="translate(1 25)"/><path class="a" d="M11,25"/><path class="a" d="M1,35"/><path class="a" d="M45,25"/><path class="a" d="M55,35"/><path class="a" d="M45,51"/><path class="a" d="M55,41"/><path class="a" d="M1,41"/><path class="a" d="M11,51"/><path class="a" d="M48,47H8L5,44V32l3-3H48l3,3V44Z"/><line class="a" x1="2" transform="translate(16 38)"/><line class="a" x1="2" transform="translate(12 38)"/><line class="a" x1="2" transform="translate(42 38)"/><line class="a" x1="2" transform="translate(38 38)"/><circle class="a" cx="5" cy="5" r="5" transform="translate(23 33)"/><path class="a" d="M27,17l-4,4-4-4"/><path class="a" d="M45,17l-4,4-4-4"/><path class="a" d="M36,5,32,1,28,5"/><path class="a" d="M23,21V10H0"/><path class="a" d="M41,21V10H64"/><line class="a" y1="21" transform="translate(32 1)"/></g></svg>