<svg xmlns="http://www.w3.org/2000/svg" viewBox="12239 3928 64 58" width="62" height="56"><defs><style>.a,.b{fill:none;stroke:#2aa0bc;stroke-miterlimit:10;stroke-width:2px;}.a{stroke-linejoin:round;}</style></defs><g transform="translate(12239 3928)"><circle class="a" cx="3" cy="3" r="3" transform="translate(1 26)"/><circle class="a" cx="3" cy="3" r="3" transform="translate(57 26)"/><path class="a" d="M55,7v6H49"/><path class="a" d="M9,51V45h6"/><path class="a" d="M48.2,21.1l-5.5.2,1.8-5.2a17.3,17.3,0,0,0-4.1-3l-4.3,3.3-1.5-5.2A22.752,22.752,0,0,0,32,11a19.481,19.481,0,0,0-2.5.2L28,16.4l-4.3-3.3a17.3,17.3,0,0,0-4.1,3l1.8,5.2-5.5-.2a19.356,19.356,0,0,0-1.6,4.8L18.8,29l-4.5,3.1a15.974,15.974,0,0,0,1.6,4.8l5.5-.2-1.8,5.2a17.3,17.3,0,0,0,4.1,3L28,41.6l1.5,5.2A21.053,21.053,0,0,0,32,47a19.481,19.481,0,0,0,2.5-.2L36,41.6l4.3,3.3a17.3,17.3,0,0,0,4.1-3l-1.8-5.2,5.5.2a19.356,19.356,0,0,0,1.6-4.8L45.2,29l4.5-3.1A19.177,19.177,0,0,0,48.2,21.1Z"/><line class="b" x2="2" transform="translate(5 39)"/><line class="b" x2="2" transform="translate(57 19)"/><path class="b" d="M59.9,31.9A28.051,28.051,0,0,1,9,45"/><path class="b" d="M4.2,26A27.988,27.988,0,0,1,55,13"/><path class="b" d="M29,32a3,3,0,0,0,6,0c0-1.7-3-3-3-3s-3-1.3-3-3a3,3,0,0,1,6,0"/><line class="b" y1="3" transform="translate(32 20)"/><line class="b" y2="3" transform="translate(32 35)"/><line class="b" x2="2" transform="translate(38 29)"/><line class="b" x2="2" transform="translate(24 29)"/></g></svg>