<svg width="62" height="62" xmlns="http://www.w3.org/2000/svg" viewBox="1328 6340 64 64"><defs><style>.a{fill:none;stroke:#868e96;stroke-miterlimit:10;stroke-width:2px;}</style></defs><g transform="translate(1328 6340)"><path class="a" d="M46,38a4,4,0,0,0-8,0c0,2.2,4,4,4,4s4,1.8,4,4a4,4,0,0,1-8,0"/><line class="a" y1="3" transform="translate(42 31)"/><line class="a" y2="3" transform="translate(42 50)"/><circle class="a" cx="21" cy="21" r="21" transform="translate(21 21)"/><line class="a" x1="2" transform="translate(30 42)"/><line class="a" x1="2" transform="translate(52 42)"/><circle class="a" cx="17" cy="17" r="17" transform="translate(25 25)"/><path class="a" d="M44,7h9a4.012,4.012,0,0,1,4,4v9"/><path class="a" d="M20,57H11a4.012,4.012,0,0,1-4-4V44"/><path class="a" d="M22,43A21,21,0,1,1,43,22"/><path class="a" d="M22,39A17,17,0,1,1,39,22"/><path class="a" d="M24,31H22a9,9,0,0,1,0-18,9.057,9.057,0,0,1,8.1,5"/><line class="a" x2="12" transform="translate(10 20)"/><line class="a" x2="12" transform="translate(10 24)"/></g></svg>