<svg width="46" height="62" xmlns="http://www.w3.org/2000/svg" viewBox="1138 3498 48 64"><defs><style>.a,.b{fill:none;stroke:#868e96;stroke-miterlimit:10;stroke-width:2px;}.a{stroke-linejoin:round;}</style></defs><g transform="translate(1138 3498)"><path class="a" d="M47,46,24,63,1,46V1L11,6l3-5H34l3,5L47,1Z"/><path class="a" d="M5,3V44L24,58,43,44V3"/><line class="a" y2="5" transform="translate(11 6)"/><line class="a" y2="5" transform="translate(37 6)"/><circle class="a" cx="7" cy="7" r="7" transform="translate(17 12)"/><path class="b" d="M26,26v9h3"/><path class="b" d="M25,39h3v4H26v3H22V26"/><line class="b" x1="4" transform="translate(22 16)"/><line class="b" x2="2" transform="translate(10 14)"/><line class="b" x2="2" transform="translate(10 18)"/><line class="b" x2="2" transform="translate(10 22)"/><line class="b" x2="2" transform="translate(36 14)"/><line class="b" x2="2" transform="translate(36 18)"/><line class="b" x2="2" transform="translate(36 22)"/></g></svg>