<svg width="62" height="62" xmlns="http://www.w3.org/2000/svg" viewBox="1235 15923 64 64"><defs><style>.a,.b{fill:none;stroke:#868e96;stroke-miterlimit:10;stroke-width:2px;}.b{stroke-linecap:square;stroke-linejoin:round;}</style></defs><g transform="translate(1235 15923)"><path class="a" d="M46,1V9h8"/><path class="a" d="M54,34V9L46,1H10V34"/><path class="a" d="M10,46V63H54V50"/><line class="a" x2="48" transform="translate(10 43)"/><line class="a" x1="48" transform="translate(10 37)"/><rect class="a" width="5" height="6" transform="translate(58 37)"/><path class="b" d="M10,37H8L1,40l7,3h2Z"/><line class="a" y1="6" transform="translate(22 37)"/><path class="a" d="M39,47H54V37"/><path class="a" d="M15,51c2,0,2,2,4,2s2-2,4-2,2,2,4,2,2-2,4-2,2,2,4,2"/><line class="a" x2="2" transform="translate(15 9)"/><line class="a" x2="2" transform="translate(19 9)"/><line class="a" x2="2" transform="translate(23 9)"/><line class="a" x2="34" transform="translate(15 15)"/><line class="a" x2="34" transform="translate(15 19)"/><line class="a" x2="34" transform="translate(15 23)"/><line class="a" x2="34" transform="translate(15 27)"/><line class="a" x2="16" transform="translate(15 31)"/><line class="a" x2="20" transform="translate(15 57)"/></g></svg>