<svg width="64" height="58" xmlns="http://www.w3.org/2000/svg" viewBox="1010 15780 64 60"><defs><style>.a{fill:none;stroke:#868e96;stroke-linejoin:round;stroke-miterlimit:10;stroke-width:2px;}</style></defs><g transform="translate(1010 15780)"><line class="a" y2="18" transform="translate(32 41)"/><path class="a" d="M42,41l6,17v1"/><path class="a" d="M22,41,16,58v1"/><path class="a" d="M59,12V41H5V12"/><path class="a" d="M1,9V5H25l2-4H37l2,4H63V9Z"/><line class="a" x2="6" transform="translate(29 5)"/><line class="a" x2="64" transform="translate(0 59)"/><circle class="a" cx="1" cy="1" r="1" transform="translate(25 17)"/><circle class="a" cx="1" cy="1" r="1" transform="translate(35 31)"/><path class="a" d="M31,20V18a5,5,0,0,0-10,0v6a4.951,4.951,0,0,1-5,5H10"/><path class="a" d="M54,21H46a4.951,4.951,0,0,0-5,5v6a5,5,0,0,1-10,0V30"/><path class="a" d="M50,25l4-4-4-4"/><line class="a" y2="2" transform="translate(31 22)"/><line class="a" y2="2" transform="translate(31 26)"/><line class="a" x2="2" transform="translate(8 13)"/><line class="a" x2="2" transform="translate(54 13)"/><line class="a" x2="2" transform="translate(54 37)"/><line class="a" x2="2" transform="translate(8 37)"/></g></svg>