<svg width="48" height="14.800000000000002" xmlns="http://www.w3.org/2000/svg">

 <g>
  <title>background</title>
  <rect fill="none" id="canvas_background" height="16.8" width="50" y="-1" x="-1"/>
 </g>
 <g>
  <title>Layer 1</title>
  <path stroke="null" id="svg_2" fill="#FFFFFF" d="m44.793548,0.282175l-3.011095,0c-0.935204,0 -1.630843,0.2546 -2.041811,1.186796l-5.786635,13.104879l4.092644,0c0,0 0.667573,-1.762152 0.81893,-2.148062c0.448056,0 4.424425,0.006014 4.99076,0.006014c0.116274,0.499176 0.47512,2.142047 0.47512,2.142047l3.615519,0l-3.153431,-14.291676zm-4.806325,9.21772c0.320756,-0.820934 1.552659,-3.996417 1.552659,-3.996417c-0.02105,0.039092 0.317749,-0.826949 0.519223,-1.365217l0.262619,1.232905c0,0 0.74676,3.414045 0.903128,4.128729l-3.237629,0zm-5.760574,0.394931c-0.028066,2.969998 -2.690339,4.886514 -6.786992,4.886514c-1.747117,-0.018043 -3.430082,-0.361853 -4.342232,-0.761795l0.548292,-3.200542l0.502183,0.228539c1.280016,0.533257 2.108969,0.748764 3.669647,0.748764c1.119638,0 2.318463,-0.439035 2.330491,-1.39629c0.007017,-0.626476 -0.502183,-1.072527 -2.020762,-1.774181c-1.479486,-0.684613 -3.438101,-1.831315 -3.413042,-3.885155c0.02105,-2.77955 2.735446,-4.71912 6.58652,-4.71912c1.509557,0 2.719408,0.310732 3.491226,0.600415l-0.527242,3.099303l-0.351829,-0.16539c-0.717691,-0.28868 -1.641869,-0.567337 -2.916873,-0.54729c-1.525595,0 -2.233262,0.635497 -2.233262,1.229898c-0.008019,0.669578 0.825946,1.110617 2.189158,1.774181c2.252307,1.017397 3.291756,2.257319 3.274716,3.882148zm-34.226649,-9.464301l0.050118,-0.286676l6.042237,0c0.81492,0.031073 1.471467,0.290685 1.698001,1.161737l1.314096,6.318889c-1.291042,-3.304787 -4.402373,-6.054266 -9.104453,-7.193951zm17.622524,-0.150354l-6.137462,14.272631l-4.123717,0.007017l-3.490224,-11.925099c2.508912,1.605784 4.645947,4.153788 5.398721,5.927968l0.406959,1.47247l3.816994,-9.751979l4.128729,-0.003007l0,0zm1.575713,-0.012028l3.899188,0l-2.438746,14.299695l-3.897183,0l2.436742,-14.299695z"/>
 </g>
</svg>