<svg width="54" height="62" xmlns="http://www.w3.org/2000/svg" viewBox="1463 15923 56 64"><defs><style>.a,.b{fill:none;stroke:#868e96;stroke-miterlimit:10;stroke-width:2px;}.b{stroke-linejoin:round;}</style></defs><g transform="translate(1463 15923)"><rect class="a" width="26" height="10" transform="translate(15 27)"/><path class="b" d="M12,30H8a2.006,2.006,0,0,1-2-2V15"/><path class="b" d="M10,19,6,15,2,19"/><path class="a" d="M44,30h4a2.006,2.006,0,0,0,2-2V15"/><path class="a" d="M46,19l4-4,4,4"/><line class="a" y1="9" transform="translate(28 15)"/><path class="a" d="M32,19l-4-4-4,4"/><path class="b" d="M12,34H8a2.006,2.006,0,0,0-2,2V49"/><path class="b" d="M10,45,6,49,2,45"/><path class="a" d="M44,34h4a2.006,2.006,0,0,1,2,2V49"/><path class="a" d="M46,45l4,4,4-4"/><line class="a" y2="9" transform="translate(28 40)"/><path class="a" d="M32,45l-4,4-4-4"/><circle class="a" cx="5" cy="5" r="5" transform="translate(1 1)"/><circle class="a" cx="5" cy="5" r="5" transform="translate(23 1)"/><circle class="a" cx="5" cy="5" r="5" transform="translate(45 1)"/><circle class="a" cx="5" cy="5" r="5" transform="translate(1 53)"/><circle class="a" cx="5" cy="5" r="5" transform="translate(23 53)"/><circle class="a" cx="5" cy="5" r="5" transform="translate(45 53)"/><line class="a" x2="2" transform="translate(27 32)"/><line class="a" x2="2" transform="translate(23 32)"/><line class="a" x2="2" transform="translate(31 32)"/></g></svg>